  0
SECTION
  2
HEADER
  9
$ACADVER
  1
AC1006
  9
$EXTMIN
 10
0.000000
 20
0.000000
 30
0.000000
  9
$EXTMAX
 10
1055.000000
 20
1181.000000
 30
0.000000
  0
ENDSEC
  0
SECTION
  2
ENTITIES
  0
POLYLINE
  8
0
 66
1
 70
1
  0
VERTEX
  8
0
 10
497.000000
 20
1178.519591
 42
0.029048
  0
VERTEX
  8
0
 10
462.971876
 20
1172.124763
 42
0.029527
  0
VERTEX
  8
0
 10
430.104463
 20
1161.853969
 42
0.029298
  0
VERTEX
  8
0
 10
398.438632
 20
1147.694086
 42
0.027642
  0
VERTEX
  8
0
 10
368.000000
 20
1129.681463
 42
0.027302
  0
VERTEX
  8
0
 10
341.179008
 20
1109.536176
 42
0.024216
  0
VERTEX
  8
0
 10
315.564952
 20
1085.806969
 42
0.024166
  0
VERTEX
  8
0
 10
292.310530
 20
1059.655814
 42
0.026867
  0
VERTEX
  8
0
 10
272.553198
 20
1032.259322
 42
-0.007137
  0
VERTEX
  8
0
 10
269.224211
 20
1027.236924
 42
-0.036819
  0
VERTEX
  8
0
 10
267.145870
 20
1024.630875
 42
-0.069733
  0
VERTEX
  8
0
 10
265.420273
 20
1023.221893
 42
-0.098037
  0
VERTEX
  8
0
 10
263.558150
 20
1022.542080
 42
-0.004305
  0
VERTEX
  8
0
 10
261.717111
 20
1022.271398
 42
-0.000591
  0
VERTEX
  8
0
 10
257.873332
 20
1021.744655
 42
-0.000678
  0
VERTEX
  8
0
 10
253.318641
 20
1021.132263
 42
-0.000574
  0
VERTEX
  8
0
 10
248.500000
 20
1020.496661
 42
0.003072
  0
VERTEX
  8
0
 10
227.043655
 20
1017.557294
 42
0.005143
  0
VERTEX
  8
0
 10
209.046174
 20
1014.789789
 42
0.001785
  0
VERTEX
  8
0
 10
193.814055
 20
1012.231002
 42
0.155075
  0
VERTEX
  8
0
 10
191.775833
 20
1011.175833
 42
0.100482
  0
VERTEX
  8
0
 10
191.309180
 20
1010.471441
 42
0.018701
  0
VERTEX
  8
0
 10
190.778095
 20
1009.004777
 42
0.019364
  0
VERTEX
  8
0
 10
190.280308
 20
1007.215168
 42
0.016615
  0
VERTEX
  8
0
 10
189.893161
 20
1005.298883
 42
0.041688
  0
VERTEX
  8
0
 10
189.317934
 20
998.366969
 42
0.002496
  0
VERTEX
  8
0
 10
189.433869
 20
977.389316
 42
0.001570
  0
VERTEX
  8
0
 10
189.730910
 20
955.641549
 42
0.076359
  0
VERTEX
  8
0
 10
190.460396
 20
951.371898
 42
0.132744
  0
VERTEX
  8
0
 10
191.742087
 20
949.439267
 42
0.089843
  0
VERTEX
  8
0
 10
194.018788
 20
948.068170
 42
0.063060
  0
VERTEX
  8
0
 10
197.387927
 20
947.254752
 42
0.027743
  0
VERTEX
  8
0
 10
201.975624
 20
947.000000
 42
-0.034547
  0
VERTEX
  8
0
 10
206.461878
 20
946.689656
 42
-0.129993
  0
VERTEX
  8
0
 10
209.040417
 20
945.609575
 42
-0.148284
  0
VERTEX
  8
0
 10
210.558278
 20
943.488686
 42
-0.049772
  0
VERTEX
  8
0
 10
211.425718
 20
939.738053
 42
-0.000345
  0
VERTEX
  8
0
 10
211.749371
 20
937.205951
 42
-0.000049
  0
VERTEX
  8
0
 10
212.408848
 20
932.013976
 42
-0.000056
  0
VERTEX
  8
0
 10
213.187737
 20
925.871550
 42
-0.000048
  0
VERTEX
  8
0
 10
214.007675
 20
919.394630
 42
0.002543
  0
VERTEX
  8
0
 10
214.890763
 20
912.687673
 42
0.002394
  0
VERTEX
  8
0
 10
215.859320
 20
905.853660
 42
0.002380
  0
VERTEX
  8
0
 10
216.775565
 20
899.804984
 42
0.008298
  0
VERTEX
  8
0
 10
217.450291
 20
895.913763
 42
-0.018913
  0
VERTEX
  8
0
 10
218.132553
 20
891.413590
 42
-0.028415
  0
VERTEX
  8
0
 10
218.354060
 20
887.449916
 42
-0.020603
  0
VERTEX
  8
0
 10
218.151859
 20
882.659928
 42
-0.005425
  0
VERTEX
  8
0
 10
217.429656
 20
875.019133
 42
0.019777
  0
VERTEX
  8
0
 10
216.153414
 20
855.574525
 42
0.016173
  0
VERTEX
  8
0
 10
216.285782
 20
834.733321
 42
0.016224
  0
VERTEX
  8
0
 10
217.761152
 20
814.029177
 42
0.020391
  0
VERTEX
  8
0
 10
220.527477
 20
795.000000
 42
0.031450
  0
VERTEX
  8
0
 10
227.075603
 20
769.141707
 42
0.028937
  0
VERTEX
  8
0
 10
236.962095
 20
743.557510
 42
0.028410
  0
VERTEX
  8
0
 10
249.947110
 20
718.822179
 42
0.027701
  0
VERTEX
  8
0
 10
265.752673
 20
695.500000
 42
0.009392
  0
VERTEX
  8
0
 10
273.143162
 20
686.167301
 42
0.005332
  0
VERTEX
  8
0
 10
282.417360
 20
675.139249
 42
0.005310
  0
VERTEX
  8
0
 10
292.059541
 20
664.156853
 42
0.008294
  0
VERTEX
  8
0
 10
300.614898
 20
654.931130
 42
-0.012319
  0
VERTEX
  8
0
 10
303.443853
 20
651.830821
 42
-0.014793
  0
VERTEX
  8
0
 10
305.943106
 20
648.774391
 42
-0.013529
  0
VERTEX
  8
0
 10
307.886819
 20
646.101810
 42
-0.089195
  0
VERTEX
  8
0
 10
308.564096
 20
644.600644
 42
-0.083112
  0
VERTEX
  8
0
 10
309.127953
 20
637.572952
 42
-0.039462
  0
VERTEX
  8
0
 10
307.634910
 20
628.587767
 42
-0.039104
  0
VERTEX
  8
0
 10
304.666594
 20
619.681718
 42
-0.063906
  0
VERTEX
  8
0
 10
300.666062
 20
612.814928
 42
-0.081663
  0
VERTEX
  8
0
 10
295.765267
 20
608.224847
 42
-0.018446
  0
VERTEX
  8
0
 10
286.021831
 20
602.213260
 42
-0.008360
  0
VERTEX
  8
0
 10
268.359051
 20
592.582183
 42
-0.000872
  0
VERTEX
  8
0
 10
226.500000
 20
570.750285
 42
0.001048
  0
VERTEX
  8
0
 10
198.824974
 20
556.303783
 42
0.002767
  0
VERTEX
  8
0
 10
179.089654
 20
545.809480
 42
0.003325
  0
VERTEX
  8
0
 10
161.672435
 20
536.273841
 42
0.002270
  0
VERTEX
  8
0
 10
142.000000
 20
525.215637
 42
0.007278
  0
VERTEX
  8
0
 10
128.182913
 20
517.097804
 42
0.005722
  0
VERTEX
  8
0
 10
113.443610
 20
507.914517
 42
0.005830
  0
VERTEX
  8
0
 10
99.784912
 20
498.959954
 42
0.012471
  0
VERTEX
  8
0
 10
89.500000
 20
491.665529
 42
0.045847
  0
VERTEX
  8
0
 10
61.867767
 20
466.763808
 42
0.044307
  0
VERTEX
  8
0
 10
38.883396
 20
436.973357
 42
0.043458
  0
VERTEX
  8
0
 10
21.135041
 20
403.024965
 42
0.040699
  0
VERTEX
  8
0
 10
9.058221
 20
365.773777
 42
0.018441
  0
VERTEX
  8
0
 10
4.932865
 20
344.917143
 42
0.018282
  0
VERTEX
  8
0
 10
2.341442
 20
323.752851
 42
0.018493
  0
VERTEX
  8
0
 10
1.324191
 20
302.706141
 42
0.020043
  0
VERTEX
  8
0
 10
1.914179
 20
282.202049
 42
0.016062
  0
VERTEX
  8
0
 10
5.149081
 20
250.272346
 42
0.029006
  0
VERTEX
  8
0
 10
10.140470
 20
224.470005
 42
0.032618
  0
VERTEX
  8
0
 10
17.579523
 20
201.585569
 42
0.028345
  0
VERTEX
  8
0
 10
28.234827
 20
178.726300
 42
0.016737
  0
VERTEX
  8
0
 10
37.072986
 20
163.514270
 42
0.023404
  0
VERTEX
  8
0
 10
46.036543
 20
150.596103
 42
0.021583
  0
VERTEX
  8
0
 10
56.721051
 20
137.822095
 42
0.011560
  0
VERTEX
  8
0
 10
70.934203
 20
122.952765
 42
0.019781
  0
VERTEX
  8
0
 10
91.368433
 20
104.095617
 42
0.023488
  0
VERTEX
  8
0
 10
112.128942
 20
88.024558
 42
0.022472
  0
VERTEX
  8
0
 10
135.076412
 20
73.417562
 42
0.015680
  0
VERTEX
  8
0
 10
162.147602
 20
58.958570
 42
0.016240
  0
VERTEX
  8
0
 10
188.446403
 20
47.001387
 42
0.016089
  0
VERTEX
  8
0
 10
215.546896
 20
36.736385
 42
0.014641
  0
VERTEX
  8
0
 10
245.501036
 20
27.450071
 42
0.009593
  0
VERTEX
  8
0
 10
280.500000
 20
18.432951
 42
0.012507
  0
VERTEX
  8
0
 10
295.950027
 20
15.172895
 42
0.004799
  0
VERTEX
  8
0
 10
317.572816
 20
11.386707
 42
0.004840
  0
VERTEX
  8
0
 10
339.467291
 20
7.986562
 42
0.011161
  0
VERTEX
  8
0
 10
356.000000
 20
5.958401
 42
-0.002395
  0
VERTEX
  8
0
 10
360.131243
 20
5.524963
 42
-0.003251
  0
VERTEX
  8
0
 10
363.856250
 20
5.091573
 42
-0.002174
  0
VERTEX
  8
0
 10
366.976776
 20
4.694151
 42
-0.036203
  0
VERTEX
  8
0
 10
368.000000
 20
4.483110
 42
0.048730
  0
VERTEX
  8
0
 10
369.144228
 20
4.276797
 42
0.000724
  0
VERTEX
  8
0
 10
375.951263
 20
3.734086
 42
0.001962
  0
VERTEX
  8
0
 10
383.861762
 20
3.146134
 42
0.001294
  0
VERTEX
  8
0
 10
392.961745
 20
2.529317
 42
0.009789
  0
VERTEX
  8
0
 10
409.998180
 20
1.753385
 42
0.003643
  0
VERTEX
  8
0
 10
433.968449
 20
1.306247
 42
0.002280
  0
VERTEX
  8
0
 10
469.365113
 20
1.065308
 42
0.000562
  0
VERTEX
  8
0
 10
527.500000
 20
1.000000
 42
0.000562
  0
VERTEX
  8
0
 10
585.634887
 20
1.065308
 42
0.002280
  0
VERTEX
  8
0
 10
621.031551
 20
1.306247
 42
0.003643
  0
VERTEX
  8
0
 10
645.001820
 20
1.753385
 42
0.009789
  0
VERTEX
  8
0
 10
662.038255
 20
2.529317
 42
0.001294
  0
VERTEX
  8
0
 10
671.138238
 20
3.146134
 42
0.001962
  0
VERTEX
  8
0
 10
679.048737
 20
3.734086
 42
0.000724
  0
VERTEX
  8
0
 10
685.855772
 20
4.276797
 42
0.048730
  0
VERTEX
  8
0
 10
687.000000
 20
4.483110
 42
-0.036203
  0
VERTEX
  8
0
 10
688.023224
 20
4.694151
 42
-0.002174
  0
VERTEX
  8
0
 10
691.143750
 20
5.091573
 42
-0.003251
  0
VERTEX
  8
0
 10
694.868757
 20
5.524963
 42
-0.002395
  0
VERTEX
  8
0
 10
699.000000
 20
5.958401
 42
0.011161
  0
VERTEX
  8
0
 10
715.532709
 20
7.986562
 42
0.004840
  0
VERTEX
  8
0
 10
737.427184
 20
11.386707
 42
0.004799
  0
VERTEX
  8
0
 10
759.049973
 20
15.172895
 42
0.012507
  0
VERTEX
  8
0
 10
774.500000
 20
18.432951
 42
0.004705
  0
VERTEX
  8
0
 10
797.371949
 20
24.087830
 42
0.008857
  0
VERTEX
  8
0
 10
815.708510
 20
29.152852
 42
0.009747
  0
VERTEX
  8
0
 10
832.636267
 20
34.513975
 42
0.007364
  0
VERTEX
  8
0
 10
851.014791
 20
41.034439
 42
0.016654
  0
VERTEX
  8
0
 10
880.820185
 20
53.250072
 42
0.019246
  0
VERTEX
  8
0
 10
908.311695
 20
66.896644
 42
0.019666
  0
VERTEX
  8
0
 10
934.145173
 20
82.331871
 42
0.019034
  0
VERTEX
  8
0
 10
958.977201
 20
99.908720
 42
0.025655
  0
VERTEX
  8
0
 10
969.107385
 20
108.533868
 42
0.007209
  0
VERTEX
  8
0
 10
984.008392
 20
123.012996
 42
0.007085
  0
VERTEX
  8
0
 10
998.437370
 20
137.858518
 42
0.027890
  0
VERTEX
  8
0
 10
1006.664090
 20
147.601187
 42
0.025174
  0
VERTEX
  8
0
 10
1020.264286
 20
167.689685
 42
0.024721
  0
VERTEX
  8
0
 10
1031.866121
 20
189.162696
 42
0.025689
  0
VERTEX
  8
0
 10
1040.836144
 20
210.704388
 42
0.034875
  0
VERTEX
  8
0
 10
1046.524095
 20
230.981807
 42
0.017877
  0
VERTEX
  8
0
 10
1050.067643
 20
251.874585
 42
0.013975
  0
VERTEX
  8
0
 10
1052.463454
 20
274.759288
 42
0.014213
  0
VERTEX
  8
0
 10
1053.533989
 20
297.073514
 42
0.022651
  0
VERTEX
  8
0
 10
1053.041686
 20
316.166037
 42
0.018947
  0
VERTEX
  8
0
 10
1049.936644
 20
344.549701
 42
0.025532
  0
VERTEX
  8
0
 10
1044.856556
 20
369.883264
 42
0.026935
  0
VERTEX
  8
0
 10
1037.494053
 20
393.449241
 42
0.025605
  0
VERTEX
  8
0
 10
1027.533820
 20
416.500000
 42
0.042874
  0
VERTEX
  8
0
 10
1007.851451
 20
448.983299
 42
0.048568
  0
VERTEX
  8
0
 10
983.629395
 20
476.185110
 42
0.040551
  0
VERTEX
  8
0
 10
951.028954
 20
501.757147
 42
0.019018
  0
VERTEX
  8
0
 10
905.189805
 20
529.614171
 42
0.000871
  0
VERTEX
  8
0
 10
882.561537
 20
542.161711
 42
0.003483
  0
VERTEX
  8
0
 10
868.636011
 20
549.725728
 42
0.002426
  0
VERTEX
  8
0
 10
852.512528
 20
558.238405
 42
0.000268
  0
VERTEX
  8
0
 10
815.500000
 20
577.525502
 42
-0.001314
  0
VERTEX
  8
0
 10
788.892086
 20
591.461656
 42
-0.004681
  0
VERTEX
  8
0
 10
771.962851
 20
600.588823
 42
-0.004972
  0
VERTEX
  8
0
 10
760.517498
 20
607.047656
 42
-0.057371
  0
VERTEX
  8
0
 10
756.381076
 20
610.116678
 42
-0.084398
  0
VERTEX
  8
0
 10
752.230042
 20
615.583287
 42
-0.049878
  0
VERTEX
  8
0
 10
749.172354
 20
623.208075
 42
-0.048934
  0
VERTEX
  8
0
 10
747.626766
 20
631.516602
 42
-0.068158
  0
VERTEX
  8
0
 10
748.004143
 20
639.061612
 42
-0.046558
  0
VERTEX
  8
0
 10
749.871293
 20
645.576146
 42
-0.045260
  0
VERTEX
  8
0
 10
752.924705
 20
651.698431
 42
-0.031910
  0
VERTEX
  8
0
 10
757.933525
 20
658.760762
 42
-0.010196
  0
VERTEX
  8
0
 10
766.243152
 20
668.604609
 42
0.025373
  0
VERTEX
  8
0
 10
796.228223
 20
706.394869
 42
0.042995
  0
VERTEX
  8
0
 10
816.775859
 20
741.139248
 42
0.046760
  0
VERTEX
  8
0
 10
829.949399
 20
776.710786
 42
0.037529
  0
VERTEX
  8
0
 10
837.510136
 20
816.845378
 42
0.015373
  0
VERTEX
  8
0
 10
838.523417
 20
829.415647
 42
0.010335
  0
VERTEX
  8
0
 10
838.941527
 20
843.817420
 42
0.010392
  0
VERTEX
  8
0
 10
838.764908
 20
858.028285
 42
0.017264
  0
VERTEX
  8
0
 10
837.954091
 20
869.980212
 42
-0.007890
  0
VERTEX
  8
0
 10
837.478801
 20
875.462298
 42
-0.024193
  0
VERTEX
  8
0
 10
837.395584
 20
879.188834
 42
-0.032813
  0
VERTEX
  8
0
 10
837.674869
 20
882.227515
 42
-0.028952
  0
VERTEX
  8
0
 10
838.354192
 20
885.336166
 42
0.021782
  0
VERTEX
  8
0
 10
839.766425
 20
891.381907
 42
0.006954
  0
VERTEX
  8
0
 10
841.347586
 20
900.483225
 42
0.005878
  0
VERTEX
  8
0
 10
843.063532
 20
912.124583
 42
0.003163
  0
VERTEX
  8
0
 10
844.919411
 20
926.514340
 42
-0.002604
  0
VERTEX
  8
0
 10
845.719926
 20
932.776431
 42
-0.003694
  0
VERTEX
  8
0
 10
846.502044
 20
938.336853
 42
-0.002110
  0
VERTEX
  8
0
 10
847.215901
 20
943.017349
 42
-0.052758
  0
VERTEX
  8
0
 10
847.551255
 20
944.272971
 42
-0.145618
  0
VERTEX
  8
0
 10
848.523058
 20
945.536539
 42
-0.092026
  0
VERTEX
  8
0
 10
850.216048
 20
946.338636
 42
-0.042832
  0
VERTEX
  8
0
 10
853.181206
 20
946.857712
 42
-0.007357
  0
VERTEX
  8
0
 10
858.884378
 20
947.274655
 42
0.014404
  0
VERTEX
  8
0
 10
861.945692
 20
947.541884
 42
0.038399
  0
VERTEX
  8
0
 10
864.096138
 20
947.961343
 42
0.055902
  0
VERTEX
  8
0
 10
865.589322
 20
948.559623
 42
0.112129
  0
VERTEX
  8
0
 10
866.542622
 20
949.389176
 42
0.135850
  0
VERTEX
  8
0
 10
867.809271
 20
952.740833
 42
0.009151
  0
VERTEX
  8
0
 10
868.562155
 20
963.039160
 42
0.012419
  0
VERTEX
  8
0
 10
868.939147
 20
975.669676
 42
0.008417
  0
VERTEX
  8
0
 10
868.768829
 20
990.065364
 42
0.005950
  0
VERTEX
  8
0
 10
868.299513
 20
1001.628773
 42
0.036805
  0
VERTEX
  8
0
 10
867.552408
 20
1007.524770
 42
0.083631
  0
VERTEX
  8
0
 10
866.300996
 20
1010.785056
 42
0.187879
  0
VERTEX
  8
0
 10
864.251061
 20
1012.395820
 42
0.031903
  0
VERTEX
  8
0
 10
863.028733
 20
1012.683035
 42
0.001541
  0
VERTEX
  8
0
 10
858.901874
 20
1013.365635
 42
0.002508
  0
VERTEX
  8
0
 10
853.990540
 20
1014.137191
 42
0.001804
  0
VERTEX
  8
0
 10
848.500000
 20
1014.951281
 42
-0.000183
  0
VERTEX
  8
0
 10
841.957469
 20
1015.899674
 42
-0.000094
  0
VERTEX
  8
0
 10
833.765625
 20
1017.091777
 42
-0.000093
  0
VERTEX
  8
0
 10
825.336939
 20
1018.321574
 42
-0.000141
  0
VERTEX
  8
0
 10
818.000000
 20
1019.395595
 42
0.001468
  0
VERTEX
  8
0
 10
811.194712
 20
1020.373359
 42
0.001473
  0
VERTEX
  8
0
 10
804.391346
 20
1021.310048
 42
0.001437
  0
VERTEX
  8
0
 10
798.452188
 20
1022.092565
 42
0.005889
  0
VERTEX
  8
0
 10
794.842881
 20
1022.514409
 42
0.000000
  0
VERTEX
  8
0
 10
788.185762
 20
1023.213101
 42
0.000000
  0
VERTEX
  8
0
 10
783.957788
 20
1029.856550
 42
0.026386
  0
VERTEX
  8
0
 10
763.400798
 20
1058.680524
 42
0.025365
  0
VERTEX
  8
0
 10
739.665427
 20
1085.579325
 42
0.025490
  0
VERTEX
  8
0
 10
713.455637
 20
1109.806290
 42
0.027341
  0
VERTEX
  8
0
 10
685.500000
 20
1130.640833
 42
0.027652
  0
VERTEX
  8
0
 10
655.283942
 20
1148.365640
 42
0.029411
  0
VERTEX
  8
0
 10
623.900140
 20
1162.246044
 42
0.029600
  0
VERTEX
  8
0
 10
591.296513
 20
1172.275350
 42
0.028796
  0
VERTEX
  8
0
 10
557.436327
 20
1178.495195
 42
0.022097
  0
VERTEX
  8
0
 10
544.631367
 20
1179.520538
 42
0.008829
  0
VERTEX
  8
0
 10
527.032914
 20
1179.838405
 42
0.008790
  0
VERTEX
  8
0
 10
509.502867
 20
1179.537291
 42
0.023236
  0
SEQEND
  0
ENDSEC
  0
EOF
