  0
SECTION
  2
HEADER
  9
$ACADVER
  1
AC1006
  9
$EXTMIN
 10
0.000000
 20
0.000000
 30
0.000000
  9
$EXTMAX
 10
1055.000000
 20
1181.000000
 30
0.000000
  0
ENDSEC
  0
SECTION
  2
ENTITIES
  0
POLYLINE
  8
0
 66
1
 70
1
  0
VERTEX
  8
0
 10
518.000000
 20
1180.744085
 42
-0.162617
  0
VERTEX
  8
0
 10
517.561662
 20
1180.524197
 42
-0.003500
  0
VERTEX
  8
0
 10
515.150000
 20
1180.195285
 42
-0.007670
  0
VERTEX
  8
0
 10
512.293685
 20
1179.870537
 42
-0.005054
  0
VERTEX
  8
0
 10
509.000000
 20
1179.580736
 42
0.022956
  0
VERTEX
  8
0
 10
479.581325
 20
1175.927266
 42
0.027488
  0
VERTEX
  8
0
 10
452.370175
 20
1169.715815
 42
0.027209
  0
VERTEX
  8
0
 10
425.774547
 20
1160.493338
 42
0.021709
  0
VERTEX
  8
0
 10
398.199512
 20
1147.793183
 42
0.014941
  0
VERTEX
  8
0
 10
385.869941
 20
1140.978920
 42
0.009017
  0
VERTEX
  8
0
 10
371.660073
 20
1132.211766
 42
0.008996
  0
VERTEX
  8
0
 10
358.218529
 20
1123.234596
 42
0.020556
  0
VERTEX
  8
0
 10
348.500000
 20
1115.878220
 42
0.016106
  0
VERTEX
  8
0
 10
325.700586
 20
1095.831280
 42
0.019673
  0
VERTEX
  8
0
 10
305.770655
 20
1075.604220
 42
0.020495
  0
VERTEX
  8
0
 10
288.193021
 20
1054.636502
 42
0.020711
  0
VERTEX
  8
0
 10
272.455996
 20
1032.371244
 42
-0.005017
  0
VERTEX
  8
0
 10
270.367557
 20
1029.210505
 42
-0.007096
  0
VERTEX
  8
0
 10
268.440438
 20
1026.442132
 42
-0.004341
  0
VERTEX
  8
0
 10
266.772682
 20
1024.159513
 42
-0.094669
  0
VERTEX
  8
0
 10
266.164847
 20
1023.601881
 42
-0.083717
  0
VERTEX
  8
0
 10
265.434149
 20
1023.304484
 42
-0.006001
  0
VERTEX
  8
0
 10
263.284266
 20
1022.851905
 42
-0.008298
  0
VERTEX
  8
0
 10
260.691231
 20
1022.383033
 42
-0.006170
  0
VERTEX
  8
0
 10
257.814161
 20
1021.948348
 42
0.000324
  0
VERTEX
  8
0
 10
245.917873
 20
1020.293007
 42
0.000506
  0
VERTEX
  8
0
 10
235.682321
 20
1018.851441
 42
0.000546
  0
VERTEX
  8
0
 10
226.045959
 20
1017.473591
 42
0.000481
  0
VERTEX
  8
0
 10
216.000000
 20
1016.016123
 42
-0.000246
  0
VERTEX
  8
0
 10
210.139995
 20
1015.163144
 42
-0.000280
  0
VERTEX
  8
0
 10
204.523136
 20
1014.351596
 42
-0.000254
  0
VERTEX
  8
0
 10
199.750675
 20
1013.667252
 42
-0.001562
  0
VERTEX
  8
0
 10
197.291528
 20
1013.323735
 42
0.093727
  0
VERTEX
  8
0
 10
192.798871
 20
1011.822067
 42
0.194410
  0
VERTEX
  8
0
 10
190.520589
 20
1008.989010
 42
0.064983
  0
VERTEX
  8
0
 10
189.558857
 20
1003.158282
 42
0.004418
  0
VERTEX
  8
0
 10
189.140596
 20
986.330243
 42
0.004577
  0
VERTEX
  8
0
 10
189.031518
 20
970.425823
 42
0.014912
  0
VERTEX
  8
0
 10
189.369799
 20
959.896958
 42
0.018963
  0
VERTEX
  8
0
 10
190.086297
 20
952.745779
 42
0.124028
  0
VERTEX
  8
0
 10
191.429231
 20
949.427669
 42
0.111755
  0
VERTEX
  8
0
 10
192.412027
 20
948.571172
 42
0.060869
  0
VERTEX
  8
0
 10
193.910138
 20
947.985512
 42
0.039304
  0
VERTEX
  8
0
 10
196.122592
 20
947.600010
 42
0.012687
  0
VERTEX
  8
0
 10
199.444357
 20
947.371874
 42
-0.017406
  0
VERTEX
  8
0
 10
206.763532
 20
946.799767
 42
-0.176678
  0
VERTEX
  8
0
 10
209.449461
 20
945.460449
 42
-0.151057
  0
VERTEX
  8
0
 10
210.854025
 20
942.615806
 42
-0.011747
  0
VERTEX
  8
0
 10
212.012083
 20
934.108899
 42
0.003561
  0
VERTEX
  8
0
 10
213.007077
 20
925.782012
 42
0.002069
  0
VERTEX
  8
0
 10
214.314212
 20
915.798392
 42
0.002045
  0
VERTEX
  8
0
 10
215.742575
 20
905.544977
 42
0.002818
  0
VERTEX
  8
0
 10
217.115010
 20
896.348497
 42
-0.017128
  0
VERTEX
  8
0
 10
217.673365
 20
891.699358
 42
-0.019383
  0
VERTEX
  8
0
 10
217.882277
 20
887.211124
 42
-0.016096
  0
VERTEX
  8
0
 10
217.756880
 20
882.080702
 42
-0.007209
  0
VERTEX
  8
0
 10
217.277800
 20
875.348497
 42
0.015274
  0
VERTEX
  8
0
 10
216.539388
 20
861.915186
 42
0.006014
  0
VERTEX
  8
0
 10
216.310737
 20
843.386704
 42
0.005402
  0
VERTEX
  8
0
 10
216.499869
 20
825.361275
 42
0.026910
  0
VERTEX
  8
0
 10
217.259021
 20
815.272348
 42
0.023697
  0
VERTEX
  8
0
 10
222.647414
 20
785.025270
 42
0.031703
  0
VERTEX
  8
0
 10
230.537683
 20
758.298480
 42
0.032599
  0
VERTEX
  8
0
 10
241.536993
 20
733.375664
 42
0.027468
  0
VERTEX
  8
0
 10
256.263516
 20
708.568015
 42
0.014973
  0
VERTEX
  8
0
 10
265.127275
 20
696.167563
 42
0.009842
  0
VERTEX
  8
0
 10
276.026850
 20
682.415899
 42
0.009605
  0
VERTEX
  8
0
 10
287.881007
 20
668.599485
 42
0.011245
  0
VERTEX
  8
0
 10
299.664145
 20
655.971583
 42
-0.012400
  0
VERTEX
  8
0
 10
302.776498
 20
652.620618
 42
-0.018645
  0
VERTEX
  8
0
 10
305.304149
 20
649.535571
 42
-0.020733
  0
VERTEX
  8
0
 10
307.150113
 20
646.881237
 42
-0.071850
  0
VERTEX
  8
0
 10
308.006257
 20
644.978185
 42
-0.072007
  0
VERTEX
  8
0
 10
308.971429
 20
637.900522
 42
-0.052250
  0
VERTEX
  8
0
 10
308.076340
 20
629.987687
 42
-0.047948
  0
VERTEX
  8
0
 10
305.409617
 20
621.744181
 42
-0.040926
  0
VERTEX
  8
0
 10
301.105309
 20
613.684109
 42
-0.091679
  0
VERTEX
  8
0
 10
297.927688
 20
610.308209
 42
-0.015371
  0
VERTEX
  8
0
 10
290.571630
 20
605.253417
 42
-0.015067
  0
VERTEX
  8
0
 10
280.845253
 20
599.407454
 42
-0.009103
  0
VERTEX
  8
0
 10
269.000000
 20
593.045923
 42
0.000994
  0
VERTEX
  8
0
 10
265.940120
 20
591.465993
 42
0.000491
  0
VERTEX
  8
0
 10
262.059375
 20
589.447596
 42
0.000487
  0
VERTEX
  8
0
 10
258.036981
 20
587.345515
 42
0.000713
  0
VERTEX
  8
0
 10
254.500000
 20
585.486287
 42
-0.001157
  0
VERTEX
  8
0
 10
250.305596
 20
583.286232
 42
-0.000340
  0
VERTEX
  8
0
 10
243.856250
 20
579.927980
 42
-0.000341
  0
VERTEX
  8
0
 10
236.595277
 20
576.159659
 42
-0.000366
  0
VERTEX
  8
0
 10
229.500000
 20
572.490062
 42
0.002180
  0
VERTEX
  8
0
 10
198.106184
 20
556.108962
 42
0.003417
  0
VERTEX
  8
0
 10
171.271496
 20
541.722383
 42
0.003952
  0
VERTEX
  8
0
 10
148.185618
 20
528.904041
 42
0.005939
  0
VERTEX
  8
0
 10
128.272544
 20
517.326202
 42
0.008522
  0
VERTEX
  8
0
 10
108.241922
 20
504.891348
 42
0.015734
  0
VERTEX
  8
0
 10
92.469753
 20
494.006338
 42
0.018356
  0
VERTEX
  8
0
 10
79.200683
 20
483.445125
 42
0.019112
  0
VERTEX
  8
0
 10
66.925705
 20
472.074295
 42
0.022858
  0
VERTEX
  8
0
 10
52.853231
 20
456.652760
 42
0.026505
  0
VERTEX
  8
0
 10
40.971645
 20
440.727307
 42
0.025470
  0
VERTEX
  8
0
 10
30.470533
 20
423.091345
 42
0.018472
  0
VERTEX
  8
0
 10
20.544358
 20
402.500000
 42
0.026365
  0
VERTEX
  8
0
 10
14.627695
 20
386.758738
 42
0.019238
  0
VERTEX
  8
0
 10
9.672344
 20
368.737786
 42
0.016841
  0
VERTEX
  8
0
 10
5.542218
 20
347.957516
 42
0.011089
  0
VERTEX
  8
0
 10
2.132373
 20
323.820084
 42
0.027041
  0
VERTEX
  8
0
 10
1.504514
 20
314.037369
 42
0.005784
  0
VERTEX
  8
0
 10
1.530822
 20
297.009135
 42
0.006335
  0
VERTEX
  8
0
 10
1.981000
 20
279.553039
 42
0.016422
  0
VERTEX
  8
0
 10
2.877480
 20
267.000000
 42
0.019405
  0
VERTEX
  8
0
 10
7.001352
 20
238.346131
 42
0.029771
  0
VERTEX
  8
0
 10
12.991166
 20
214.003243
 42
0.031998
  0
VERTEX
  8
0
 10
21.438415
 20
191.881468
 42
0.028088
  0
VERTEX
  8
0
 10
32.967805
 20
169.998041
 42
0.017021
  0
VERTEX
  8
0
 10
42.241833
 20
155.690448
 42
0.019945
  0
VERTEX
  8
0
 10
52.015805
 20
142.807360
 42
0.018892
  0
VERTEX
  8
0
 10
63.235779
 20
130.186086
 42
0.012806
  0
VERTEX
  8
0
 10
76.904174
 20
116.645099
 42
0.023341
  0
VERTEX
  8
0
 10
99.515111
 20
97.271961
 42
0.023024
  0
VERTEX
  8
0
 10
123.933947
 20
79.996513
 42
0.022278
  0
VERTEX
  8
0
 10
150.613233
 20
64.538675
 42
0.018996
  0
VERTEX
  8
0
 10
180.000000
 20
50.610637
 42
-0.000079
  0
VERTEX
  8
0
 10
185.388930
 20
48.301886
 42
-0.000097
  0
VERTEX
  8
0
 10
190.415625
 20
46.146225
 42
-0.000080
  0
VERTEX
  8
0
 10
194.639432
 20
44.333100
 42
-0.000712
  0
VERTEX
  8
0
 10
196.500000
 20
43.530930
 42
0.016918
  0
VERTEX
  8
0
 10
203.779790
 20
40.668325
 42
0.002993
  0
VERTEX
  8
0
 10
217.632894
 20
35.848357
 42
0.003267
  0
VERTEX
  8
0
 10
231.648860
 20
31.167624
 42
0.012381
  0
VERTEX
  8
0
 10
240.500000
 20
28.516530
 42
0.002173
  0
VERTEX
  8
0
 10
261.889251
 20
22.782780
 42
0.007800
  0
VERTEX
  8
0
 10
275.615528
 20
19.395163
 42
0.007943
  0
VERTEX
  8
0
 10
289.317983
 20
16.467747
 42
0.002315
  0
VERTEX
  8
0
 10
310.500000
 20
12.394865
 42
0.005071
  0
VERTEX
  8
0
 10
317.318432
 20
11.187974
 42
0.002122
  0
VERTEX
  8
0
 10
326.527638
 20
9.694184
 42
0.002047
  0
VERTEX
  8
0
 10
335.560601
 20
8.306171
 42
0.006847
  0
VERTEX
  8
0
 10
341.500000
 20
7.501378
 42
-0.000733
  0
VERTEX
  8
0
 10
343.219873
 20
7.289715
 42
-0.000133
  0
VERTEX
  8
0
 10
346.409375
 20
6.891573
 42
-0.000143
  0
VERTEX
  8
0
 10
350.142920
 20
6.423421
 42
-0.000130
  0
VERTEX
  8
0
 10
354.000000
 20
5.937637
 42
0.001074
  0
VERTEX
  8
0
 10
357.857082
 20
5.459251
 42
0.001187
  0
VERTEX
  8
0
 10
361.590625
 20
5.013323
 42
0.001101
  0
VERTEX
  8
0
 10
364.780647
 20
4.647107
 42
0.006089
  0
VERTEX
  8
0
 10
366.500000
 20
4.474736
 42
0.005016
  0
VERTEX
  8
0
 10
383.839943
 20
3.124555
 42
0.006710
  0
VERTEX
  8
0
 10
399.596852
 20
2.268811
 42
0.005085
  0
VERTEX
  8
0
 10
418.369218
 20
1.692976
 42
0.001594
  0
VERTEX
  8
0
 10
446.500000
 20
1.206060
 42
0.001350
  0
VERTEX
  8
0
 10
490.810427
 20
0.700040
 42
0.002218
  0
VERTEX
  8
0
 10
528.314932
 20
0.539397
 42
0.002230
  0
VERTEX
  8
0
 10
565.670229
 20
0.711688
 42
0.001386
  0
VERTEX
  8
0
 10
609.500000
 20
1.230832
 42
0.002008
  0
VERTEX
  8
0
 10
645.889628
 20
1.908910
 42
0.009394
  0
VERTEX
  8
0
 10
666.826137
 20
2.776895
 42
0.011333
  0
VERTEX
  8
0
 10
685.891757
 20
4.360789
 42
0.003859
  0
VERTEX
  8
0
 10
713.500000
 20
7.501378
 42
0.006850
  0
VERTEX
  8
0
 10
719.451877
 20
8.307894
 42
0.002060
  0
VERTEX
  8
0
 10
728.483457
 20
9.696034
 42
0.002133
  0
VERTEX
  8
0
 10
737.687899
 20
11.189861
 42
0.005104
  0
VERTEX
  8
0
 10
744.500000
 20
12.396859
 42
0.001190
  0
VERTEX
  8
0
 10
756.480444
 20
14.675497
 42
0.002093
  0
VERTEX
  8
0
 10
766.370925
 20
16.624009
 42
0.002464
  0
VERTEX
  8
0
 10
774.258033
 20
18.252649
 42
0.006941
  0
VERTEX
  8
0
 10
779.750000
 20
19.494848
 42
0.000003
  0
VERTEX
  8
0
 10
782.560519
 20
20.171709
 42
0.000002
  0
VERTEX
  8
0
 10
785.853125
 20
20.964711
 42
0.000002
  0
VERTEX
  8
0
 10
789.098270
 20
21.746311
 42
0.000004
  0
VERTEX
  8
0
 10
791.750000
 20
22.385020
 42
0.003683
  0
VERTEX
  8
0
 10
794.384506
 20
23.040169
 42
0.002073
  0
VERTEX
  8
0
 10
797.573438
 20
23.872286
 42
0.002068
  0
VERTEX
  8
0
 10
800.785711
 20
24.738969
 42
0.003383
  0
VERTEX
  8
0
 10
803.500000
 20
25.503131
 42
-0.000993
  0
VERTEX
  8
0
 10
806.265626
 20
26.296029
 42
-0.000549
  0
VERTEX
  8
0
 10
809.646875
 20
27.254146
 42
-0.000547
  0
VERTEX
  8
0
 10
813.075711
 20
28.217628
 42
-0.000881
  0
VERTEX
  8
0
 10
816.000000
 20
29.030327
 42
0.011849
  0
VERTEX
  8
0
 10
825.309063
 20
31.838787
 42
0.003350
  0
VERTEX
  8
0
 10
839.669002
 20
36.651828
 42
0.002446
  0
VERTEX
  8
0
 10
853.950157
 20
41.623334
 42
0.027414
  0
VERTEX
  8
0
 10
859.500000
 20
43.935192
 42
-0.010158
  0
VERTEX
  8
0
 10
860.773323
 20
44.517933
 42
-0.001014
  0
VERTEX
  8
0
 10
863.850000
 20
45.843671
 42
-0.001275
  0
VERTEX
  8
0
 10
867.524340
 20
47.407032
 42
-0.001013
  0
VERTEX
  8
0
 10
871.500000
 20
49.077149
 42
0.020425
  0
VERTEX
  8
0
 10
901.482152
 20
63.064842
 42
0.021894
  0
VERTEX
  8
0
 10
929.516799
 20
79.158989
 42
0.022595
  0
VERTEX
  8
0
 10
955.181836
 20
97.100878
 42
0.025486
  0
VERTEX
  8
0
 10
978.066748
 20
116.622428
 42
0.004649
  0
VERTEX
  8
0
 10
987.344213
 20
125.555880
 42
0.012336
  0
VERTEX
  8
0
 10
993.753537
 20
132.161493
 42
0.013768
  0
VERTEX
  8
0
 10
999.420341
 20
138.647214
 42
0.007181
  0
VERTEX
  8
0
 10
1006.139197
 20
147.020391
 42
0.025476
  0
VERTEX
  8
0
 10
1020.577948
 20
167.638793
 42
0.029399
  0
VERTEX
  8
0
 10
1032.106468
 20
188.681765
 42
0.030210
  0
VERTEX
  8
0
 10
1040.831700
 20
210.399920
 42
0.030106
  0
VERTEX
  8
0
 10
1046.887725
 20
233.036046
 42
0.012755
  0
VERTEX
  8
0
 10
1049.782289
 20
249.339563
 42
0.014196
  0
VERTEX
  8
0
 10
1051.723756
 20
265.198891
 42
0.013615
  0
VERTEX
  8
0
 10
1052.818415
 20
281.711786
 42
0.010094
  0
VERTEX
  8
0
 10
1053.161887
 20
300.000000
 42
0.015608
  0
VERTEX
  8
0
 10
1052.343237
 20
325.085239
 42
0.023281
  0
VERTEX
  8
0
 10
1049.925499
 20
346.897612
 42
0.023983
  0
VERTEX
  8
0
 10
1045.560506
 20
367.901268
 42
0.018090
  0
VERTEX
  8
0
 10
1038.840455
 20
390.500000
 42
0.022572
  0
VERTEX
  8
0
 10
1032.749260
 20
406.188306
 42
0.018813
  0
VERTEX
  8
0
 10
1024.919675
 20
422.269059
 42
0.018631
  0
VERTEX
  8
0
 10
1015.806493
 20
437.894798
 42
0.020790
  0
VERTEX
  8
0
 10
1005.861794
 20
452.220324
 42
0.023453
  0
VERTEX
  8
0
 10
998.481971
 20
461.066183
 42
0.010658
  0
VERTEX
  8
0
 10
988.058769
 20
471.956131
 42
0.010642
  0
VERTEX
  8
0
 10
977.213780
 20
482.361161
 42
0.024244
  0
VERTEX
  8
0
 10
968.500000
 20
489.625575
 42
0.014236
  0
VERTEX
  8
0
 10
954.879136
 20
499.308327
 42
0.006856
  0
VERTEX
  8
0
 10
936.912033
 20
510.972432
 42
0.006789
  0
VERTEX
  8
0
 10
917.819428
 20
522.639308
 42
0.009623
  0
VERTEX
  8
0
 10
900.500000
 20
532.456984
 42
-0.001949
  0
VERTEX
  8
0
 10
897.745913
 20
533.962792
 42
-0.002616
  0
VERTEX
  8
0
 10
895.262500
 20
535.350206
 42
-0.001803
  0
VERTEX
  8
0
 10
893.190496
 20
536.531925
 42
-0.027585
  0
VERTEX
  8
0
 10
892.500000
 20
536.981438
 42
0.031631
  0
VERTEX
  8
0
 10
891.764615
 20
537.451751
 42
0.001153
  0
VERTEX
  8
0
 10
888.856250
 20
539.053631
 42
0.002105
  0
VERTEX
  8
0
 10
885.403897
 20
540.925913
 42
0.001475
  0
VERTEX
  8
0
 10
881.500000
 20
543.007038
 42
-0.000056
  0
VERTEX
  8
0
 10
869.078827
 20
549.583414
 42
-0.000193
  0
VERTEX
  8
0
 10
861.045431
 20
553.841815
 42
-0.000290
  0
VERTEX
  8
0
 10
855.005358
 20
557.051062
 42
-0.000382
  0
VERTEX
  8
0
 10
849.500000
 20
559.985690
 42
0.001879
  0
VERTEX
  8
0
 10
845.770115
 20
561.959582
 42
0.000510
  0
VERTEX
  8
0
 10
839.856250
 20
565.053173
 42
0.000516
  0
VERTEX
  8
0
 10
833.139058
 20
568.549444
 42
0.000537
  0
VERTEX
  8
0
 10
826.500000
 20
571.987297
 42
-0.000322
  0
VERTEX
  8
0
 10
803.262546
 20
584.007512
 42
-0.001520
  0
VERTEX
  8
0
 10
789.960450
 20
590.950602
 42
-0.002562
  0
VERTEX
  8
0
 10
780.448370
 20
596.014694
 42
-0.003085
  0
VERTEX
  8
0
 10
771.562874
 20
600.874771
 42
-0.013992
  0
VERTEX
  8
0
 10
762.219210
 20
606.408091
 42
-0.046346
  0
VERTEX
  8
0
 10
756.557436
 20
610.759487
 42
-0.064679
  0
VERTEX
  8
0
 10
752.851547
 20
615.215763
 42
-0.051714
  0
VERTEX
  8
0
 10
750.069787
 20
620.813391
 42
-0.019678
  0
VERTEX
  8
0
 10
748.882112
 20
624.415143
 42
-0.037631
  0
VERTEX
  8
0
 10
748.265644
 20
627.395843
 42
-0.033418
  0
VERTEX
  8
0
 10
748.063372
 20
630.659006
 42
-0.012414
  0
VERTEX
  8
0
 10
748.200146
 20
635.258152
 42
-0.044783
  0
VERTEX
  8
0
 10
749.335320
 20
643.083254
 42
-0.062916
  0
VERTEX
  8
0
 10
751.813393
 20
649.682113
 42
-0.046457
  0
VERTEX
  8
0
 10
756.446882
 20
656.789191
 42
-0.013960
  0
VERTEX
  8
0
 10
764.758797
 20
666.687301
 42
0.007790
  0
VERTEX
  8
0
 10
777.329660
 20
681.287504
 42
0.010895
  0
VERTEX
  8
0
 10
788.069819
 20
694.747462
 42
0.012158
  0
VERTEX
  8
0
 10
797.145105
 20
707.263329
 42
0.016563
  0
VERTEX
  8
0
 10
804.666904
 20
719.000000
 42
0.023814
  0
VERTEX
  8
0
 10
818.566733
 20
745.110022
 42
0.033429
  0
VERTEX
  8
0
 10
828.228931
 20
769.674987
 42
0.033705
  0
VERTEX
  8
0
 10
834.477321
 20
795.149907
 42
0.024804
  0
VERTEX
  8
0
 10
838.059839
 20
824.000000
 42
0.014872
  0
VERTEX
  8
0
 10
838.627124
 20
836.824606
 42
0.006635
  0
VERTEX
  8
0
 10
838.647316
 20
853.730077
 42
0.004533
  0
VERTEX
  8
0
 10
838.300156
 20
870.149191
 42
0.053977
  0
VERTEX
  8
0
 10
837.426630
 20
876.436307
 42
-0.071009
  0
VERTEX
  8
0
 10
837.292212
 20
877.722570
 42
-0.017965
  0
VERTEX
  8
0
 10
837.447144
 20
879.824388
 42
-0.017960
  0
VERTEX
  8
0
 10
837.800527
 20
882.237279
 42
-0.017279
  0
VERTEX
  8
0
 10
838.329719
 20
884.650255
 42
0.015597
  0
VERTEX
  8
0
 10
839.887121
 20
891.639239
 42
0.007000
  0
VERTEX
  8
0
 10
841.516804
 20
900.907059
 42
0.005882
  0
VERTEX
  8
0
 10
843.219148
 20
912.301797
 42
0.003432
  0
VERTEX
  8
0
 10
845.005457
 20
926.000000
 42
-0.001830
  0
VERTEX
  8
0
 10
845.825376
 20
932.448526
 42
-0.002612
  0
VERTEX
  8
0
 10
846.604084
 20
938.166505
 42
-0.001437
  0
VERTEX
  8
0
 10
847.301254
 20
942.993147
 42
-0.039091
  0
VERTEX
  8
0
 10
847.587680
 20
944.247676
 42
-0.155889
  0
VERTEX
  8
0
 10
848.459611
 20
945.490188
 42
-0.095478
  0
VERTEX
  8
0
 10
850.078240
 20
946.290580
 42
-0.041971
  0
VERTEX
  8
0
 10
853.009696
 20
946.839038
 42
-0.006593
  0
VERTEX
  8
0
 10
858.865660
 20
947.354972
 42
0.012880
  0
VERTEX
  8
0
 10
861.373903
 20
947.607777
 42
0.016945
  0
VERTEX
  8
0
 10
863.644430
 20
947.974416
 42
0.014465
  0
VERTEX
  8
0
 10
865.490625
 20
948.392908
 42
0.134186
  0
VERTEX
  8
0
 10
866.194802
 20
948.794802
 42
0.155974
  0
VERTEX
  8
0
 10
867.621954
 20
951.563462
 42
0.023166
  0
VERTEX
  8
0
 10
868.384439
 20
957.878099
 42
0.016709
  0
VERTEX
  8
0
 10
868.777933
 20
967.605960
 42
0.004256
  0
VERTEX
  8
0
 10
868.754268
 20
983.392295
 42
0.003558
  0
VERTEX
  8
0
 10
868.427373
 20
1002.478479
 42
0.059528
  0
VERTEX
  8
0
 10
867.525952
 20
1008.732144
 42
0.194169
  0
VERTEX
  8
0
 10
865.255512
 20
1011.745957
 42
0.098198
  0
VERTEX
  8
0
 10
860.709221
 20
1013.384000
 42
0.001331
  0
VERTEX
  8
0
 10
858.398844
 20
1013.727023
 42
0.000307
  0
VERTEX
  8
0
 10
854.505209
 20
1014.292084
 42
0.000317
  0
VERTEX
  8
0
 10
850.020053
 20
1014.937267
 42
0.000310
  0
VERTEX
  8
0
 10
845.500000
 20
1015.581681
 42
-0.000240
  0
VERTEX
  8
0
 10
841.141190
 20
1016.202482
 42
-0.000311
  0
VERTEX
  8
0
 10
837.143750
 20
1016.776310
 42
-0.000233
  0
VERTEX
  8
0
 10
833.793282
 20
1017.260987
 42
-0.002790
  0
VERTEX
  8
0
 10
832.500000
 20
1017.456064
 42
0.003947
  0
VERTEX
  8
0
 10
827.910712
 20
1018.137453
 42
0.000355
  0
VERTEX
  8
0
 10
816.399376
 20
1019.745485
 42
0.000494
  0
VERTEX
  8
0
 10
804.802752
 20
1021.345358
 42
0.001546
  0
VERTEX
  8
0
 10
797.000000
 20
1022.389402
 42
0.000000
  0
VERTEX
  8
0
 10
788.500000
 20
1023.500000
 42
0.000000
  0
VERTEX
  8
0
 10
784.150814
 20
1030.000000
 42
0.018986
  0
VERTEX
  8
0
 10
763.523023
 20
1058.431327
 42
0.023183
  0
VERTEX
  8
0
 10
742.056390
 20
1083.306381
 42
0.024163
  0
VERTEX
  8
0
 10
719.206260
 20
1105.205143
 42
0.024443
  0
VERTEX
  8
0
 10
694.434466
 20
1124.707970
 42
0.030741
  0
VERTEX
  8
0
 10
660.091709
 20
1146.077281
 42
0.033928
  0
VERTEX
  8
0
 10
624.475413
 20
1162.296152
 42
0.034295
  0
VERTEX
  8
0
 10
587.349102
 20
1173.412532
 42
0.032814
  0
VERTEX
  8
0
 10
548.500000
 20
1179.552798
 42
0.009306
  0
VERTEX
  8
0
 10
540.773228
 20
1180.114296
 42
0.003723
  0
VERTEX
  8
0
 10
530.176811
 20
1180.607223
 42
0.000550
  0
VERTEX
  8
0
 10
518.753258
 20
1181.040819
 42
0.209019
  0
SEQEND
  0
POLYLINE
  8
0
 66
1
 70
1
  0
VERTEX
  8
0
 10
566.585885
 20
1141.107094
 42
-0.044391
  0
VERTEX
  8
0
 10
612.932270
 20
1128.076555
 42
-0.044837
  0
VERTEX
  8
0
 10
656.087072
 20
1107.101626
 42
-0.043976
  0
VERTEX
  8
0
 10
695.541506
 20
1078.339298
 42
-0.039591
  0
VERTEX
  8
0
 10
730.888477
 20
1042.165237
 42
-0.001843
  0
VERTEX
  8
0
 10
738.674891
 20
1032.750326
 42
-0.062683
  0
VERTEX
  8
0
 10
740.217831
 20
1030.300842
 42
-0.509163
  0
VERTEX
  8
0
 10
739.679968
 20
1029.327852
 42
-0.065930
  0
VERTEX
  8
0
 10
736.873606
 20
1029.349629
 42
0.014641
  0
VERTEX
  8
0
 10
725.742210
 20
1030.580713
 42
0.008033
  0
VERTEX
  8
0
 10
712.053987
 20
1031.468986
 42
0.007098
  0
VERTEX
  8
0
 10
696.226830
 20
1032.015887
 42
0.005068
  0
VERTEX
  8
0
 10
678.500000
 20
1032.196865
 42
0.006777
  0
VERTEX
  8
0
 10
658.801759
 20
1031.931317
 42
0.016032
  0
VERTEX
  8
0
 10
644.153771
 20
1031.064680
 42
0.016163
  0
VERTEX
  8
0
 10
629.661897
 20
1029.266077
 42
0.006994
  0
VERTEX
  8
0
 10
610.500000
 20
1025.980943
 42
-0.000003
  0
VERTEX
  8
0
 10
605.739647
 20
1025.096139
 42
-0.000002
  0
VERTEX
  8
0
 10
600.528125
 20
1024.127537
 42
-0.000002
  0
VERTEX
  8
0
 10
595.644592
 20
1023.219944
 42
-0.000006
  0
VERTEX
  8
0
 10
592.000000
 20
1022.542666
 42
0.003445
  0
VERTEX
  8
0
 10
588.468867
 20
1021.861314
 42
0.001698
  0
VERTEX
  8
0
 10
583.989047
 20
1020.949018
 42
0.001685
  0
VERTEX
  8
0
 10
579.345073
 20
1019.970526
 42
0.002458
  0
VERTEX
  8
0
 10
575.260587
 20
1019.074512
 42
-0.023921
  0
VERTEX
  8
0
 10
568.692097
 20
1017.926470
 42
-0.020099
  0
VERTEX
  8
0
 10
561.650018
 20
1017.326402
 42
-0.009844
  0
VERTEX
  8
0
 10
551.048001
 20
1017.059956
 42
-0.001360
  0
VERTEX
  8
0
 10
529.000000
 20
1017.000000
 42
-0.001372
  0
VERTEX
  8
0
 10
507.033350
 20
1017.060275
 42
-0.009743
  0
VERTEX
  8
0
 10
496.383513
 20
1017.326290
 42
-0.019758
  0
VERTEX
  8
0
 10
489.305031
 20
1017.922059
 42
-0.023927
  0
VERTEX
  8
0
 10
482.739523
 20
1019.058020
 42
0.005297
  0
VERTEX
  8
0
 10
470.050615
 20
1021.743663
 42
0.003538
  0
VERTEX
  8
0
 10
455.470688
 20
1024.561361
 42
0.003460
  0
VERTEX
  8
0
 10
440.351944
 20
1027.264284
 42
0.004075
  0
VERTEX
  8
0
 10
426.000000
 20
1029.607525
 42
0.025719
  0
VERTEX
  8
0
 10
405.879561
 20
1031.672346
 42
0.011905
  0
VERTEX
  8
0
 10
379.593478
 20
1032.383021
 42
0.011702
  0
VERTEX
  8
0
 10
351.683441
 20
1031.819653
 42
0.015186
  0
VERTEX
  8
0
 10
326.167065
 20
1029.929116
 42
-0.005378
  0
VERTEX
  8
0
 10
321.811782
 20
1029.520398
 42
-0.008353
  0
VERTEX
  8
0
 10
318.046711
 20
1029.271125
 42
-0.003512
  0
VERTEX
  8
0
 10
314.851244
 20
1029.135616
 42
-0.208118
  0
VERTEX
  8
0
 10
314.323178
 20
1029.343489
 42
-0.395348
  0
VERTEX
  8
0
 10
314.259296
 20
1031.313311
 42
-0.002305
  0
VERTEX
  8
0
 10
327.500984
 20
1046.254437
 42
-0.008987
  0
VERTEX
  8
0
 10
340.946318
 20
1060.752185
 42
-0.015131
  0
VERTEX
  8
0
 10
352.801171
 20
1072.358615
 42
-0.034928
  0
VERTEX
  8
0
 10
384.491390
 20
1097.709781
 42
-0.035900
  0
VERTEX
  8
0
 10
419.122461
 20
1118.146321
 42
-0.036915
  0
VERTEX
  8
0
 10
455.322417
 20
1132.923279
 42
-0.042343
  0
VERTEX
  8
0
 10
491.688355
 20
1141.404616
 42
0.000588
  0
VERTEX
  8
0
 10
496.011221
 20
1142.038808
 42
0.000716
  0
VERTEX
  8
0
 10
500.058454
 20
1142.643351
 42
0.000601
  0
VERTEX
  8
0
 10
503.462159
 20
1143.160938
 42
0.005015
  0
VERTEX
  8
0
 10
505.000000
 20
1143.412495
 42
-0.040691
  0
VERTEX
  8
0
 10
506.786175
 20
1143.575192
 42
-0.001394
  0
VERTEX
  8
0
 10
513.815625
 20
1143.622379
 42
-0.002609
  0
VERTEX
  8
0
 10
522.123194
 20
1143.611641
 42
-0.001817
  0
VERTEX
  8
0
 10
531.500000
 20
1143.516513
 42
-0.003523
  0
VERTEX
  8
0
 10
544.135262
 20
1143.253340
 42
-0.010173
  0
VERTEX
  8
0
 10
552.881046
 20
1142.831307
 42
-0.013922
  0
VERTEX
  8
0
 10
559.864909
 20
1142.155916
 42
-0.015278
  0
SEQEND
  0
POLYLINE
  8
0
 66
1
 70
1
  0
VERTEX
  8
0
 10
396.414253
 20
983.464738
 42
-0.019926
  0
VERTEX
  8
0
 10
419.227759
 20
980.352343
 42
-0.048511
  0
VERTEX
  8
0
 10
435.560960
 20
975.790050
 42
-0.069682
  0
VERTEX
  8
0
 10
446.656132
 20
969.606161
 42
-0.124836
  0
VERTEX
  8
0
 10
453.135018
 20
961.508577
 42
-0.113925
  0
VERTEX
  8
0
 10
455.104825
 20
951.768449
 42
-0.023123
  0
VERTEX
  8
0
 10
453.800991
 20
934.076794
 42
-0.025042
  0
VERTEX
  8
0
 10
450.492320
 20
914.787503
 42
-0.034844
  0
VERTEX
  8
0
 10
445.489889
 20
898.000000
 42
-0.025517
  0
VERTEX
  8
0
 10
437.463706
 20
879.547983
 42
-0.034071
  0
VERTEX
  8
0
 10
428.240186
 20
863.785287
 42
-0.037145
  0
VERTEX
  8
0
 10
417.727762
 20
850.565177
 42
-0.043005
  0
VERTEX
  8
0
 10
405.839659
 20
839.736689
 42
-0.028016
  0
VERTEX
  8
0
 10
396.752014
 20
833.561919
 42
-0.033050
  0
VERTEX
  8
0
 10
387.505817
 20
828.810132
 42
-0.032177
  0
VERTEX
  8
0
 10
377.503677
 20
825.223406
 42
-0.024294
  0
VERTEX
  8
0
 10
366.139532
 20
822.545754
 42
-0.079423
  0
VERTEX
  8
0
 10
340.560105
 20
821.923785
 42
-0.094256
  0
VERTEX
  8
0
 10
317.670832
 20
829.563971
 42
-0.088313
  0
VERTEX
  8
0
 10
298.095840
 20
845.598126
 42
-0.061087
  0
VERTEX
  8
0
 10
282.219232
 20
869.500308
 42
-0.026842
  0
VERTEX
  8
0
 10
276.081116
 20
883.598952
 42
-0.032027
  0
VERTEX
  8
0
 10
271.895946
 20
897.475902
 42
-0.031445
  0
VERTEX
  8
0
 10
269.464329
 20
911.988116
 42
-0.024327
  0
VERTEX
  8
0
 10
268.590794
 20
928.000000
 42
-0.004484
  0
VERTEX
  8
0
 10
268.618759
 20
936.991657
 42
-0.022136
  0
VERTEX
  8
0
 10
268.904006
 20
942.049074
 42
-0.034428
  0
VERTEX
  8
0
 10
269.572190
 20
945.954868
 42
-0.023575
  0
VERTEX
  8
0
 10
270.839201
 20
950.273050
 42
-0.097531
  0
VERTEX
  8
0
 10
278.297333
 20
963.090343
 42
-0.088107
  0
VERTEX
  8
0
 10
290.299001
 20
972.669239
 42
-0.066822
  0
VERTEX
  8
0
 10
307.801424
 20
979.345169
 42
-0.030543
  0
VERTEX
  8
0
 10
331.951878
 20
983.487851
 42
-0.018025
  0
VERTEX
  8
0
 10
345.845195
 20
984.500641
 42
-0.009270
  0
VERTEX
  8
0
 10
363.292377
 20
984.817896
 42
-0.009232
  0
VERTEX
  8
0
 10
381.145822
 20
984.481813
 42
-0.014615
  0
SEQEND
  0
POLYLINE
  8
0
 66
1
 70
1
  0
VERTEX
  8
0
 10
725.000000
 20
983.487566
 42
-0.014072
  0
VERTEX
  8
0
 10
740.748332
 20
981.295561
 42
-0.027264
  0
VERTEX
  8
0
 10
753.146038
 20
978.510705
 42
-0.033517
  0
VERTEX
  8
0
 10
763.224563
 20
974.917368
 42
-0.044153
  0
VERTEX
  8
0
 10
771.794881
 20
970.260486
 42
-0.052746
  0
VERTEX
  8
0
 10
775.845162
 20
966.908215
 42
-0.068203
  0
VERTEX
  8
0
 10
778.715171
 20
963.035940
 42
-0.036297
  0
VERTEX
  8
0
 10
781.522987
 20
956.898553
 42
-0.005463
  0
VERTEX
  8
0
 10
786.109754
 20
944.158520
 42
0.000000
  0
VERTEX
  8
0
 10
790.163814
 20
932.500000
 42
0.000000
  0
VERTEX
  8
0
 10
789.509656
 20
921.500000
 42
-0.042208
  0
VERTEX
  8
0
 10
786.077884
 20
897.794055
 42
-0.045505
  0
VERTEX
  8
0
 10
778.751232
 20
875.616763
 42
-0.047329
  0
VERTEX
  8
0
 10
767.875772
 20
855.925824
 42
-0.054235
  0
VERTEX
  8
0
 10
753.909472
 20
839.596781
 42
-0.082966
  0
VERTEX
  8
0
 10
735.231010
 20
827.109072
 42
-0.082044
  0
VERTEX
  8
0
 10
713.435068
 20
821.309950
 42
-0.077301
  0
VERTEX
  8
0
 10
689.819787
 20
822.680616
 42
-0.062805
  0
VERTEX
  8
0
 10
665.871207
 20
831.090662
 42
-0.060291
  0
VERTEX
  8
0
 10
649.416843
 20
841.955905
 42
-0.049450
  0
VERTEX
  8
0
 10
634.772834
 20
857.120359
 42
-0.045217
  0
VERTEX
  8
0
 10
622.261577
 20
876.268825
 42
-0.035237
  0
VERTEX
  8
0
 10
612.166817
 20
899.000000
 42
-0.011058
  0
VERTEX
  8
0
 10
609.766997
 20
906.113541
 42
-0.019204
  0
VERTEX
  8
0
 10
608.135564
 20
912.128646
 42
-0.014927
  0
VERTEX
  8
0
 10
606.727337
 20
919.199138
 42
-0.004201
  0
VERTEX
  8
0
 10
604.953517
 20
930.307677
 42
-0.014503
  0
VERTEX
  8
0
 10
603.192389
 20
944.798860
 42
-0.048686
  0
VERTEX
  8
0
 10
603.243600
 20
954.348376
 42
-0.074538
  0
VERTEX
  8
0
 10
605.033334
 20
961.315093
 42
-0.083808
  0
VERTEX
  8
0
 10
608.748333
 20
967.143195
 42
-0.061825
  0
VERTEX
  8
0
 10
613.676214
 20
971.401096
 42
-0.043324
  0
VERTEX
  8
0
 10
620.112483
 20
974.938191
 42
-0.035041
  0
VERTEX
  8
0
 10
628.392109
 20
977.921660
 42
-0.018652
  0
VERTEX
  8
0
 10
638.980788
 20
980.496081
 42
-0.028289
  0
VERTEX
  8
0
 10
657.100276
 20
983.135311
 42
-0.013330
  0
VERTEX
  8
0
 10
680.713042
 20
984.587442
 42
-0.013331
  0
VERTEX
  8
0
 10
704.893902
 20
984.783358
 42
-0.022904
  0
SEQEND
  0
POLYLINE
  8
0
 66
1
 70
1
  0
VERTEX
  8
0
 10
541.390710
 20
959.049719
 42
-0.022402
  0
VERTEX
  8
0
 10
542.973944
 20
958.606864
 42
-0.022287
  0
VERTEX
  8
0
 10
544.513981
 20
958.023480
 42
-0.022801
  0
VERTEX
  8
0
 10
545.810092
 20
957.393758
 42
-0.076397
  0
VERTEX
  8
0
 10
546.559572
 20
956.823576
 42
-0.133084
  0
VERTEX
  8
0
 10
547.169578
 20
955.715746
 42
-0.004106
  0
VERTEX
  8
0
 10
548.369807
 20
950.601300
 42
-0.007793
  0
VERTEX
  8
0
 10
549.650685
 20
944.493200
 42
-0.005285
  0
VERTEX
  8
0
 10
550.927221
 20
937.500000
 42
0.007194
  0
VERTEX
  8
0
 10
554.255950
 20
919.650495
 42
0.006675
  0
VERTEX
  8
0
 10
558.175102
 20
901.451386
 42
0.004540
  0
VERTEX
  8
0
 10
562.024576
 20
885.340609
 42
0.060668
  0
VERTEX
  8
0
 10
564.192352
 20
879.664354
 42
-0.028706
  0
VERTEX
  8
0
 10
564.529257
 20
878.927024
 42
-0.039516
  0
VERTEX
  8
0
 10
564.739015
 20
878.229749
 42
-0.044546
  0
VERTEX
  8
0
 10
564.810211
 20
877.659421
 42
-0.208066
  0
VERTEX
  8
0
 10
564.691644
 20
877.358310
 42
-0.241008
  0
VERTEX
  8
0
 10
564.292780
 20
877.229486
 42
-0.007010
  0
VERTEX
  8
0
 10
562.490993
 20
877.547341
 42
-0.012653
  0
VERTEX
  8
0
 10
560.332416
 20
878.016321
 42
-0.008204
  0
VERTEX
  8
0
 10
557.860623
 20
878.662376
 42
0.057987
  0
VERTEX
  8
0
 10
547.955255
 20
880.222461
 42
0.010093
  0
VERTEX
  8
0
 10
529.000000
 20
880.605146
 42
0.010093
  0
VERTEX
  8
0
 10
510.044745
 20
880.222461
 42
0.057987
  0
VERTEX
  8
0
 10
500.139377
 20
878.662376
 42
-0.008204
  0
VERTEX
  8
0
 10
497.667584
 20
878.016321
 42
-0.012653
  0
VERTEX
  8
0
 10
495.509007
 20
877.547341
 42
-0.007010
  0
VERTEX
  8
0
 10
493.707220
 20
877.229486
 42
-0.241008
  0
VERTEX
  8
0
 10
493.308356
 20
877.358310
 42
-0.207910
  0
VERTEX
  8
0
 10
493.189685
 20
877.659421
 42
-0.044530
  0
VERTEX
  8
0
 10
493.260517
 20
878.229749
 42
-0.039508
  0
VERTEX
  8
0
 10
493.469761
 20
878.927025
 42
-0.028709
  0
VERTEX
  8
0
 10
493.806056
 20
879.664354
 42
0.060079
  0
VERTEX
  8
0
 10
496.177404
 20
885.864445
 42
0.005551
  0
VERTEX
  8
0
 10
499.997804
 20
901.878507
 42
0.007337
  0
VERTEX
  8
0
 10
503.956816
 20
920.598809
 42
0.006702
  0
VERTEX
  8
0
 10
507.493914
 20
940.000000
 42
-0.006471
  0
VERTEX
  8
0
 10
508.591638
 20
946.036903
 42
-0.009327
  0
VERTEX
  8
0
 10
509.731049
 20
951.344518
 42
-0.005630
  0
VERTEX
  8
0
 10
510.814986
 20
955.747584
 42
-0.132367
  0
VERTEX
  8
0
 10
511.442199
 20
956.853678
 42
-0.066683
  0
VERTEX
  8
0
 10
512.185489
 20
957.428862
 42
-0.024148
  0
VERTEX
  8
0
 10
513.373341
 20
958.042938
 42
-0.023443
  0
VERTEX
  8
0
 10
514.754756
 20
958.597840
 42
-0.025777
  0
VERTEX
  8
0
 10
516.139392
 20
959.001316
 42
-0.046552
  0
VERTEX
  8
0
 10
520.837312
 20
959.658393
 42
-0.011003
  0
VERTEX
  8
0
 10
528.761740
 20
959.847998
 42
-0.011006
  0
VERTEX
  8
0
 10
536.687165
 20
959.688715
 42
-0.046494
  0
SEQEND
  0
POLYLINE
  8
0
 66
1
 70
1
  0
VERTEX
  8
0
 10
547.000000
 20
844.118324
 42
-0.004836
  0
VERTEX
  8
0
 10
549.598664
 20
843.623186
 42
-0.005818
  0
VERTEX
  8
0
 10
552.031250
 20
843.105750
 42
-0.005018
  0
VERTEX
  8
0
 10
554.068019
 20
842.626145
 42
-0.038504
  0
VERTEX
  8
0
 10
555.000000
 20
842.319089
 42
0.012941
  0
VERTEX
  8
0
 10
555.647570
 20
842.068401
 42
0.010531
  0
VERTEX
  8
0
 10
556.353125
 20
841.832696
 42
0.010677
  0
VERTEX
  8
0
 10
557.012481
 20
841.643096
 42
0.027137
  0
VERTEX
  8
0
 10
557.500000
 20
841.542043
 42
-0.037987
  0
VERTEX
  8
0
 10
558.063611
 20
841.412417
 42
-0.006843
  0
VERTEX
  8
0
 10
559.087500
 20
841.078007
 42
-0.007346
  0
VERTEX
  8
0
 10
560.278113
 20
840.651393
 42
-0.006587
  0
VERTEX
  8
0
 10
561.500000
 20
840.174755
 42
-0.035133
  0
VERTEX
  8
0
 10
569.372036
 20
836.320149
 42
-0.027797
  0
VERTEX
  8
0
 10
577.296353
 20
831.115288
 42
-0.020247
  0
VERTEX
  8
0
 10
586.641243
 20
823.601253
 42
-0.007409
  0
VERTEX
  8
0
 10
599.253038
 20
812.257134
 42
0.017677
  0
VERTEX
  8
0
 10
606.117704
 20
806.332870
 42
0.015387
  0
VERTEX
  8
0
 10
613.702082
 20
800.616402
 42
0.014718
  0
VERTEX
  8
0
 10
620.737881
 20
795.949553
 42
0.062532
  0
VERTEX
  8
0
 10
625.316052
 20
793.842520
 42
-0.006850
  0
VERTEX
  8
0
 10
626.681524
 20
793.389821
 42
-0.005349
  0
VERTEX
  8
0
 10
628.152215
 20
792.862080
 42
-0.005411
  0
VERTEX
  8
0
 10
629.511418
 20
792.341071
 42
-0.013120
  0
VERTEX
  8
0
 10
630.500000
 20
791.919483
 42
0.043699
  0
VERTEX
  8
0
 10
631.664307
 20
791.505004
 42
0.008612
  0
VERTEX
  8
0
 10
633.821875
 20
790.982873
 42
0.009069
  0
VERTEX
  8
0
 10
636.364828
 20
790.461896
 42
0.008310
  0
VERTEX
  8
0
 10
639.000000
 20
790.016827
 42
-0.005441
  0
VERTEX
  8
0
 10
644.984636
 20
789.041342
 42
-0.007186
  0
VERTEX
  8
0
 10
650.413516
 20
788.015096
 42
-0.006547
  0
VERTEX
  8
0
 10
654.872086
 20
787.044743
 42
-0.045074
  0
VERTEX
  8
0
 10
657.000000
 20
786.345526
 42
0.033790
  0
VERTEX
  8
0
 10
660.969934
 20
784.941166
 42
0.010303
  0
VERTEX
  8
0
 10
667.145474
 20
783.352109
 42
0.010441
  0
VERTEX
  8
0
 10
674.017270
 20
781.884819
 42
0.012763
  0
VERTEX
  8
0
 10
680.500000
 20
780.812286
 42
-0.026088
  0
VERTEX
  8
0
 10
687.159056
 20
779.527474
 42
-0.072474
  0
VERTEX
  8
0
 10
691.560980
 20
777.731100
 42
-0.108816
  0
VERTEX
  8
0
 10
694.211490
 20
775.267167
 42
-0.119781
  0
VERTEX
  8
0
 10
695.466156
 20
772.000000
 42
0.061601
  0
VERTEX
  8
0
 10
695.532364
 20
771.742082
 42
0.016267
  0
VERTEX
  8
0
 10
695.701148
 20
771.350380
 42
0.016257
  0
VERTEX
  8
0
 10
695.923974
 20
770.913771
 42
0.016050
  0
VERTEX
  8
0
 10
696.175596
 20
770.490656
 42
-0.121829
  0
VERTEX
  8
0
 10
697.089309
 20
767.789097
 42
-0.010340
  0
VERTEX
  8
0
 10
697.554483
 20
760.414649
 42
-0.014513
  0
VERTEX
  8
0
 10
697.654118
 20
752.919114
 42
-0.042013
  0
VERTEX
  8
0
 10
697.138023
 20
747.760263
 42
-0.087686
  0
VERTEX
  8
0
 10
692.098031
 20
734.313756
 42
-0.061077
  0
VERTEX
  8
0
 10
682.195182
 20
721.435866
 42
-0.051888
  0
VERTEX
  8
0
 10
667.713938
 20
709.494353
 42
-0.034577
  0
VERTEX
  8
0
 10
649.000000
 20
698.859716
 42
-0.003142
  0
VERTEX
  8
0
 10
643.314042
 20
696.173472
 42
-0.006640
  0
VERTEX
  8
0
 10
638.864967
 20
694.177081
 42
-0.006632
  0
VERTEX
  8
0
 10
634.361269
 20
692.298134
 42
-0.003128
  0
VERTEX
  8
0
 10
628.500000
 20
689.986063
 42
-0.011485
  0
VERTEX
  8
0
 10
623.268747
 20
688.097220
 42
-0.006235
  0
VERTEX
  8
0
 10
616.759845
 20
686.004610
 42
-0.005044
  0
VERTEX
  8
0
 10
610.568694
 20
684.167163
 42
-0.035667
  0
VERTEX
  8
0
 10
607.500000
 20
683.522348
 42
0.028894
  0
VERTEX
  8
0
 10
607.012480
 20
683.426776
 42
0.011354
  0
VERTEX
  8
0
 10
606.353125
 20
683.241407
 42
0.011194
  0
VERTEX
  8
0
 10
605.647575
 20
683.008255
 42
0.013717
  0
VERTEX
  8
0
 10
605.000000
 20
682.757847
 42
-0.051156
  0
VERTEX
  8
0
 10
597.216684
 20
680.399681
 42
-0.007396
  0
VERTEX
  8
0
 10
580.871069
 20
677.473040
 42
-0.009004
  0
VERTEX
  8
0
 10
563.062767
 20
674.884034
 42
-0.013679
  0
VERTEX
  8
0
 10
547.500000
 20
673.338157
 42
-0.025256
  0
VERTEX
  8
0
 10
523.839432
 20
672.837666
 42
-0.018401
  0
VERTEX
  8
0
 10
497.581652
 20
674.577120
 42
-0.018587
  0
VERTEX
  8
0
 10
472.011154
 20
678.183585
 42
-0.029424
  0
VERTEX
  8
0
 10
450.500000
 20
683.359298
 42
0.006620
  0
VERTEX
  8
0
 10
449.878980
 20
683.539025
 42
0.000755
  0
VERTEX
  8
0
 10
448.471875
 20
683.923848
 42
0.000913
  0
VERTEX
  8
0
 10
446.796305
 20
684.376090
 42
0.000743
  0
VERTEX
  8
0
 10
445.000000
 20
684.854543
 42
-0.008266
  0
VERTEX
  8
0
 10
443.164780
 20
685.373054
 42
-0.008596
  0
VERTEX
  8
0
 10
441.371608
 20
685.945638
 42
-0.008348
  0
VERTEX
  8
0
 10
439.838788
 20
686.492974
 42
-0.036662
  0
VERTEX
  8
0
 10
438.967177
 20
686.895833
 42
0.035907
  0
VERTEX
  8
0
 10
438.157496
 20
687.271551
 42
0.011848
  0
VERTEX
  8
0
 10
436.919788
 20
687.707957
 42
0.011731
  0
VERTEX
  8
0
 10
435.519740
 20
688.128534
 42
0.013041
  0
VERTEX
  8
0
 10
434.149817
 20
688.467095
 42
-0.019074
  0
VERTEX
  8
0
 10
432.696956
 20
688.844808
 42
-0.012257
  0
VERTEX
  8
0
 10
431.042087
 20
689.387717
 42
-0.012320
  0
VERTEX
  8
0
 10
429.446186
 20
689.999657
 42
-0.022524
  0
VERTEX
  8
0
 10
428.182640
 20
690.588089
 42
0.017150
  0
VERTEX
  8
0
 10
427.062883
 20
691.124274
 42
0.017519
  0
VERTEX
  8
0
 10
425.916852
 20
691.578359
 42
0.017568
  0
VERTEX
  8
0
 10
424.896678
 20
691.901866
 42
0.066867
  0
VERTEX
  8
0
 10
424.236431
 20
691.993839
 42
-0.050993
  0
VERTEX
  8
0
 10
423.630186
 20
692.058817
 42
-0.021363
  0
VERTEX
  8
0
 10
422.833959
 20
692.263305
 42
-0.020871
  0
VERTEX
  8
0
 10
421.993906
 20
692.556542
 42
-0.025442
  0
VERTEX
  8
0
 10
421.236431
 20
692.902519
 42
0.006212
  0
VERTEX
  8
0
 10
420.100224
 20
693.475255
 42
0.000494
  0
VERTEX
  8
0
 10
417.072577
 20
694.950838
 42
0.000670
  0
VERTEX
  8
0
 10
413.456639
 20
696.702734
 42
0.000513
  0
VERTEX
  8
0
 10
409.500000
 20
698.608153
 42
-0.034722
  0
VERTEX
  8
0
 10
389.175980
 20
710.169181
 42
-0.058510
  0
VERTEX
  8
0
 10
374.235940
 20
722.842462
 42
-0.071175
  0
VERTEX
  8
0
 10
364.689649
 20
736.550493
 42
-0.092879
  0
VERTEX
  8
0
 10
360.460406
 20
751.204552
 42
-0.032707
  0
VERTEX
  8
0
 10
360.278074
 20
757.209658
 42
-0.025201
  0
VERTEX
  8
0
 10
360.837501
 20
763.742074
 42
-0.025785
  0
VERTEX
  8
0
 10
361.996336
 20
769.853875
 42
-0.050750
  0
VERTEX
  8
0
 10
363.645527
 20
774.510810
 42
-0.059511
  0
VERTEX
  8
0
 10
365.293112
 20
777.134953
 42
-0.119430
  0
VERTEX
  8
0
 10
367.223942
 20
778.613561
 42
-0.059646
  0
VERTEX
  8
0
 10
370.445726
 20
779.598344
 42
-0.006722
  0
VERTEX
  8
0
 10
378.000000
 20
780.848873
 42
0.010448
  0
VERTEX
  8
0
 10
384.320999
 20
781.943706
 42
0.007737
  0
VERTEX
  8
0
 10
391.261470
 20
783.407600
 42
0.007802
  0
VERTEX
  8
0
 10
397.741693
 20
784.986229
 42
0.018457
  0
VERTEX
  8
0
 10
402.500000
 20
786.413772
 42
-0.017869
  0
VERTEX
  8
0
 10
406.425041
 20
787.596357
 42
-0.010734
  0
VERTEX
  8
0
 10
411.157563
 20
788.731643
 42
-0.010226
  0
VERTEX
  8
0
 10
416.277427
 20
789.735011
 42
-0.010452
  0
VERTEX
  8
0
 10
421.396974
 20
790.520110
 42
0.009762
  0
VERTEX
  8
0
 10
423.389317
 20
790.822830
 42
0.010403
  0
VERTEX
  8
0
 10
425.326351
 20
791.197604
 42
0.010043
  0
VERTEX
  8
0
 10
426.976775
 20
791.587534
 42
0.046666
  0
VERTEX
  8
0
 10
427.896974
 20
791.918598
 42
0.007797
  0
VERTEX
  8
0
 10
438.772734
 20
797.228823
 42
0.030432
  0
VERTEX
  8
0
 10
445.223180
 20
801.013907
 42
0.030734
  0
VERTEX
  8
0
 10
451.135692
 20
805.536187
 42
0.008065
  0
VERTEX
  8
0
 10
460.025191
 20
813.500000
 42
-0.002874
  0
VERTEX
  8
0
 10
466.538546
 20
819.458141
 42
-0.007445
  0
VERTEX
  8
0
 10
471.322138
 20
823.655969
 42
-0.009470
  0
VERTEX
  8
0
 10
475.489294
 20
827.070424
 42
-0.008570
  0
VERTEX
  8
0
 10
479.922149
 20
830.442852
 42
-0.023967
  0
VERTEX
  8
0
 10
484.908776
 20
833.747844
 42
-0.013336
  0
VERTEX
  8
0
 10
491.270842
 20
837.312407
 42
-0.009102
  0
VERTEX
  8
0
 10
497.450543
 20
840.419131
 42
-0.112376
  0
VERTEX
  8
0
 10
500.002395
 20
841.000000
 42
0.048767
  0
VERTEX
  8
0
 10
500.683759
 20
841.066615
 42
0.036750
  0
VERTEX
  8
0
 10
501.409766
 20
841.266278
 42
0.037614
  0
VERTEX
  8
0
 10
502.070519
 20
841.559009
 42
0.067534
  0
VERTEX
  8
0
 10
502.550000
 20
841.906478
 42
-0.122021
  0
VERTEX
  8
0
 10
503.266033
 20
842.315612
 42
-0.009525
  0
VERTEX
  8
0
 10
505.411728
 20
842.880044
 42
-0.012542
  0
VERTEX
  8
0
 10
508.032132
 20
843.447047
 42
-0.009251
  0
VERTEX
  8
0
 10
510.958009
 20
843.947820
 42
0.005597
  0
VERTEX
  8
0
 10
513.854978
 20
844.421881
 42
0.008270
  0
VERTEX
  8
0
 10
516.384010
 20
844.908100
 42
0.004390
  0
VERTEX
  8
0
 10
518.499256
 20
845.370589
 42
0.141269
  0
VERTEX
  8
0
 10
518.956554
 20
845.623220
 42
-0.210299
  0
VERTEX
  8
0
 10
520.377433
 20
846.175701
 42
-0.002474
  0
VERTEX
  8
0
 10
530.622578
 20
845.676733
 42
-0.007906
  0
VERTEX
  8
0
 10
540.355914
 20
844.999933
 42
-0.023348
  0
SEQEND
  0
POLYLINE
  8
0
 66
1
 70
1
  0
VERTEX
  8
0
 10
259.053833
 20
809.367929
 42
0.038858
  0
VERTEX
  8
0
 10
266.279684
 20
802.849433
 42
0.022765
  0
VERTEX
  8
0
 10
275.830023
 20
796.163453
 42
0.021861
  0
VERTEX
  8
0
 10
286.581493
 20
789.985563
 42
0.024053
  0
VERTEX
  8
0
 10
297.500000
 20
784.981700
 42
0.027544
  0
VERTEX
  8
0
 10
303.525987
 20
782.940797
 42
0.012055
  0
VERTEX
  8
0
 10
311.707002
 20
780.874691
 42
0.011429
  0
VERTEX
  8
0
 10
319.737078
 20
779.243480
 42
0.042563
  0
VERTEX
  8
0
 10
324.868791
 20
778.767543
 42
-0.057856
  0
VERTEX
  8
0
 10
326.216444
 20
778.600955
 42
-0.249300
  0
VERTEX
  8
0
 10
326.799973
 20
778.081667
 42
-0.114768
  0
VERTEX
  8
0
 10
326.937797
 20
776.997183
 42
-0.009273
  0
VERTEX
  8
0
 10
326.589516
 20
774.125000
 42
0.025656
  0
VERTEX
  8
0
 10
325.222352
 20
758.614142
 42
0.038208
  0
VERTEX
  8
0
 10
325.763740
 20
745.006219
 42
0.042028
  0
VERTEX
  8
0
 10
328.266262
 20
732.670328
 42
0.042750
  0
VERTEX
  8
0
 10
332.787443
 20
721.000000
 42
0.048358
  0
VERTEX
  8
0
 10
340.180100
 20
708.987946
 42
0.032841
  0
VERTEX
  8
0
 10
350.702952
 20
696.843768
 42
0.031207
  0
VERTEX
  8
0
 10
363.439771
 20
685.473975
 42
0.031151
  0
VERTEX
  8
0
 10
377.500000
 20
675.770520
 42
0.033184
  0
VERTEX
  8
0
 10
402.291187
 20
663.007079
 42
0.026802
  0
VERTEX
  8
0
 10
430.369824
 20
652.581827
 42
0.024809
  0
VERTEX
  8
0
 10
461.634718
 20
644.521491
 42
0.019782
  0
VERTEX
  8
0
 10
496.000000
 20
638.864597
 42
0.026173
  0
VERTEX
  8
0
 10
507.468404
 20
638.046039
 42
0.004671
  0
VERTEX
  8
0
 10
528.954722
 20
637.840255
 42
0.004693
  0
VERTEX
  8
0
 10
550.443429
 20
638.036899
 42
0.025820
  0
VERTEX
  8
0
 10
562.000000
 20
638.849090
 42
0.002783
  0
VERTEX
  8
0
 10
570.743517
 20
639.968713
 42
0.004247
  0
VERTEX
  8
0
 10
578.316971
 20
641.046938
 42
0.004909
  0
VERTEX
  8
0
 10
584.757120
 20
642.084466
 42
0.008899
  0
VERTEX
  8
0
 10
590.000000
 20
643.078362
 42
0.007437
  0
VERTEX
  8
0
 10
599.120202
 20
645.117995
 42
0.002367
  0
VERTEX
  8
0
 10
612.640164
 20
648.421201
 42
0.000944
  0
VERTEX
  8
0
 10
626.672745
 20
651.948283
 42
0.042658
  0
VERTEX
  8
0
 10
629.500000
 20
652.927441
 42
-0.014508
  0
VERTEX
  8
0
 10
630.785668
 20
653.455395
 42
-0.001377
  0
VERTEX
  8
0
 10
633.970720
 20
654.646561
 42
-0.001759
  0
VERTEX
  8
0
 10
637.777872
 20
656.043231
 42
-0.001385
  0
VERTEX
  8
0
 10
641.910962
 20
657.530057
 42
0.021467
  0
VERTEX
  8
0
 10
660.141175
 20
664.927543
 42
0.025070
  0
VERTEX
  8
0
 10
676.722521
 20
673.529192
 42
0.026496
  0
VERTEX
  8
0
 10
691.505553
 20
683.249420
 42
0.031225
  0
VERTEX
  8
0
 10
704.345606
 20
694.000000
 42
0.019642
  0
VERTEX
  8
0
 10
712.974241
 20
702.862449
 42
0.033347
  0
VERTEX
  8
0
 10
719.367013
 20
710.996802
 42
0.035026
  0
VERTEX
  8
0
 10
724.410097
 20
719.616009
 42
0.024605
  0
VERTEX
  8
0
 10
728.893604
 20
729.926941
 42
0.047383
  0
VERTEX
  8
0
 10
731.367367
 20
738.996692
 42
0.029285
  0
VERTEX
  8
0
 10
732.614761
 20
749.986214
 42
0.026941
  0
VERTEX
  8
0
 10
732.622115
 20
762.177854
 42
0.023348
  0
VERTEX
  8
0
 10
731.345938
 20
774.903083
 42
-0.015784
  0
VERTEX
  8
0
 10
731.148038
 20
776.615209
 42
-0.037218
  0
VERTEX
  8
0
 10
731.136334
 20
777.899788
 42
-0.069428
  0
VERTEX
  8
0
 10
731.290761
 20
778.646542
 42
-0.475838
  0
VERTEX
  8
0
 10
731.597798
 20
778.755143
 42
0.153769
  0
VERTEX
  8
0
 10
732.250248
 20
778.593305
 42
0.009126
  0
VERTEX
  8
0
 10
734.302507
 20
778.758373
 42
0.013052
  0
VERTEX
  8
0
 10
736.776390
 20
779.068255
 42
0.009211
  0
VERTEX
  8
0
 10
739.538396
 20
779.539914
 42
0.028155
  0
VERTEX
  8
0
 10
755.633977
 20
783.544527
 42
0.034553
  0
VERTEX
  8
0
 10
770.077127
 20
789.133600
 42
0.036238
  0
VERTEX
  8
0
 10
783.024109
 20
796.388283
 42
0.037372
  0
VERTEX
  8
0
 10
794.646929
 20
805.369714
 42
-0.005543
  0
VERTEX
  8
0
 10
796.663885
 20
807.144149
 42
-0.008373
  0
VERTEX
  8
0
 10
798.462572
 20
808.639854
 42
-0.004041
  0
VERTEX
  8
0
 10
800.010681
 20
809.863480
 42
-0.166714
  0
VERTEX
  8
0
 10
800.408747
 20
810.000000
 42
-0.475350
  0
VERTEX
  8
0
 10
801.255248
 20
808.960304
 42
-0.004842
  0
VERTEX
  8
0
 10
798.969739
 20
798.434934
 42
-0.012473
  0
VERTEX
  8
0
 10
796.111518
 20
787.168528
 42
-0.014043
  0
VERTEX
  8
0
 10
792.794025
 20
776.500000
 42
-0.031734
  0
VERTEX
  8
0
 10
784.054147
 20
755.418787
 42
-0.028146
  0
VERTEX
  8
0
 10
772.400448
 20
734.717872
 42
-0.024532
  0
VERTEX
  8
0
 10
756.955612
 20
712.994950
 42
-0.014783
  0
VERTEX
  8
0
 10
736.670776
 20
688.749189
 42
0.010974
  0
VERTEX
  8
0
 10
733.977395
 20
685.579261
 42
0.018710
  0
VERTEX
  8
0
 10
731.888314
 20
682.802144
 42
0.015033
  0
VERTEX
  8
0
 10
730.400780
 20
680.519059
 42
0.232510
  0
VERTEX
  8
0
 10
730.318504
 20
679.612374
 42
-0.075718
  0
VERTEX
  8
0
 10
730.444800
 20
679.034754
 42
-0.236111
  0
VERTEX
  8
0
 10
730.294315
 20
678.678442
 42
-0.189174
  0
VERTEX
  8
0
 10
729.881369
 20
678.535370
 42
-0.049713
  0
VERTEX
  8
0
 10
729.175182
 20
678.634708
 42
0.210526
  0
VERTEX
  8
0
 10
728.184842
 20
678.458690
 42
0.061347
  0
VERTEX
  8
0
 10
726.986641
 20
677.421633
 42
0.038057
  0
VERTEX
  8
0
 10
725.517719
 20
675.524049
 42
0.012068
  0
VERTEX
  8
0
 10
723.619794
 20
672.486950
 42
0.032231
  0
VERTEX
  8
0
 10
718.121444
 20
661.661710
 42
0.038051
  0
VERTEX
  8
0
 10
714.405804
 20
650.794669
 42
0.039667
  0
VERTEX
  8
0
 10
712.490002
 20
639.901946
 42
0.041398
  0
VERTEX
  8
0
 10
712.358538
 20
629.000000
 42
0.055039
  0
VERTEX
  8
0
 10
715.679643
 20
610.816938
 42
0.074630
  0
VERTEX
  8
0
 10
722.774262
 20
595.731667
 42
0.071985
  0
VERTEX
  8
0
 10
734.214201
 20
583.007795
 42
0.047211
  0
VERTEX
  8
0
 10
750.505349
 20
571.852658
 42
0.001144
  0
VERTEX
  8
0
 10
761.781024
 20
565.637449
 42
0.003111
  0
VERTEX
  8
0
 10
769.805524
 20
561.302920
 42
0.002711
  0
VERTEX
  8
0
 10
778.471599
 20
556.751366
 42
0.000700
  0
VERTEX
  8
0
 10
792.500000
 20
549.505092
 42
-0.000401
  0
VERTEX
  8
0
 10
800.287505
 20
545.488403
 42
-0.000416
  0
VERTEX
  8
0
 10
807.975000
 20
541.507392
 42
-0.000400
  0
VERTEX
  8
0
 10
814.623275
 20
538.050782
 42
-0.001802
  0
VERTEX
  8
0
 10
818.500000
 20
536.013433
 42
0.000395
  0
VERTEX
  8
0
 10
822.007409
 20
534.157561
 42
0.000145
  0
VERTEX
  8
0
 10
826.968750
 20
531.539231
 42
0.000144
  0
VERTEX
  8
0
 10
832.392618
 20
528.680804
 42
0.000172
  0
VERTEX
  8
0
 10
837.500000
 20
525.993288
 42
-0.006474
  0
VERTEX
  8
0
 10
887.338914
 20
498.960485
 42
-0.015176
  0
VERTEX
  8
0
 10
923.674321
 20
477.165640
 42
-0.019991
  0
VERTEX
  8
0
 10
949.996784
 20
458.744166
 42
-0.048801
  0
VERTEX
  8
0
 10
967.324103
 20
442.662829
 42
-0.025276
  0
VERTEX
  8
0
 10
980.812365
 20
425.797955
 42
-0.029061
  0
VERTEX
  8
0
 10
991.864422
 20
408.400971
 42
-0.029177
  0
VERTEX
  8
0
 10
1000.789323
 20
389.902255
 42
-0.025868
  0
VERTEX
  8
0
 10
1007.909228
 20
369.739696
 42
-0.007473
  0
VERTEX
  8
0
 10
1011.248807
 20
357.802419
 42
-0.013670
  0
VERTEX
  8
0
 10
1013.558125
 20
347.961862
 42
-0.014044
  0
VERTEX
  8
0
 10
1015.286629
 20
338.190164
 42
-0.008417
  0
VERTEX
  8
0
 10
1016.816857
 20
326.500000
 42
-0.025306
  0
VERTEX
  8
0
 10
1017.364406
 20
317.782101
 42
-0.003040
  0
VERTEX
  8
0
 10
1017.480967
 20
298.499588
 42
-0.002885
  0
VERTEX
  8
0
 10
1017.368731
 20
279.162080
 42
-0.028094
  0
VERTEX
  8
0
 10
1016.814929
 20
271.000000
 42
-0.000040
  0
VERTEX
  8
0
 10
1016.477857
 20
268.295631
 42
-0.000016
  0
VERTEX
  8
0
 10
1016.016312
 20
264.596006
 42
-0.000016
  0
VERTEX
  8
0
 10
1015.518700
 20
260.609347
 42
-0.000020
  0
VERTEX
  8
0
 10
1015.058249
 20
256.922575
 42
-0.012995
  0
VERTEX
  8
0
 10
1013.691443
 20
247.895989
 42
-0.011545
  0
VERTEX
  8
0
 10
1011.810650
 20
238.586989
 42
-0.011599
  0
VERTEX
  8
0
 10
1009.513607
 20
229.424687
 42
-0.013518
  0
VERTEX
  8
0
 10
1006.896630
 20
220.839395
 42
-0.017806
  0
VERTEX
  8
0
 10
1003.861517
 20
212.739481
 42
-0.010276
  0
VERTEX
  8
0
 10
999.666778
 20
203.210314
 42
-0.003266
  0
VERTEX
  8
0
 10
995.212773
 20
193.792377
 42
-0.288233
  0
VERTEX
  8
0
 10
993.952427
 20
193.000000
 42
-0.281247
  0
VERTEX
  8
0
 10
991.141459
 20
194.716967
 42
-0.001983
  0
VERTEX
  8
0
 10
977.975365
 20
220.625281
 42
-0.007915
  0
VERTEX
  8
0
 10
965.654773
 20
246.106401
 42
-0.015137
  0
VERTEX
  8
0
 10
956.715623
 20
267.000000
 42
-0.009213
  0
VERTEX
  8
0
 10
948.423605
 20
289.328706
 42
-0.008804
  0
VERTEX
  8
0
 10
940.827024
 20
312.287241
 42
-0.009136
  0
VERTEX
  8
0
 10
934.376941
 20
334.412514
 42
-0.013231
  0
VERTEX
  8
0
 10
929.559220
 20
354.190907
 42
0.000046
  0
VERTEX
  8
0
 10
928.894209
 20
357.272165
 42
0.000019
  0
VERTEX
  8
0
 10
927.994698
 20
361.437329
 42
0.000019
  0
VERTEX
  8
0
 10
927.030381
 20
365.900936
 42
0.000024
  0
VERTEX
  8
0
 10
926.144449
 20
370.000000
 42
-0.006185
  0
VERTEX
  8
0
 10
924.215008
 20
379.492162
 42
-0.003930
  0
VERTEX
  8
0
 10
922.192197
 20
390.589189
 42
-0.003907
  0
VERTEX
  8
0
 10
920.320431
 20
401.855765
 42
-0.005580
  0
VERTEX
  8
0
 10
918.849300
 20
411.884186
 42
0.000000
  0
VERTEX
  8
0
 10
917.579486
 20
421.268372
 42
0.000000
  0
VERTEX
  8
0
 10
906.039743
 20
420.616834
 42
0.002170
  0
VERTEX
  8
0
 10
901.199983
 20
420.322507
 42
0.001965
  0
VERTEX
  8
0
 10
896.200737
 20
419.976964
 42
0.001967
  0
VERTEX
  8
0
 10
891.727728
 20
419.632429
 42
0.006299
  0
VERTEX
  8
0
 10
888.750000
 20
419.353481
 42
0.000000
  0
VERTEX
  8
0
 10
883.000000
 20
418.741667
 42
0.000000
  0
VERTEX
  8
0
 10
883.000000
 20
415.016674
 42
0.038795
  0
VERTEX
  8
0
 10
883.736902
 20
405.533569
 42
0.004410
  0
VERTEX
  8
0
 10
887.247849
 20
384.307292
 42
0.005820
  0
VERTEX
  8
0
 10
891.473418
 20
361.650118
 42
0.009424
  0
VERTEX
  8
0
 10
895.652714
 20
342.500000
 42
0.017777
  0
VERTEX
  8
0
 10
907.999815
 20
297.758947
 42
0.018523
  0
VERTEX
  8
0
 10
923.347316
 20
254.627024
 42
0.019010
  0
VERTEX
  8
0
 10
941.397478
 20
213.870216
 42
0.021441
  0
VERTEX
  8
0
 10
961.843419
 20
176.248008
 42
-0.002072
  0
VERTEX
  8
0
 10
965.353327
 20
170.346321
 42
-0.003270
  0
VERTEX
  8
0
 10
968.310254
 20
165.251313
 42
-0.000830
  0
VERTEX
  8
0
 10
970.853589
 20
160.784989
 42
-0.129718
  0
VERTEX
  8
0
 10
971.000000
 20
160.230141
 42
-0.202479
  0
VERTEX
  8
0
 10
970.368809
 20
158.735386
 42
-0.001344
  0
VERTEX
  8
0
 10
959.983935
 20
148.685725
 42
-0.005786
  0
VERTEX
  8
0
 10
950.028682
 20
139.323022
 42
-0.014533
  0
VERTEX
  8
0
 10
942.500000
 20
132.798084
 42
-0.014902
  0
VERTEX
  8
0
 10
928.661585
 20
122.163417
 42
-0.013901
  0
VERTEX
  8
0
 10
913.894965
 20
112.112381
 42
-0.013584
  0
VERTEX
  8
0
 10
898.243891
 20
102.673950
 42
-0.012702
  0
VERTEX
  8
0
 10
881.753436
 20
93.876192
 42
-0.007448
  0
VERTEX
  8
0
 10
871.306252
 20
88.832300
 42
-0.004351
  0
VERTEX
  8
0
 10
858.645726
 20
83.084115
 42
-0.001305
  0
VERTEX
  8
0
 10
845.849367
 20
77.447950
 42
-0.103435
  0
VERTEX
  8
0
 10
843.707171
 20
77.000000
 42
0.075349
  0
VERTEX
  8
0
 10
843.180913
 20
76.920241
 42
0.010745
  0
VERTEX
  8
0
 10
842.142432
 20
76.573426
 42
0.012017
  0
VERTEX
  8
0
 10
840.923939
 20
76.103842
 42
0.009990
  0
VERTEX
  8
0
 10
839.651129
 20
75.547833
 42
-0.019848
  0
VERTEX
  8
0
 10
835.720069
 20
73.922101
 42
-0.003232
  0
VERTEX
  8
0
 10
827.954344
 20
71.122651
 42
-0.003833
  0
VERTEX
  8
0
 10
819.816129
 20
68.318204
 42
-0.008264
  0
VERTEX
  8
0
 10
813.500000
 20
66.311227
 42
0.000218
  0
VERTEX
  8
0
 10
811.258585
 20
65.638520
 42
0.000138
  0
VERTEX
  8
0
 10
808.646875
 20
64.852647
 42
0.000139
  0
VERTEX
  8
0
 10
806.082633
 20
64.079507
 42
0.000257
  0
VERTEX
  8
0
 10
804.000000
 20
63.449777
 42
-0.009708
  0
VERTEX
  8
0
 10
789.586161
 20
59.387128
 42
-0.005572
  0
VERTEX
  8
0
 10
772.064226
 20
55.021660
 42
-0.005557
  0
VERTEX
  8
0
 10
754.275812
 20
51.008049
 42
-0.008902
  0
VERTEX
  8
0
 10
739.000000
 20
48.022686
 42
0.000643
  0
VERTEX
  8
0
 10
734.230471
 20
47.172106
 42
0.000622
  0
VERTEX
  8
0
 10
729.409375
 20
46.299744
 42
0.000614
  0
VERTEX
  8
0
 10
725.167304
 20
45.521328
 42
0.002286
  0
VERTEX
  8
0
 10
722.500000
 20
45.015875
 42
-0.008512
  0
VERTEX
  8
0
 10
719.972969
 20
44.569526
 42
-0.003025
  0
VERTEX
  8
0
 10
716.346596
 20
44.014952
 42
-0.003001
  0
VERTEX
  8
0
 10
712.357652
 20
43.454047
 42
-0.003533
  0
VERTEX
  8
0
 10
708.573517
 20
42.972284
 42
0.002822
  0
VERTEX
  8
0
 10
705.111127
 20
42.536486
 42
0.004259
  0
VERTEX
  8
0
 10
702.100718
 20
42.114187
 42
0.001741
  0
VERTEX
  8
0
 10
699.530219
 20
41.722094
 42
0.096290
  0
VERTEX
  8
0
 10
699.073517
 20
41.557020
 42
-0.105427
  0
VERTEX
  8
0
 10
698.599874
 20
41.395447
 42
-0.000949
  0
VERTEX
  8
0
 10
694.849721
 20
40.955532
 42
-0.003205
  0
VERTEX
  8
0
 10
690.524228
 20
40.484521
 42
-0.002058
  0
VERTEX
  8
0
 10
685.500000
 20
39.990879
 42
0.000374
  0
VERTEX
  8
0
 10
680.229601
 20
39.490965
 42
0.000416
  0
VERTEX
  8
0
 10
675.143750
 20
39.000440
 42
0.000384
  0
VERTEX
  8
0
 10
670.807192
 20
38.575173
 42
0.002182
  0
VERTEX
  8
0
 10
668.500000
 20
38.336956
 42
-0.024659
  0
VERTEX
  8
0
 10
653.046877
 20
37.440572
 42
-0.000610
  0
VERTEX
  8
0
 10
582.144159
 20
36.914858
 42
-0.001500
  0
VERTEX
  8
0
 10
512.129460
 20
36.691183
 42
-0.003370
  0
VERTEX
  8
0
 10
459.000000
 20
37.038995
 42
-0.000510
  0
VERTEX
  8
0
 10
432.472767
 20
37.418521
 42
-0.000783
  0
VERTEX
  8
0
 10
409.510648
 20
37.806440
 42
-0.000248
  0
VERTEX
  8
0
 10
389.605427
 20
38.183783
 42
-0.023061
  0
VERTEX
  8
0
 10
386.717099
 20
38.373427
 42
0.003784
  0
VERTEX
  8
0
 10
384.724345
 20
38.581648
 42
0.001083
  0
VERTEX
  8
0
 10
381.631652
 20
38.874400
 42
0.001090
  0
VERTEX
  8
0
 10
378.140504
 20
39.189574
 42
0.001157
  0
VERTEX
  8
0
 10
374.717099
 20
39.483131
 42
-0.016173
  0
VERTEX
  8
0
 10
349.918482
 20
42.361939
 42
-0.008283
  0
VERTEX
  8
0
 10
319.022835
 20
47.489941
 42
-0.008284
  0
VERTEX
  8
0
 10
288.181344
 20
53.665172
 42
-0.015510
  0
VERTEX
  8
0
 10
263.500000
 20
59.841239
 42
0.000408
  0
VERTEX
  8
0
 10
260.418511
 20
60.712006
 42
0.000284
  0
VERTEX
  8
0
 10
256.940625
 20
61.689590
 42
0.000287
  0
VERTEX
  8
0
 10
253.604382
 20
62.623249
 42
0.000596
  0
VERTEX
  8
0
 10
251.000000
 20
63.347140
 42
-0.012467
  0
VERTEX
  8
0
 10
245.462983
 20
65.028739
 42
-0.001540
  0
VERTEX
  8
0
 10
233.496719
 20
69.032275
 42
-0.001961
  0
VERTEX
  8
0
 10
221.261055
 20
73.221435
 42
-0.005107
  0
VERTEX
  8
0
 10
212.500000
 20
76.360022
 42
-0.017100
  0
VERTEX
  8
0
 10
196.937597
 20
82.728108
 42
-0.008862
  0
VERTEX
  8
0
 10
177.934128
 20
91.682233
 42
-0.008860
  0
VERTEX
  8
0
 10
159.134023
 20
101.369000
 42
-0.016039
  0
VERTEX
  8
0
 10
144.162029
 20
110.052473
 42
-0.014378
  0
VERTEX
  8
0
 10
131.885574
 20
118.208376
 42
-0.011732
  0
VERTEX
  8
0
 10
119.219606
 20
127.611517
 42
-0.011764
  0
VERTEX
  8
0
 10
107.053537
 20
137.563060
 42
-0.014776
  0
VERTEX
  8
0
 10
96.284692
 20
147.369992
 42
-0.003457
  0
VERTEX
  8
0
 10
91.575701
 20
151.983392
 42
-0.005462
  0
VERTEX
  8
0
 10
87.608628
 20
156.011091
 42
-0.001650
  0
VERTEX
  8
0
 10
84.231387
 20
159.538928
 42
-0.192396
  0
VERTEX
  8
0
 10
84.000000
 20
160.118000
 42
-0.128242
  0
VERTEX
  8
0
 10
84.164570
 20
160.749085
 42
-0.001068
  0
VERTEX
  8
0
 10
86.678141
 20
165.218372
 42
-0.003709
  0
VERTEX
  8
0
 10
89.622476
 20
170.338463
 42
-0.002370
  0
VERTEX
  8
0
 10
93.117077
 20
176.248008
 42
0.024737
  0
VERTEX
  8
0
 10
117.632270
 20
222.285772
 42
0.022829
  0
VERTEX
  8
0
 10
138.208846
 20
271.752338
 42
0.022203
  0
VERTEX
  8
0
 10
154.698009
 20
324.284424
 42
0.020481
  0
VERTEX
  8
0
 10
166.975394
 20
379.500000
 42
0.006585
  0
VERTEX
  8
0
 10
168.511949
 20
388.746666
 42
0.003336
  0
VERTEX
  8
0
 10
170.215219
 20
400.425034
 42
0.002019
  0
VERTEX
  8
0
 10
171.744796
 20
411.761376
 42
0.032342
  0
VERTEX
  8
0
 10
171.997637
 20
415.620834
 42
0.043991
  0
VERTEX
  8
0
 10
171.831703
 20
417.519634
 42
0.208364
  0
VERTEX
  8
0
 10
171.241596
 20
418.408760
 42
0.109585
  0
VERTEX
  8
0
 10
169.944081
 20
418.890800
 42
0.008540
  0
VERTEX
  8
0
 10
166.250000
 20
419.337458
 42
0.005949
  0
VERTEX
  8
0
 10
163.260748
 20
419.611286
 42
0.001821
  0
VERTEX
  8
0
 10
158.737500
 20
419.954846
 42
0.001823
  0
VERTEX
  8
0
 10
153.670264
 20
420.302602
 42
0.001994
  0
VERTEX
  8
0
 10
148.750000
 20
420.602560
 42
0.004067
  0
VERTEX
  8
0
 10
142.465562
 20
420.909272
 42
0.025285
  0
VERTEX
  8
0
 10
139.240078
 20
420.877250
 42
0.053948
  0
VERTEX
  8
0
 10
137.472502
 20
420.576967
 42
0.318859
  0
VERTEX
  8
0
 10
136.916667
 20
419.885936
 42
-0.006689
  0
VERTEX
  8
0
 10
136.867276
 20
419.214557
 42
-0.002871
  0
VERTEX
  8
0
 10
136.784207
 20
418.319619
 42
-0.002840
  0
VERTEX
  8
0
 10
136.684813
 20
417.367138
 42
-0.003745
  0
VERTEX
  8
0
 10
136.582763
 20
416.500000
 42
0.000860
  0
VERTEX
  8
0
 10
136.442833
 20
415.367325
 42
0.000167
  0
VERTEX
  8
0
 10
136.194783
 20
413.325000
 42
0.000178
  0
VERTEX
  8
0
 10
135.907240
 20
410.943766
 42
0.000165
  0
VERTEX
  8
0
 10
135.613844
 20
408.500000
 42
-0.009979
  0
VERTEX
  8
0
 10
134.560796
 20
400.979222
 42
-0.003675
  0
VERTEX
  8
0
 10
132.785613
 20
390.411001
 42
-0.003730
  0
VERTEX
  8
0
 10
130.760125
 20
379.357249
 42
-0.006054
  0
VERTEX
  8
0
 10
128.855551
 20
370.000000
 42
0.000024
  0
VERTEX
  8
0
 10
127.969619
 20
365.900936
 42
0.000019
  0
VERTEX
  8
0
 10
127.005302
 20
361.437329
 42
0.000019
  0
VERTEX
  8
0
 10
126.105791
 20
357.272165
 42
0.000046
  0
VERTEX
  8
0
 10
125.440780
 20
354.190907
 42
-0.014703
  0
VERTEX
  8
0
 10
119.780217
 20
331.246375
 42
-0.010213
  0
VERTEX
  8
0
 10
112.101014
 20
305.672137
 42
-0.010049
  0
VERTEX
  8
0
 10
103.181720
 20
279.820325
 42
-0.012222
  0
VERTEX
  8
0
 10
93.756742
 20
256.000000
 42
-0.011510
  0
VERTEX
  8
0
 10
85.049422
 20
236.721299
 42
-0.008027
  0
VERTEX
  8
0
 10
74.382238
 20
215.368525
 42
-0.002093
  0
VERTEX
  8
0
 10
63.386898
 20
194.429874
 42
-0.277584
  0
VERTEX
  8
0
 10
61.009784
 20
193.000000
 42
-0.288035
  0
VERTEX
  8
0
 10
59.700904
 20
193.822222
 42
-0.003601
  0
VERTEX
  8
0
 10
55.294267
 20
203.138495
 42
-0.010781
  0
VERTEX
  8
0
 10
51.110766
 20
212.683989
 42
-0.017385
  0
VERTEX
  8
0
 10
48.011607
 20
221.000000
 42
-0.013216
  0
VERTEX
  8
0
 10
45.376184
 20
229.656402
 42
-0.012649
  0
VERTEX
  8
0
 10
43.159680
 20
238.566869
 42
-0.011308
  0
VERTEX
  8
0
 10
41.197097
 20
248.457029
 42
-0.007071
  0
VERTEX
  8
0
 10
39.326218
 20
260.114070
 42
-0.026507
  0
VERTEX
  8
0
 10
37.845227
 20
276.167786
 42
-0.009662
  0
VERTEX
  8
0
 10
37.396021
 20
299.005718
 42
-0.009464
  0
VERTEX
  8
0
 10
37.816319
 20
321.618734
 42
-0.030939
  0
VERTEX
  8
0
 10
39.299959
 20
336.500000
 42
-0.027911
  0
VERTEX
  8
0
 10
45.749288
 20
365.747512
 42
-0.034320
  0
VERTEX
  8
0
 10
55.107516
 20
392.080758
 42
-0.035885
  0
VERTEX
  8
0
 10
67.554705
 20
415.884240
 42
-0.036301
  0
VERTEX
  8
0
 10
83.235144
 20
437.566574
 42
-0.006536
  0
VERTEX
  8
0
 10
88.035950
 20
443.132089
 42
-0.014436
  0
VERTEX
  8
0
 10
91.875535
 20
447.223092
 42
-0.014330
  0
VERTEX
  8
0
 10
95.962245
 20
451.103891
 42
-0.006348
  0
VERTEX
  8
0
 10
101.564862
 20
456.000000
 42
-0.028627
  0
VERTEX
  8
0
 10
119.056341
 20
469.249430
 42
-0.011844
  0
VERTEX
  8
0
 10
144.098409
 20
485.206972
 42
-0.009769
  0
VERTEX
  8
0
 10
176.273605
 20
503.805747
 42
-0.005301
  0
VERTEX
  8
0
 10
216.500000
 20
525.468224
 42
0.000199
  0
VERTEX
  8
0
 10
221.990421
 20
528.353013
 42
0.000173
  0
VERTEX
  8
0
 10
227.737500
 20
531.378122
 42
0.000174
  0
VERTEX
  8
0
 10
232.934284
 20
534.118191
 42
0.000516
  0
VERTEX
  8
0
 10
236.500000
 20
536.004558
 42
-0.001671
  0
VERTEX
  8
0
 10
240.329388
 20
538.019106
 42
-0.000396
  0
VERTEX
  8
0
 10
246.731250
 20
541.353260
 42
-0.000407
  0
VERTEX
  8
0
 10
254.095312
 20
545.173520
 42
-0.000401
  0
VERTEX
  8
0
 10
261.500000
 20
548.999671
 42
0.002861
  0
VERTEX
  8
0
 10
292.134622
 20
565.020617
 42
0.014424
  0
VERTEX
  8
0
 10
308.930361
 20
574.557548
 42
0.025987
  0
VERTEX
  8
0
 10
319.514197
 20
581.755362
 42
0.051602
  0
VERTEX
  8
0
 10
326.912624
 20
588.679630
 42
0.045068
  0
VERTEX
  8
0
 10
330.980944
 20
594.314840
 42
0.019837
  0
VERTEX
  8
0
 10
335.357894
 20
602.412028
 42
0.019641
  0
VERTEX
  8
0
 10
339.287477
 20
611.292084
 42
0.027706
  0
VERTEX
  8
0
 10
342.025168
 20
619.500000
 42
0.036994
  0
VERTEX
  8
0
 10
343.745233
 20
628.320708
 42
0.028918
  0
VERTEX
  8
0
 10
344.338409
 20
638.063098
 42
0.029393
  0
VERTEX
  8
0
 10
343.807569
 20
647.570212
 42
0.044788
  0
VERTEX
  8
0
 10
342.133299
 20
655.660674
 42
0.040205
  0
VERTEX
  8
0
 10
339.459863
 20
662.473524
 42
0.040646
  0
VERTEX
  8
0
 10
335.738634
 20
668.744420
 42
0.028673
  0
VERTEX
  8
0
 10
329.998225
 20
675.928777
 42
0.008935
  0
VERTEX
  8
0
 10
320.591518
 20
686.039550
 42
-0.025913
  0
VERTEX
  8
0
 10
295.577366
 20
714.826019
 42
-0.036974
  0
VERTEX
  8
0
 10
276.757641
 20
742.954001
 42
-0.040478
  0
VERTEX
  8
0
 10
263.558020
 20
771.371083
 42
-0.042904
  0
VERTEX
  8
0
 10
255.416121
 20
801.000000
 42
0.001405
  0
VERTEX
  8
0
 10
254.847171
 20
804.036388
 42
0.001572
  0
VERTEX
  8
0
 10
254.281743
 20
806.957813
 42
0.001444
  0
VERTEX
  8
0
 10
253.785098
 20
809.443402
 42
0.008372
  0
VERTEX
  8
0
 10
253.497242
 20
810.750000
 42
-0.138638
  0
VERTEX
  8
0
 10
253.566211
 20
812.393813
 42
-0.392796
  0
VERTEX
  8
0
 10
254.484319
 20
812.901093
 42
-0.117335
  0
VERTEX
  8
0
 10
256.369723
 20
811.925797
 42
-0.025173
  0
SEQEND
  0
POLYLINE
  8
0
 66
1
 70
1
  0
VERTEX
  8
0
 10
364.698480
 20
923.904472
 42
0.059366
  0
VERTEX
  8
0
 10
356.112946
 20
920.773223
 42
0.053661
  0
VERTEX
  8
0
 10
348.180911
 20
915.626902
 42
0.053473
  0
VERTEX
  8
0
 10
341.500177
 20
908.889845
 42
0.058024
  0
VERTEX
  8
0
 10
336.609367
 20
901.061748
 42
0.018442
  0
VERTEX
  8
0
 10
334.833592
 20
896.926822
 42
0.048545
  0
VERTEX
  8
0
 10
333.968767
 20
893.823072
 42
0.036648
  0
VERTEX
  8
0
 10
333.594477
 20
890.147013
 42
0.007051
  0
VERTEX
  8
0
 10
333.500000
 20
883.448137
 42
0.007013
  0
VERTEX
  8
0
 10
333.598196
 20
876.447422
 42
0.042818
  0
VERTEX
  8
0
 10
334.007992
 20
872.856690
 42
0.051883
  0
VERTEX
  8
0
 10
335.000380
 20
869.681099
 42
0.013115
  0
VERTEX
  8
0
 10
337.272343
 20
864.763457
 42
0.037060
  0
VERTEX
  8
0
 10
340.882208
 20
858.646024
 42
0.048381
  0
VERTEX
  8
0
 10
345.085099
 20
853.695251
 42
0.046748
  0
VERTEX
  8
0
 10
350.280917
 20
849.520963
 42
0.031488
  0
VERTEX
  8
0
 10
356.886900
 20
845.734915
 42
0.017594
  0
VERTEX
  8
0
 10
361.027507
 20
843.874484
 42
0.050192
  0
VERTEX
  8
0
 10
364.054051
 20
842.981866
 42
0.039097
  0
VERTEX
  8
0
 10
367.590282
 20
842.597228
 42
0.007548
  0
VERTEX
  8
0
 10
374.030835
 20
842.500000
 42
0.007738
  0
VERTEX
  8
0
 10
380.669403
 20
842.602738
 42
0.043319
  0
VERTEX
  8
0
 10
384.196564
 20
843.019218
 42
0.050757
  0
VERTEX
  8
0
 10
387.355266
 20
844.015545
 42
0.013012
  0
VERTEX
  8
0
 10
392.223475
 20
846.265884
 42
0.057080
  0
VERTEX
  8
0
 10
400.743897
 20
851.763987
 42
0.061685
  0
VERTEX
  8
0
 10
407.552838
 20
858.920810
 42
0.061390
  0
VERTEX
  8
0
 10
412.435054
 20
867.554484
 42
0.055653
  0
VERTEX
  8
0
 10
415.276556
 20
877.405034
 42
0.078548
  0
VERTEX
  8
0
 10
415.423330
 20
888.806882
 42
0.069812
  0
VERTEX
  8
0
 10
412.105707
 20
900.202571
 42
0.069308
  0
VERTEX
  8
0
 10
405.748016
 20
910.318729
 42
0.075341
  0
VERTEX
  8
0
 10
397.023225
 20
917.985097
 42
0.050135
  0
VERTEX
  8
0
 10
389.492964
 20
921.813344
 42
0.047292
  0
VERTEX
  8
0
 10
381.203299
 20
924.157898
 42
0.047962
  0
VERTEX
  8
0
 10
372.740784
 20
924.881204
 42
0.055191
  0
SEQEND
  0
POLYLINE
  8
0
 66
1
 70
1
  0
VERTEX
  8
0
 10
669.892472
 20
923.550537
 42
0.060844
  0
VERTEX
  8
0
 10
661.211199
 20
919.975739
 42
0.050324
  0
VERTEX
  8
0
 10
653.022878
 20
914.219493
 42
0.051038
  0
VERTEX
  8
0
 10
646.269214
 20
907.049689
 42
0.068068
  0
VERTEX
  8
0
 10
641.847871
 20
899.284580
 42
0.025034
  0
VERTEX
  8
0
 10
640.671417
 20
895.868016
 42
0.033894
  0
VERTEX
  8
0
 10
639.978825
 20
892.678129
 42
0.026913
  0
VERTEX
  8
0
 10
639.630033
 20
888.906964
 42
0.009604
  0
VERTEX
  8
0
 10
639.526168
 20
883.500000
 42
0.030365
  0
VERTEX
  8
0
 10
640.090555
 20
874.215316
 42
0.066649
  0
VERTEX
  8
0
 10
641.878995
 20
867.341144
 42
0.067580
  0
VERTEX
  8
0
 10
645.394214
 20
861.238272
 42
0.031976
  0
VERTEX
  8
0
 10
651.405115
 20
854.405115
 42
0.032825
  0
VERTEX
  8
0
 10
657.378334
 20
849.168604
 42
0.053242
  0
VERTEX
  8
0
 10
663.136438
 20
845.655990
 42
0.054155
  0
VERTEX
  8
0
 10
669.434389
 20
843.476435
 42
0.035347
  0
VERTEX
  8
0
 10
677.040333
 20
842.293399
 42
0.072285
  0
VERTEX
  8
0
 10
689.600233
 20
843.056437
 42
0.079806
  0
VERTEX
  8
0
 10
700.968573
 20
847.391008
 42
0.078878
  0
VERTEX
  8
0
 10
710.509718
 20
855.121934
 42
0.068472
  0
VERTEX
  8
0
 10
717.738760
 20
865.787591
 42
0.012879
  0
VERTEX
  8
0
 10
719.970565
 20
870.613423
 42
0.049803
  0
VERTEX
  8
0
 10
720.969050
 20
873.753231
 42
0.043900
  0
VERTEX
  8
0
 10
721.388652
 20
877.214868
 42
0.008494
  0
VERTEX
  8
0
 10
721.488946
 20
883.524034
 42
0.008542
  0
VERTEX
  8
0
 10
721.374525
 20
889.818594
 42
0.043559
  0
VERTEX
  8
0
 10
720.947692
 20
893.290575
 42
0.049453
  0
VERTEX
  8
0
 10
719.945726
 20
896.437894
 42
0.012996
  0
VERTEX
  8
0
 10
717.723061
 20
901.245842
 42
0.083508
  0
VERTEX
  8
0
 10
709.258211
 20
912.962367
 42
0.085752
  0
VERTEX
  8
0
 10
697.496388
 20
921.138064
 42
0.087084
  0
VERTEX
  8
0
 10
683.836368
 20
924.810254
 42
0.089733
  0
SEQEND
  0
POLYLINE
  8
0
 66
1
 70
1
  0
VERTEX
  8
0
 10
519.000000
 20
790.025718
 42
0.033190
  0
VERTEX
  8
0
 10
508.576211
 20
787.356843
 42
0.035896
  0
VERTEX
  8
0
 10
498.876924
 20
783.383861
 42
0.031653
  0
VERTEX
  8
0
 10
488.882342
 20
777.610626
 42
0.017830
  0
VERTEX
  8
0
 10
477.500000
 20
769.437259
 42
-0.020300
  0
VERTEX
  8
0
 10
473.147596
 20
766.344373
 42
-0.020224
  0
VERTEX
  8
0
 10
468.553355
 20
763.610530
 42
-0.020713
  0
VERTEX
  8
0
 10
463.872634
 20
761.321034
 42
-0.024359
  0
VERTEX
  8
0
 10
459.261606
 20
759.560173
 42
-0.071346
  0
VERTEX
  8
0
 10
451.459476
 20
758.191695
 42
-0.037726
  0
VERTEX
  8
0
 10
441.623103
 20
758.627086
 42
-0.034733
  0
VERTEX
  8
0
 10
430.851507
 20
760.688497
 42
-0.031981
  0
VERTEX
  8
0
 10
420.158398
 20
764.261370
 42
0.000000
  0
VERTEX
  8
0
 10
413.816796
 20
766.841516
 42
0.000000
  0
VERTEX
  8
0
 10
411.328678
 20
761.170758
 42
-0.000300
  0
VERTEX
  8
0
 10
409.437361
 20
756.867215
 42
-0.000911
  0
VERTEX
  8
0
 10
408.143783
 20
753.943039
 42
-0.000645
  0
VERTEX
  8
0
 10
406.627053
 20
750.543065
 42
-0.000094
  0
VERTEX
  8
0
 10
403.528704
 20
743.625156
 42
0.003049
  0
VERTEX
  8
0
 10
402.176465
 20
740.557441
 42
0.004567
  0
VERTEX
  8
0
 10
401.036557
 20
737.860877
 42
0.001983
  0
VERTEX
  8
0
 10
400.094647
 20
735.548708
 42
0.096013
  0
VERTEX
  8
0
 10
400.000000
 20
735.060369
 42
0.274582
  0
VERTEX
  8
0
 10
400.455315
 20
734.293774
 42
0.010638
  0
VERTEX
  8
0
 10
403.499438
 20
732.718202
 42
0.016518
  0
VERTEX
  8
0
 10
406.560718
 20
731.338970
 42
0.096600
  0
VERTEX
  8
0
 10
408.283927
 20
730.993839
 42
-0.067010
  0
VERTEX
  8
0
 10
408.919931
 20
730.904935
 42
-0.017515
  0
VERTEX
  8
0
 10
409.904482
 20
730.592015
 42
-0.017476
  0
VERTEX
  8
0
 10
411.011069
 20
730.152968
 42
-0.017076
  0
VERTEX
  8
0
 10
412.093035
 20
729.634577
 42
0.029205
  0
VERTEX
  8
0
 10
413.362896
 20
729.063589
 42
0.013501
  0
VERTEX
  8
0
 10
415.072036
 20
728.464446
 42
0.013321
  0
VERTEX
  8
0
 10
416.907466
 20
727.929645
 42
0.018031
  0
VERTEX
  8
0
 10
418.593035
 20
727.551252
 42
-0.013702
  0
VERTEX
  8
0
 10
420.162125
 20
727.213244
 42
-0.015512
  0
VERTEX
  8
0
 10
421.646079
 20
726.801594
 42
-0.014842
  0
VERTEX
  8
0
 10
422.879177
 20
726.377437
 42
-0.078045
  0
VERTEX
  8
0
 10
423.500000
 20
726.024648
 42
0.128235
  0
VERTEX
  8
0
 10
425.713768
 20
725.042800
 42
0.006280
  0
VERTEX
  8
0
 10
433.701865
 20
723.837054
 42
0.011190
  0
VERTEX
  8
0
 10
441.941267
 20
722.886385
 42
0.022276
  0
VERTEX
  8
0
 10
448.500000
 20
722.571657
 42
0.024257
  0
VERTEX
  8
0
 10
454.706210
 20
722.851754
 42
0.015957
  0
VERTEX
  8
0
 10
461.801002
 20
723.746979
 42
0.010687
  0
VERTEX
  8
0
 10
468.344061
 20
724.929519
 42
0.146545
  0
VERTEX
  8
0
 10
470.450000
 20
726.056034
 42
-0.069023
  0
VERTEX
  8
0
 10
470.931513
 20
726.417833
 42
-0.038783
  0
VERTEX
  8
0
 10
471.597988
 20
726.722710
 42
-0.037871
  0
VERTEX
  8
0
 10
472.332521
 20
726.930589
 42
-0.050064
  0
VERTEX
  8
0
 10
473.024003
 20
727.000000
 42
0.121518
  0
VERTEX
  8
0
 10
476.946680
 20
727.967644
 42
0.010409
  0
VERTEX
  8
0
 10
486.072758
 20
733.006922
 42
0.014731
  0
VERTEX
  8
0
 10
495.697034
 20
738.971308
 42
0.021191
  0
VERTEX
  8
0
 10
503.815693
 20
744.848963
 42
-0.027399
  0
VERTEX
  8
0
 10
507.768585
 20
747.636633
 42
-0.015251
  0
VERTEX
  8
0
 10
512.858905
 20
750.611884
 42
-0.014848
  0
VERTEX
  8
0
 10
517.894652
 20
753.161930
 42
-0.045029
  0
VERTEX
  8
0
 10
521.500000
 20
754.474129
 42
-0.039690
  0
VERTEX
  8
0
 10
524.930789
 20
755.097436
 42
-0.019770
  0
VERTEX
  8
0
 10
529.342055
 20
755.366178
 42
-0.011683
  0
VERTEX
  8
0
 10
533.601860
 20
755.357431
 42
-0.253160
  0
VERTEX
  8
0
 10
534.651752
 20
754.754461
 42
0.113979
  0
VERTEX
  8
0
 10
534.938419
 20
754.465002
 42
0.049721
  0
VERTEX
  8
0
 10
535.424863
 20
754.221623
 42
0.045688
  0
VERTEX
  8
0
 10
536.016332
 20
754.055868
 42
0.045512
  0
VERTEX
  8
0
 10
536.628842
 20
754.000000
 42
-0.137305
  0
VERTEX
  8
0
 10
538.693297
 20
753.422185
 42
-0.015823
  0
VERTEX
  8
0
 10
542.768788
 20
750.766867
 42
-0.017193
  0
VERTEX
  8
0
 10
547.691101
 20
747.075304
 42
-0.010728
  0
VERTEX
  8
0
 10
553.208926
 20
742.434153
 42
0.022640
  0
VERTEX
  8
0
 10
558.220551
 20
738.418625
 42
0.009344
  0
VERTEX
  8
0
 10
565.341400
 20
733.425407
 42
0.004252
  0
VERTEX
  8
0
 10
572.660530
 20
728.584544
 42
0.144963
  0
VERTEX
  8
0
 10
574.634340
 20
728.000000
 42
-0.088005
  0
VERTEX
  8
0
 10
574.994093
 20
727.936186
 42
-0.006131
  0
VERTEX
  8
0
 10
575.957887
 20
727.569691
 42
-0.008552
  0
VERTEX
  8
0
 10
577.100823
 20
727.096212
 42
-0.006327
  0
VERTEX
  8
0
 10
578.348871
 20
726.535119
 42
0.038791
  0
VERTEX
  8
0
 10
583.435804
 20
724.634241
 42
0.035330
  0
VERTEX
  8
0
 10
588.916521
 20
723.469290
 42
0.025665
  0
VERTEX
  8
0
 10
595.904548
 20
722.856362
 42
0.008961
  0
VERTEX
  8
0
 10
606.000000
 20
722.672132
 42
0.010010
  0
VERTEX
  8
0
 10
616.309328
 20
722.875192
 42
0.023219
  0
VERTEX
  8
0
 10
624.014396
 20
723.540579
 42
0.023914
  0
VERTEX
  8
0
 10
631.487238
 20
724.903435
 42
0.011247
  0
VERTEX
  8
0
 10
641.000000
 20
727.339573
 42
0.002296
  0
VERTEX
  8
0
 10
650.145887
 20
729.947637
 42
0.036328
  0
VERTEX
  8
0
 10
653.178223
 20
731.071761
 42
0.132392
  0
VERTEX
  8
0
 10
654.506227
 20
732.169787
 42
0.155398
  0
VERTEX
  8
0
 10
655.000000
 20
733.720161
 42
0.035074
  0
VERTEX
  8
0
 10
654.929052
 20
734.730331
 42
0.024051
  0
VERTEX
  8
0
 10
654.713839
 20
735.859540
 42
0.024314
  0
VERTEX
  8
0
 10
654.399480
 20
736.932369
 42
0.044430
  0
VERTEX
  8
0
 10
654.025834
 20
737.763569
 42
-0.035404
  0
VERTEX
  8
0
 10
653.508495
 20
738.861091
 42
-0.004364
  0
VERTEX
  8
0
 10
652.572697
 20
741.339923
 42
-0.005141
  0
VERTEX
  8
0
 10
651.515635
 20
744.309642
 42
-0.004229
  0
VERTEX
  8
0
 10
650.446964
 20
747.500000
 42
0.003973
  0
VERTEX
  8
0
 10
649.345485
 20
750.793911
 42
0.003952
  0
VERTEX
  8
0
 10
648.189935
 20
754.075644
 42
0.003874
  0
VERTEX
  8
0
 10
647.135102
 20
756.928026
 42
0.015431
  0
VERTEX
  8
0
 10
646.421130
 20
758.651129
 42
-0.017658
  0
VERTEX
  8
0
 10
645.877143
 20
759.980701
 42
-0.016718
  0
VERTEX
  8
0
 10
645.417457
 20
761.369622
 42
-0.016942
  0
VERTEX
  8
0
 10
645.093807
 20
762.625057
 42
-0.054661
  0
VERTEX
  8
0
 10
645.000000
 20
763.480584
 42
0.102754
  0
VERTEX
  8
0
 10
644.832750
 20
764.285831
 42
0.220313
  0
VERTEX
  8
0
 10
644.369402
 20
764.698427
 42
0.108628
  0
VERTEX
  8
0
 10
643.471670
 20
764.768068
 42
0.017918
  0
VERTEX
  8
0
 10
641.750000
 20
764.463983
 42
0.014710
  0
VERTEX
  8
0
 10
640.432437
 20
764.141454
 42
0.015563
  0
VERTEX
  8
0
 10
639.160937
 20
763.747278
 42
0.015345
  0
VERTEX
  8
0
 10
638.089915
 20
763.341173
 42
0.065713
  0
VERTEX
  8
0
 10
637.500000
 20
762.999994
 42
-0.085497
  0
VERTEX
  8
0
 10
636.480160
 20
762.462544
 42
-0.012895
  0
VERTEX
  8
0
 10
634.258069
 20
761.802729
 42
-0.008844
  0
VERTEX
  8
0
 10
630.727754
 20
760.919444
 42
-0.001842
  0
VERTEX
  8
0
 10
624.500000
 20
759.501954
 42
-0.011909
  0
VERTEX
  8
0
 10
618.184028
 20
758.245987
 42
-0.018723
  0
VERTEX
  8
0
 10
612.703072
 20
757.501324
 42
-0.020641
  0
VERTEX
  8
0
 10
607.604083
 20
757.213849
 42
-0.020184
  0
VERTEX
  8
0
 10
602.460349
 20
757.344119
 42
-0.045444
  0
VERTEX
  8
0
 10
595.064756
 20
758.511139
 42
-0.056011
  0
VERTEX
  8
0
 10
588.532094
 20
760.964383
 42
-0.041739
  0
VERTEX
  8
0
 10
581.365925
 20
765.403229
 42
-0.013796
  0
VERTEX
  8
0
 10
571.621483
 20
773.053662
 42
0.008889
  0
VERTEX
  8
0
 10
563.857307
 20
779.273473
 42
0.027721
  0
VERTEX
  8
0
 10
558.339090
 20
783.066533
 42
0.035025
  0
VERTEX
  8
0
 10
553.179012
 20
785.731641
 42
0.022386
  0
VERTEX
  8
0
 10
546.864216
 20
788.122710
 42
0.043522
  0
VERTEX
  8
0
 10
540.989003
 20
789.499653
 42
0.018760
  0
VERTEX
  8
0
 10
532.983068
 20
790.349092
 42
0.018740
  0
VERTEX
  8
0
 10
524.950346
 20
790.595886
 42
0.044413
  0
SEQEND
  0
ENDSEC
  0
EOF
