<?xml version="1.0" encoding="UTF-8" standalone="no"?>
<!-- Created with Inkscape (http://www.inkscape.org/) -->

<svg
   version="1.1"
   id="svg2"
   width="337.60001"
   height="377.92001"
   viewBox="0 0 337.60001 377.92001"
   sodipodi:docname="v2-duck-10cm-lines-noarms.svg"
   inkscape:version="1.2.2 (732a01da63, 2022-12-09)"
   xmlns:inkscape="http://www.inkscape.org/namespaces/inkscape"
   xmlns:sodipodi="http://sodipodi.sourceforge.net/DTD/sodipodi-0.dtd"
   xmlns="http://www.w3.org/2000/svg"
   xmlns:svg="http://www.w3.org/2000/svg">
  <defs
     id="defs6" />
  <sodipodi:namedview
     id="namedview4"
     pagecolor="#ffffff"
     bordercolor="#000000"
     borderopacity="0.25"
     inkscape:showpageshadow="2"
     inkscape:pageopacity="0.0"
     inkscape:pagecheckerboard="0"
     inkscape:deskcolor="#d1d1d1"
     showgrid="false"
     inkscape:zoom="2.7175063"
     inkscape:cx="304.13913"
     inkscape:cy="178.47245"
     inkscape:window-width="2560"
     inkscape:window-height="1369"
     inkscape:window-x="1072"
     inkscape:window-y="237"
     inkscape:window-maximized="1"
     inkscape:current-layer="svg2" />
  <g
     inkscape:groupmode="layer"
     inkscape:label="Image"
     id="g8">
    <path
       style="fill:#000000;stroke-width:0.32"
       d="m 122.08,377.75453 c -7.22894,-0.50506 -19.2337,-2.11383 -25.599994,-3.43066 -11.32269,-2.34205 -10.96556,-2.25792 -19.04,-4.48422 -7.8945,-2.17671 -17.38467,-5.8345 -25.44,-9.80538 -6.52265,-3.21533 -7.38674,-3.67657 -11.04,-5.89334 -9.55763,-5.79946 -18.90278,-13.9304 -25.460885,-22.1528 C 8.3307646,323.00061 3.3618796,312.10248 1.5929226,301.488 c -0.190654,-1.144 -0.491013,-2.872 -0.66746398,-3.84 -0.176452,-0.968 -0.396376,-6.728 -0.488721,-12.8 -0.172657,-11.35291 0.02321,-14.57643 1.28326298,-21.12 1.752307,-9.09987 5.921636,-19.22192 11.1026574,-26.95439 5.226928,-7.80098 11.410538,-13.7896 20.460538,-19.81534 2.04096,-1.35893 11.84007,-7.31027 12.03664,-7.31027 0.0731,0 0.67002,-0.33797 1.32652,-0.75104 2.72322,-1.71343 17.2339,-9.50027 28.66331,-15.38152 7.81819,-4.02301 13.51837,-7.03666 14.68398,-7.76331 0.6565,-0.40927 1.2657,-0.74414 1.35378,-0.74414 0.52056,0 3.78546,-2.40448 4.45265,-3.27921 1.8627,-2.44211 2.96541,-6.68596 2.40057,-9.2387 -0.25486,-1.15186 -0.83988,-1.94463 -3.27799,-4.44209 -11.94613,-12.23691 -19.597,-24.52883 -23.40343,-37.6 -2.3679,-8.13128 -3.4138,-18.93707 -2.73324,-28.23859 0.54428,-7.438914 0.53341,-8.904514 -0.0943,-12.721413 -0.28945,-1.76 -0.76095,-5.36 -1.04779,-8 -0.35182,-3.238054 -0.68124,-4.982227 -1.01231,-5.36 -0.38202,-0.435904 -1.00064,-0.56 -2.79159,-0.56 -3.23969,0 -3.40482,-0.229453 -3.7503,-5.211059 -0.29032,-4.18625 -0.0291,-14.325828 0.39801,-15.449214 0.35549,-0.935027 1.45111,-1.2892 5.91229,-1.911238 2.112,-0.29448 5.136,-0.722202 6.72,-0.95049 1.584,-0.228288 4.67143,-0.64423 6.86095,-0.924313 2.18952,-0.280087 4.23437,-0.58968 4.54411,-0.687987 0.30974,-0.09831 0.88339,-0.711309 1.27479,-1.362221 2.66605,-4.43385 8.40299,-11.875441 12.60016,-16.344106 10.763184,-11.459421 22.434274,-19.857737 34.919814,-25.1276992 1.5621,-0.65934 3.27218,-1.388181 3.80018,-1.619644 0.528,-0.231464 1.32,-0.517911 1.76,-0.636549 0.44,-0.118639 1.088,-0.340498 1.44,-0.49302 0.352,-0.152522 1.72,-0.586185 3.04,-0.963696 1.32,-0.377511 2.76,-0.813344 3.2,-0.9685178 0.44,-0.1551739 2.672,-0.6825991 4.96,-1.172056 4.15357,-0.8885442 4.17981,-0.8899279 16.96,-0.894057 13.50901,-0.00436 14.01903,0.036353 20.64001,1.6478149 3.28201,0.7988019 10.40484,3.0000559 11.68,3.6096119 0.352,0.168265 1.72,0.753663 3.04,1.300885 7.59276,3.1476702 16.65457,8.6450552 23.99644,14.5575542 2.71161,2.183691 12.48796,11.823981 14.94114,14.733194 1.86296,2.209273 7.14473,9.426998 8.68062,11.862368 1.02941,1.632269 1.03614,1.636307 3.34664,2.005616 1.27334,0.203533 3.53916,0.527062 5.03516,0.71896 1.496,0.191898 4.016,0.533789 5.6,0.759757 1.584,0.225968 4.608,0.645942 6.72,0.933273 4.45587,0.606208 5.04304,0.807696 5.82307,1.998205 0.52105,0.795229 0.57666,1.740048 0.5742,9.754759 -0.003,8.50312 -0.0307,8.911879 -0.67241,9.774058 -0.60753,0.816304 -0.89588,0.914659 -3.10702,1.059811 -1.57961,0.103696 -2.59553,0.328915 -2.88685,0.64 -0.27494,0.293581 -0.59557,1.909213 -0.82558,4.16 -0.57777,5.653795 -1.22694,10.136973 -2.06197,14.239999 -0.37337,1.8346 -0.39498,3.23119 -0.11942,7.716694 0.33712,5.48767 0.0592,12.46755 -0.73109,18.36331 -0.50019,3.73135 -2.02677,9.93724 -3.30609,13.44 -3.84536,10.52853 -8.6449,18.24788 -18.40029,29.59414 -5.2617,6.11975 -6.37012,7.93767 -6.68199,10.95909 -0.20219,1.95887 0.57774,5.12263 1.65287,6.70482 0.89163,1.31216 1.71205,1.9408 4.50257,3.45008 1.232,0.66634 2.384,1.31581 2.56,1.44328 0.32539,0.23567 7.05779,3.76723 13.44,7.05012 6.60999,3.40006 13.61874,7.08632 18.88,9.92996 1.056,0.57076 3,1.61825 4.32,2.32776 1.32,0.70951 3.4559,1.91344 4.74644,2.67539 1.29054,0.76195 2.38564,1.38537 2.43354,1.38537 0.25689,0 8.92482,5.35637 12.5752,7.77088 6.66039,4.40545 11.1873,8.38218 15.6525,13.75018 4.42928,5.32482 7.90653,10.99169 10.35706,16.87894 0.54947,1.32 1.20515,2.85376 1.45712,3.40836 0.252,0.5546 0.45814,1.2098 0.45814,1.456 0,0.2462 0.12208,0.58444 0.2713,0.75164 0.14921,0.1672 0.65721,1.744 1.12889,3.504 0.47168,1.76 0.99251,3.704 1.15741,4.32 0.5824,2.17561 1.26166,6.28306 1.62986,9.85541 0.41571,4.03349 0.19155,22.96935 -0.30759,25.98459 -0.16025,0.968 -0.52336,3.19142 -0.80694,4.94094 -0.28355,1.74952 -0.65789,3.62152 -0.83181,4.16 -0.17395,0.53848 -0.67626,2.17108 -1.11629,3.62799 -2.5568,8.46562 -8.29158,18.18227 -15.42362,26.13276 -2.98679,3.3296 -10.50164,10.25741 -12.90121,11.89348 -0.616,0.41997 -2.272,1.57593 -3.68,2.5688 -10.63625,7.50016 -28.55045,15.6904 -42.24,19.31184 -7.34764,1.94374 -10.26228,2.66688 -13.12,3.25513 -6.75455,1.39047 -12.05883,2.31924 -16.96,2.96973 -4.21423,0.5593 -5.6393,0.75319 -8.8,1.19725 -2.22628,0.3128 -94.58336,0.65763 -98.72001,0.36861 z m 91.52001,-12.31021 c 3.872,-0.32125 8.624,-0.79571 10.56,-1.05434 5.42587,-0.72489 16.10344,-2.49926 17.12,-2.84499 0.264,-0.0898 1.92,-0.48192 3.68,-0.87142 1.76,-0.38954 4.496,-1.06106 6.08,-1.49232 1.584,-0.43127 3.44671,-0.92339 4.13936,-1.09363 1.9009,-0.4672 7.26522,-2.16336 8.98064,-2.83962 0.352,-0.13875 1.36,-0.5017 2.24,-0.8065 0.88,-0.3048 3.688,-1.41129 6.24,-2.45884 16.76638,-6.88237 30.21023,-16.14516 38.9585,-26.84225 2.40417,-2.93974 6.04234,-8.39994 7.33764,-11.01241 2.13048,-4.29693 4.29077,-10.84044 4.7541,-14.4 0.11453,-0.88 0.32912,-2.104 0.47686,-2.72 0.48375,-2.01669 0.99668,-9.33992 1.00864,-14.4 0.0349,-14.7897 -3.38272,-27.53224 -10.21328,-38.08 -3.4571,-5.33845 -9.01748,-11.17791 -14.00246,-14.70529 -5.69472,-4.02957 -15.91646,-10.14037 -26.24,-15.68689 -1.408,-0.75647 -3.424,-1.8448 -4.48,-2.4185 -1.056,-0.5737 -5.95826,-3.13117 -10.89391,-5.68327 -24.05385,-12.43762 -25.81861,-13.57025 -28.71202,-18.42743 -0.65674,-1.10247 -1.19407,-2.08041 -1.19407,-2.1732 0,-0.0928 -0.20471,-0.62247 -0.45492,-1.17706 -1.07826,-2.39008 -1.46508,-4.66832 -1.46508,-8.62876 0,-3.55857 0.10322,-4.31527 0.93176,-6.83075 0.51246,-1.55587 1.52046,-3.8928 2.24,-5.19317 0.71953,-1.30038 1.3092,-2.45238 1.31039,-2.56 0.001,-0.10763 0.87751,-1.0509 1.94741,-2.09615 2.03651,-1.98961 5.42494,-5.91388 8.18984,-9.48496 7.2457,-9.35836 11.53787,-18.54653 13.44178,-28.77458 0.0846,-0.45438 0.0344,-0.65584 -0.11613,-0.46631 -0.14578,0.18353 -1.11265,1.01675 -2.14861,1.85159 -4.35924,3.51296 -9.50135,5.83853 -15.44442,6.98488 -3.04488,0.58732 -3.62127,0.78922 -3.44724,1.20754 0.11494,0.27627 0.34066,1.7983 0.50159,3.3823 1.05852,10.41872 -3.51781,19.37455 -13.64863,26.71023 -2.45186,1.77539 -9.72388,5.73083 -12.79774,6.96104 -8.36168,3.34647 -18.71174,5.95691 -26.88,6.77955 -11.36,1.14408 -13.28001,1.14408 -24.64001,0 -6.90783,-0.6957 -17.30884,-3.13186 -23.68,-5.54642 -8.8259,-3.34487 -16.25622,-7.74388 -21.04912,-12.46184 -3.03403,-2.98659 -4.94556,-5.63105 -6.47925,-8.96355 -1.78351,-3.87533 -2.146,-5.95591 -2.00127,-11.48647 0.0701,-2.67989 0.23472,-5.10454 0.36576,-5.3881 0.19027,-0.41174 -0.007,-0.55473 -0.97893,-0.71009 -8.453864,-1.35112 -14.626994,-4.25541 -20.306534,-9.55367 l -1.16935,-1.09084 0.1624,1.13508 c 0.79619,5.56492 3.15289,12.65303 6.04508,18.18148 3.68845,7.05051 8.33475,13.18752 16.252314,21.46669 4.20728,4.39942 5.69941,6.92374 6.33295,10.71379 1.06375,6.36375 -1.16925,14.42411 -5.52605,19.94711 -2.22141,2.81602 -4.86999,4.34179 -33.087994,19.06107 -4.224,2.20335 -8.328,4.36306 -9.12,4.79936 -10.51248,5.79108 -10.45916,5.76087 -14.72,8.33996 -2.024,1.22513 -4.13192,2.48559 -4.68426,2.80102 -1.87247,1.06935 -7.30509,4.87147 -9.50215,6.65026 -5.56079,4.50215 -10.98167,11.37153 -14.48297,18.35292 -1.98118,3.95036 -4.708612,11.81062 -5.253925,15.14143 -0.2017,1.232 -0.492276,2.672 -0.645725,3.2 -1.294818,4.45533 -1.287254,21.63844 0.01254,28.48 0.167187,0.88 0.521192,2.752 0.786678,4.16 1.009189,5.35221 3.691119,12.22259 6.535614,16.74249 5.698388,9.05476 12.343588,15.5816 23.714198,23.29191 6.30314,4.27408 16.80068,9.46979 25.44,12.59139 1.584,0.57232 3.168,1.15443 3.52,1.29357 3.47157,1.3721 12.89106,4.03504 19.2,5.4279 1.76,0.38858 3.416,0.77997 3.68,0.86973 1.03688,0.35264 11.722174,2.12346 17.279994,2.86378 11.14322,1.48425 15.14173,1.60128 55.04001,1.61069 33.97583,0.008 38.65225,-0.0518 44.96,-0.57514 z m -33.92,-203.47219 c 4.2184,-0.54834 10.83967,-1.80572 13.44,-2.55226 4.88339,-1.402 5.83037,-1.68552 6.4,-1.91614 0.352,-0.14252 1.72,-0.66908 3.04,-1.17015 6.48636,-2.46217 11.47512,-5.48947 15.24559,-9.25138 2.9122,-2.90559 3.94569,-4.67832 4.69674,-8.05629 0.46184,-2.07717 0.46486,-2.57738 0.0309,-5.12 -0.61237,-3.5883 -1.14413,-4.35448 -3.20584,-4.6191 -2.77447,-0.35611 -5.71218,-0.94291 -6.2831,-1.25503 -0.30561,-0.16709 -0.77721,-0.30379 -1.04799,-0.30379 -0.27079,0 -1.28312,-0.27793 -2.24962,-0.61763 -0.9665,-0.3397 -2.5829,-0.71515 -3.592,-0.83433 -5.24678,-0.6197 -9.21492,-2.5455 -13.71994,-6.65847 -7.9875,-7.29239 -10.56974,-9.03315 -15.63479,-10.53984 -1.86888,-0.55593 -3.1148,-0.66747 -7.52,-0.67325 -4.6142,-0.006 -5.58265,0.0859 -7.68001,0.72947 -5.00603,1.53604 -7.65601,3.34785 -15.73861,10.76059 -4.12104,3.7795 -7.90351,5.61662 -12.90139,6.26608 -1.232,0.1601 -2.816,0.50078 -3.52,0.75706 -2.1707,0.79023 -7.49379,2.02734 -9.92,2.30545 -2.80267,0.32126 -3.41397,1.50521 -3.51641,6.81048 -0.0542,2.80892 0.0505,3.63929 0.65285,5.17634 0.84763,2.1629 3.20476,5.54994 4.64742,6.67805 0.56268,0.44 1.4715,1.1641 2.0196,1.6091 1.76627,1.43403 4.43958,3.04629 7.72265,4.65748 3.11624,1.52932 3.89344,1.86409 6.23389,2.68512 0.616,0.21609 1.408,0.50747 1.76,0.64751 1.35318,0.53833 4.92574,1.54948 7.84,2.21896 1.672,0.3841 3.472,0.82457 4,0.97881 0.528,0.15425 1.824,0.37489 2.88,0.49032 1.056,0.11542 2.352,0.34407 2.88,0.5081 2.73852,0.85078 17.31122,1.0334 23.04001,0.28874 z m 10.24,-14.40243 c -4.67776,-0.56213 -10.2474,-3.44017 -14.2465,-7.36171 -0.26923,-0.264 -1.33199,-1.056 -2.3617,-1.76 -1.76042,-1.20357 -2.00832,-1.27925 -4.152,-1.26748 -2.52532,0.0138 -3.62949,0.45909 -6.99508,2.82054 -1.04016,0.72982 -2.13847,1.47094 -2.4407,1.64694 -0.30222,0.176 -1.26377,0.82496 -2.13676,1.44213 -0.873,0.61718 -2.30727,1.46653 -3.18727,1.88746 -0.88,0.42093 -1.84713,0.88615 -2.14918,1.03383 -0.80483,0.39348 -3.00158,0.92203 -5.37082,1.29223 -2.58734,0.40428 -7.49043,0.10133 -10.72,-0.66237 -1.72154,-0.40709 -7.00129,-2.17115 -7.92,-2.64622 -0.67759,-0.35038 -0.71512,-1.26466 -0.10749,-2.61869 0.63077,-1.40562 2.87619,-6.54912 3.41823,-7.83003 0.53275,-1.25895 0.71387,-1.24906 4.76926,0.26038 2.01804,0.75112 3.4709,1.05845 5.6296,1.19085 4.58883,0.28144 6.69647,-0.44513 11.3304,-3.90598 5.54457,-4.14094 8.34889,-5.42031 13.66762,-6.23533 3.58059,-0.54867 7.65879,0.17869 11.13239,1.9855 1.43427,0.74605 4.31012,2.71579 4.8,3.28763 0.80735,0.94245 4.09304,3.39498 5.51077,4.1134 2.79627,1.41697 4.98918,1.68199 8.61432,1.04104 1.7352,-0.3068 4.51034,-0.98573 6.16699,-1.50874 1.65665,-0.523 3.1149,-0.83755 3.24055,-0.699 0.12565,0.13855 0.53841,1.18791 0.91724,2.33191 0.37883,1.144 0.81502,2.368 0.96932,2.72 0.67342,1.53627 1.94072,5.3636 1.9398,5.85831 -9.6e-4,0.54668 -3.39873,1.80522 -7.19899,2.66658 -4.69366,1.06386 -9.24804,1.38211 -13.12,0.91682 z M 120,113.96426 c 8.87317,-2.61506 15.27744,-8.41604 19.82228,-17.954974 3.45156,-7.244307 4.71798,-12.235888 5.04076,-19.868115 0.21332,-5.043965 0.0395,-5.732381 -1.88613,-7.472119 -2.08556,-1.884179 -4.93019,-2.934739 -10.97691,-4.053926 -3.5044,-0.648627 -4.8328,-0.710874 -15.2,-0.712218 -9.66972,-0.0013 -11.78852,0.08434 -14.24,0.575226 -8.930254,1.788211 -13.096494,4.287005 -15.022154,9.009853 -2.29849,5.637222 -1.03507,17.50538 2.70015,25.364539 3.82655,8.051334 8.67898,12.860054 15.362004,15.223644 2.1626,0.76485 2.66461,0.81152 7.52,0.69912 3.4559,-0.08 5.02863,-0.26541 6.88,-0.81103 z m -3.60275,-4.97614 c -2.27152,-0.55044 -3.18877,-1.0162 -5.32188,-2.70233 -4.26339,-3.37001 -6.16892,-9.484244 -4.56345,-14.642628 2.601,-8.357018 11.95944,-12.120068 19.97372,-8.031485 2.02341,1.032269 4.48455,3.709606 5.70404,6.205117 1.03951,2.127213 1.09032,2.395549 1.09032,5.757922 0,3.31857 -0.0602,3.6491 -1.02073,5.600004 -2.03884,4.14122 -5.34307,6.89344 -9.37775,7.81111 -2.63285,0.59883 -4.02056,0.59932 -6.48427,0.002 z m 114.6781,5.61317 c 3.01864,-0.57247 7.38545,-2.94891 10.02358,-5.45487 6.64539,-6.31248 11.0133,-17.016922 11.0512,-27.083175 0.009,-2.304359 -0.16162,-3.105088 -1.39512,-6.56 -0.77275,-2.164391 -1.62795,-4.449578 -1.90045,-5.078189 -1.00154,-2.310388 -5.22294,-4.33544 -12.078,-5.793943 -3.08751,-0.656909 -4.19642,-0.710634 -14.85655,-0.719786 -10.58081,-0.0091 -11.8391,0.04858 -15.43399,0.707261 -8.2338,1.508663 -12.08446,3.725408 -12.85747,7.40178 -0.41982,1.996646 -0.0586,6.46656 0.94606,11.707619 0.70157,3.65984 1.11821,5.081242 2.51241,8.571104 2.89953,7.257925 6.01929,11.920749 10.59299,15.832339 3.78425,3.23644 7.82236,5.20951 12.94284,6.32404 2.35492,0.51257 8.09627,0.59267 10.4525,0.14582 z m -16.6606,-5.6245 c -2.7525,-0.7398 -4.36594,-1.70031 -6.38081,-3.79858 -3.30856,-3.44552 -4.66143,-7.497094 -3.91778,-11.732994 0.79664,-4.537792 4.27837,-8.981834 8.2624,-10.546035 2.54079,-0.997562 7.07599,-1.210906 9.44732,-0.444419 4.56698,1.476185 8.0276,5.168697 9.27039,9.891584 0.71257,2.70795 0.72219,3.44657 0.0816,6.26315 -1.13439,4.987534 -4.92192,8.881424 -10.0116,10.292754 -2.50134,0.6936 -4.37142,0.71425 -6.75149,0.0745 z M 162.88262,96.216846 c 4.30244,-0.61144 8.26965,-0.61296 12.66168,-0.005 1.92264,0.2662 3.67571,0.54969 3.89571,0.62996 0.56907,0.20764 0.51093,-0.22126 -0.54146,-3.993964 -0.81481,-2.920995 -1.9311,-8.268522 -3.70424,-17.744941 -0.2619,-1.399719 -0.60225,-2.671002 -0.75632,-2.825076 -0.45187,-0.451869 -4.84605,-0.914275 -6.75799,-0.711152 -4.0045,0.425434 -3.8782,0.286935 -4.62713,5.074112 -1.11207,7.108362 -2.68237,14.304132 -4.1157,18.859911 -0.44574,1.41676 -0.44174,1.51999 0.0529,1.363 0.29434,-0.0934 2.04599,-0.38457 3.89255,-0.64699 z m 19.51739,-44.172405 c 5.96572,-1.322391 13.88196,-2.825492 17.6,-3.341812 1.32,-0.183305 3.336,-0.475692 4.48,-0.649747 5.14987,-0.783533 23.30039,-0.674451 30.50684,0.183341 l 1.22683,0.146032 -1.45324,-1.847133 C 232.69658,43.911871 227.80389,38.662844 224.80001,35.84926 209.05034,21.097368 188.47712,12.527985 168.8107,12.527985 c -3.45942,0 -11.81666,0.790467 -13.4507,1.272229 -0.528,0.15567 -1.55313,0.374572 -2.27808,0.486449 -2.33017,0.359604 -8.52847,2.268913 -12.46011,3.838183 -14.54218,5.804346 -26.79464,14.989153 -37.593,28.18083 l -1.84809,2.257689 1.96964,-0.234592 c 7.88322,-0.938921 25.24459,-1.099891 30.92964,-0.286771 8.32763,1.191079 15.44796,2.485722 22.08,4.014656 2.66583,0.614573 23.45602,0.604893 26.24001,-0.01222 z"
       id="path172" />
  </g>
  <path
     style="fill:#000000;stroke-width:0.32"
     d="M 118.98041,377.29034 C 91.105974,374.51313 67.916844,368.20817 48.580414,358.14906 22.411504,344.53556 5.7998743,324.44349 1.7231343,301.47431 c -1.00551003,-5.66523 -1.29770003,-9.94967 -1.30016003,-19.0643 -0.003,-11.52003 0.58053003,-16.48565 2.91207003,-24.7757 3.38249,-12.02685 9.7368097,-23.03775 18.0721497,-31.31582 7.47661,-7.42525 21.10273,-15.89961 47.65322,-29.63651 5.13719,-2.65792 9.85628,-5.11747 15.52,-8.08889 5.58355,-2.92936 9.95634,-5.4824 10.75066,-6.27671 1.11339,-1.1134 2.5661,-4.32864 3.02729,-6.70024 0.60022,-3.08647 0.17034,-4.11174 -3.17893,-7.58184 -13.5545,-14.04346 -21.30349,-27.2184 -24.49293,-41.64322 -1.84697,-8.35323 -1.96403,-11.09852 -1.37626,-32.276778 0.0244,-0.88 -0.26756,-3.616 -0.64885,-6.08 -0.38129,-2.464 -0.86244,-6.064 -1.06924,-8 -0.47175,-4.416621 -0.64054,-4.64 -3.50588,-4.64 -3.34569,0 -3.51801,-0.235658 -3.87403,-5.298074 -0.31616,-4.495497 -0.0861,-13.020374 0.403,-14.931975 0.2572,-1.005241 0.48933,-1.241251 1.49483,-1.519782 1.06461,-0.294909 16.24919,-2.518797 20.97041,-3.071264 l 1.86006,-0.217661 2.4952,-3.720624 c 4.34369,-6.476935 8.00754,-10.911287 13.940376,-16.872028 9.30924,-9.353024 17.32794,-15.202575 27.99029,-20.4186036 8.61791,-4.215884 16.75175,-6.815586 26.13725,-8.353871 3.99818,-0.655302 22.79533,-0.655302 26.79351,0 13.83583,2.267696 26.36078,7.325066 38.53108,15.5582286 5.15716,3.488799 9.57687,7.212605 15.14089,12.756893 6.09662,6.074987 9.68708,10.378264 13.93715,16.704104 l 2.72461,4.055348 2.13476,0.33455 c 1.17412,0.184003 6.31076,0.914944 11.41476,1.624317 11.71143,1.627693 11.56303,1.587645 12.00809,3.240509 0.38222,1.419449 0.48159,17.367027 0.11462,18.394183 -0.51926,1.453388 -1.0858,1.73575 -3.48271,1.73575 -2.88605,0 -3.22394,0.323114 -3.51364,3.36 -0.38202,4.00456 -1.48698,11.785421 -1.99949,14.08 -0.40401,1.808759 -0.48775,4.14978 -0.43498,12.159998 0.0499,7.57096 -0.0555,10.82931 -0.44516,13.76 -2.15284,16.19318 -8.04614,28.60921 -20.48313,43.15395 -1.93798,2.26642 -4.15737,4.85995 -4.93198,5.7634 -2.83213,3.30323 -3.80618,7.02246 -2.7714,10.58199 0.79994,2.75168 1.86218,4.12658 4.3132,5.5827 2.38904,1.4193 13.86875,7.52319 23.22658,12.34982 21.87083,11.28066 35.76143,19.48079 43.68,25.78588 9.89706,7.88046 17.6472,19.25795 21.9297,32.19369 1.81449,5.48097 2.66406,9.24843 3.51955,15.60823 0.55552,4.12987 0.65312,20.26364 0.14825,24.50874 -1.2622,10.61308 -2.8848,16.58417 -6.563,24.15161 -3.7873,7.79181 -8.25492,13.99331 -14.8745,20.64729 -20.85988,20.96826 -54.21779,34.06708 -97.37033,38.23485 -6.68433,0.6456 -92.75512,0.62295 -99.26968,-0.0262 z m 93.44001,-0.45424 c 9.62333,-0.89206 11.30346,-1.08896 19.2,-2.25008 20.30744,-2.98595 38.22887,-8.24169 53.44,-15.67206 6.52219,-3.18599 8.87499,-4.52234 14.4,-8.17891 18.90202,-12.50973 31.19571,-29.06071 35.0448,-47.18074 2.90723,-13.68618 2.84659,-29.61448 -0.15958,-41.92 -2.93607,-12.01849 -7.61552,-21.52133 -14.89519,-30.24854 -6.2794,-7.52803 -14.48242,-13.54554 -31.19003,-22.88013 -2.112,-1.17998 -4.416,-2.47089 -5.12,-2.8687 -0.704,-0.3978 -3.872,-2.09083 -7.04,-3.76229 -3.168,-1.67146 -7.056,-3.72366 -8.64,-4.56044 -1.584,-0.83679 -6.68657,-3.49486 -11.33903,-5.90684 -8.27451,-4.28974 -13.34414,-7.13083 -14.53596,-8.14618 -0.32725,-0.27879 -1.04309,-1.37089 -1.59077,-2.42689 -0.92653,-1.78648 -0.99642,-2.15366 -1.00501,-5.28 -0.009,-3.10119 0.0668,-3.52021 0.97808,-5.44 0.62978,-1.32677 1.85598,-3.00704 3.38612,-4.64 2.51946,-2.68874 4.74091,-5.34067 8.04167,-9.6 7.37986,-9.52302 12.5796,-20.26469 14.72198,-30.41277 1.66645,-7.89373 1.65788,-7.79201 1.67111,-19.82723 0.007,-6.335997 0.11884,-11.690878 0.2486,-11.899729 0.26853,-0.432211 1.60611,-9.462422 2.14781,-14.500269 0.46885,-4.360358 0.81965,-4.8 3.83002,-4.8 3.55823,0 3.36538,0.566307 3.36538,-9.882522 0,-7.62688 -0.0735,-9.047805 -0.48938,-9.463843 -0.2905,-0.290592 -1.78605,-0.67737 -3.68,-0.951719 -9.83408,-1.424525 -16.89266,-2.412838 -18.87062,-2.642185 l -2.24,-0.259732 -2.6431,-3.84 c -1.45371,-2.112 -2.89088,-4.2 -3.19371,-4.64 C 241.64024,36.036819 231.58227,25.893218 223.82956,20.129244 212.47913,11.690448 199.45461,5.6393914 186.82042,2.9351694 c -6.95741,-1.489162 -8.41353,-1.620869 -17.92001,-1.620869 -7.49493,0 -9.89554,0.10978 -12.48,0.57071 -16.35034,2.91603 -27.90822,7.869464 -42.36974,18.1586546 -5.4639,3.887496 -14.577266,12.664927 -19.403856,18.688578 -2.85808,3.566932 -2.55466,3.147885 -6.1779,8.532125 -1.46933,2.183463 -2.69675,3.997361 -2.72761,4.030881 -0.0308,0.03352 -1.20469,0.208729 -2.6085,0.38935 -5.82757,0.749802 -11.20744,1.496208 -17.42301,2.417277 -1.98372,0.293965 -3.54885,0.694749 -3.83653,0.982432 -0.39637,0.396371 -0.50792,1.754534 -0.60534,7.37031 -0.13255,7.640948 0.0866,10.788126 0.80113,11.502609 0.32859,0.328589 1.14979,0.477075 2.63844,0.477075 3.2822,0 3.36565,0.144029 4.17136,7.2 0.36175,3.168 0.93128,7.308013 1.26563,9.200026 0.48562,2.748128 0.53811,3.713558 0.26098,4.8 -0.2102,0.824023 -0.35443,5.269352 -0.36598,11.279972 -0.0157,8.19299 0.0831,10.53281 0.56783,13.44 2.86838,17.20329 9.82068,30.31405 24.12862,45.50209 4.44909,4.72276 4.88448,5.44029 4.88448,8.04961 0,2.81367 -1.92066,8.09064 -3.40501,9.35519 -1.19287,1.01624 -6.22514,3.83201 -14.67499,8.21132 -4.752,2.46282 -9.72,5.05464 -11.04,5.7596 -1.32,0.70496 -5.136,2.72157 -8.48,4.48137 -3.344,1.75979 -6.656,3.52523 -7.36,3.92318 -0.704,0.39796 -3.008,1.689 -5.12,2.86898 -9.26692,5.17746 -17.30262,10.2656 -21.92,13.87958 -9.67678,7.57394 -17.0915,18.08619 -21.7228497,30.79767 -1.37939,3.78596 -3.1693,11.18385 -3.90297,16.13142 -1.70614003,11.50556 -0.79988,27.19984 2.18968,37.92 3.76757,13.50998 12.4828097,26.35289 24.8761397,36.65789 7.3088,6.07725 14.10621,10.37619 24,15.17859 15.16817,7.36256 32.95959,12.55837 53.119996,15.51312 8.92139,1.30752 8.27555,1.23104 18.88,2.23587 3.7324,0.35363 83.56016,0.36858 87.36001,0.0163 z"
     id="path310" />
</svg>
