<?xml version="1.0" encoding="UTF-8" standalone="no"?>
<!-- Created with Inkscape (http://www.inkscape.org/) -->

<svg
   version="1.1"
   id="svg2"
   width="337.60001"
   height="377.92001"
   viewBox="0 0 337.60001 377.92001"
   sodipodi:docname="v2-duck-10cm-bw.svg"
   inkscape:version="1.2.2 (732a01da63, 2022-12-09)"
   xmlns:inkscape="http://www.inkscape.org/namespaces/inkscape"
   xmlns:sodipodi="http://sodipodi.sourceforge.net/DTD/sodipodi-0.dtd"
   xmlns="http://www.w3.org/2000/svg"
   xmlns:svg="http://www.w3.org/2000/svg">
  <defs
     id="defs6" />
  <sodipodi:namedview
     id="namedview4"
     pagecolor="#ffffff"
     bordercolor="#000000"
     borderopacity="0.25"
     inkscape:showpageshadow="2"
     inkscape:pageopacity="0.0"
     inkscape:pagecheckerboard="0"
     inkscape:deskcolor="#d1d1d1"
     showgrid="false"
     inkscape:zoom="2.7175063"
     inkscape:cx="69.365066"
     inkscape:cy="188.77601"
     inkscape:window-width="2560"
     inkscape:window-height="1369"
     inkscape:window-x="1072"
     inkscape:window-y="237"
     inkscape:window-maximized="1"
     inkscape:current-layer="g8" />
  <g
     inkscape:groupmode="layer"
     inkscape:label="Image"
     id="g8">
    <path
       style="fill:#000000;stroke-width:0.32"
       d="M 119.24797,377.46402 C 68.344414,372.39237 30.819474,354.70495 12.366014,327.08504 3.7359441,314.16814 0.69594408,302.58109 0.69054408,282.58369 0.68554408,263.9622 4.1567341,250.7853 12.439304,237.98487 c 9.19106,-14.20447 20.11854,-22.10479 56.88868,-41.12921 26.29801,-13.60627 26.33418,-13.62837 27.98131,-17.09988 2.48087,-5.22868 2.12862,-7.41291 -1.8623,-11.5478 -15.87526,-16.44795 -23.46192,-30.97361 -25.80777,-49.41242 -0.53221,-4.18321 -0.53993,-7.26599 -0.0614,-24.507572 0.0244,-0.88 -0.26756,-3.616 -0.64885,-6.08 -0.38129,-2.464 -0.86244,-6.064 -1.06924,-8 -0.47175,-4.41662 -0.64053,-4.64 -3.50588,-4.64 -3.34569,0 -3.518,-0.23566 -3.87403,-5.29808 -0.31616,-4.49549 -0.0861,-13.02037 0.403,-14.93197 0.2572,-1.00524 0.48933,-1.24125 1.49483,-1.51978 1.06461,-0.29491 16.24919,-2.5188 20.97041,-3.07127 l 1.86006,-0.21766 2.4952,-3.72062 C 95.527284,35.142206 106.821,23.667532 117.41275,16.623151 130.1256,8.1680663 141.83812,3.4477443 155.77124,1.1641033 c 3.99818,-0.65530296 22.79533,-0.65530296 26.79351,0 26.71911,4.379267 51.30302,20.7490797 67.60912,45.0192247 l 2.72461,4.05535 2.13476,0.33455 c 1.17412,0.184 6.31076,0.91494 11.41476,1.62432 11.71143,1.62769 11.56303,1.58764 12.00809,3.24051 0.38222,1.41944 0.48159,17.36702 0.11462,18.39418 -0.51926,1.45338 -1.0858,1.73575 -3.48271,1.73575 -2.88605,0 -3.22394,0.32311 -3.51364,3.36 -0.38202,4.00456 -1.48698,11.78542 -1.99949,14.08 -0.40401,1.80876 -0.48775,4.14978 -0.43498,12.159992 0.14033,21.29884 -3.68496,33.93788 -14.96233,49.4366 -2.12597,2.92177 -3.93275,5.11696 -10.89794,13.24075 -4.80765,5.60736 -4.12159,12.80013 1.5418,16.16469 2.38904,1.4193 13.86875,7.52319 23.22658,12.34982 40.10111,20.68359 51.29066,29.2133 60.50995,46.12629 6.52015,11.96142 9.09005,23.30101 9.09005,40.10991 0,9.03384 -0.15971,11.50079 -1.15059,17.77195 -6.56784,41.56678 -51.07437,70.66026 -117.97974,77.12214 -6.68433,0.6456 -92.75512,0.62295 -99.26968,-0.0262 z"
       id="path183" />
  </g>
</svg>
