%TF.GenerationSoftware,KiCad,Pcbnew,(7.0.0)*%
%TF.CreationDate,2023-03-31T13:35:02+02:00*%
%TF.ProjectId,rp-micro,72702d6d-6963-4726-9f2e-6b696361645f,1.2*%
%TF.SameCoordinates,Original*%
%TF.FileFunction,Legend,Bot*%
%TF.FilePolarity,Positive*%
%FSLAX46Y46*%
G04 Gerber Fmt 4.6, Leading zero omitted, Abs format (unit mm)*
G04 Created by KiCad (PCBNEW (7.0.0)) date 2023-03-31 13:35:02*
%MOMM*%
%LPD*%
G01*
G04 APERTURE LIST*
G04 Aperture macros list*
%AMRoundRect*
0 Rectangle with rounded corners*
0 $1 Rounding radius*
0 $2 $3 $4 $5 $6 $7 $8 $9 X,Y pos of 4 corners*
0 Add a 4 corners polygon primitive as box body*
4,1,4,$2,$3,$4,$5,$6,$7,$8,$9,$2,$3,0*
0 Add four circle primitives for the rounded corners*
1,1,$1+$1,$2,$3*
1,1,$1+$1,$4,$5*
1,1,$1+$1,$6,$7*
1,1,$1+$1,$8,$9*
0 Add four rect primitives between the rounded corners*
20,1,$1+$1,$2,$3,$4,$5,0*
20,1,$1+$1,$4,$5,$6,$7,0*
20,1,$1+$1,$6,$7,$8,$9,0*
20,1,$1+$1,$8,$9,$2,$3,0*%
G04 Aperture macros list end*
%ADD10C,0.000000*%
%ADD11C,0.100000*%
%ADD12C,0.022500*%
%ADD13C,0.220000*%
%ADD14C,0.200000*%
%ADD15C,1.700000*%
%ADD16O,1.700000X1.700000*%
%ADD17C,0.650000*%
%ADD18O,1.200000X2.100000*%
%ADD19O,1.200000X1.800000*%
%ADD20C,1.350000*%
%ADD21R,1.500000X1.000000*%
%ADD22R,1.700000X1.700000*%
%ADD23RoundRect,0.340000X-0.510000X-0.510000X0.510000X-0.510000X0.510000X0.510000X-0.510000X0.510000X0*%
G04 APERTURE END LIST*
D10*
G36*
X28286428Y-1116245D02*
G01*
X28474293Y-1125411D01*
X28660720Y-1141797D01*
X28845729Y-1165460D01*
X29029344Y-1196452D01*
X29114617Y-1220691D01*
X29198837Y-1247420D01*
X29281999Y-1276636D01*
X29364104Y-1308342D01*
X29445147Y-1342536D01*
X29525123Y-1379220D01*
X29604034Y-1418393D01*
X29681875Y-1460054D01*
X29758643Y-1504203D01*
X29834337Y-1550842D01*
X29908953Y-1599968D01*
X29982488Y-1651584D01*
X30054938Y-1705688D01*
X30126305Y-1762280D01*
X30196582Y-1821359D01*
X30265768Y-1882929D01*
X30327329Y-1951971D01*
X30386403Y-2022146D01*
X30442987Y-2093444D01*
X30497085Y-2165860D01*
X30548693Y-2239385D01*
X30597813Y-2314015D01*
X30644445Y-2389742D01*
X30688588Y-2466558D01*
X30730244Y-2544457D01*
X30769411Y-2623433D01*
X30806090Y-2703479D01*
X30840282Y-2784587D01*
X30871984Y-2866751D01*
X30901198Y-2949964D01*
X30927925Y-3034219D01*
X30952164Y-3119511D01*
X30968573Y-3193827D01*
X30983145Y-3268144D01*
X30995885Y-3342459D01*
X31006802Y-3416774D01*
X31015901Y-3491087D01*
X31023189Y-3565401D01*
X31028671Y-3639713D01*
X31032356Y-3714025D01*
X31034252Y-3788337D01*
X31034361Y-3862647D01*
X31032694Y-3936959D01*
X31029255Y-4011268D01*
X31024052Y-4085580D01*
X31017091Y-4159889D01*
X31008379Y-4234199D01*
X30997923Y-4308510D01*
X30985142Y-4445856D01*
X30969466Y-4583263D01*
X30950916Y-4720710D01*
X30929513Y-4858176D01*
X30905277Y-4995641D01*
X30878231Y-5133081D01*
X30848398Y-5270480D01*
X30815796Y-5407813D01*
X30723365Y-5590892D01*
X30663359Y-5761805D01*
X30597626Y-5931299D01*
X30526166Y-6099372D01*
X30448977Y-6266021D01*
X30366063Y-6431245D01*
X30277421Y-6595039D01*
X30183054Y-6757402D01*
X30082958Y-6918330D01*
X29977135Y-7077819D01*
X29865584Y-7235870D01*
X29748307Y-7392480D01*
X29625303Y-7547643D01*
X29496572Y-7701359D01*
X29362114Y-7853624D01*
X29221929Y-8004435D01*
X29076016Y-8153792D01*
X28909725Y-8310690D01*
X28742726Y-8461157D01*
X28575020Y-8605190D01*
X28406603Y-8742792D01*
X28237479Y-8873965D01*
X28067647Y-8998709D01*
X27897105Y-9117025D01*
X27725857Y-9228915D01*
X27553900Y-9334382D01*
X27381236Y-9433423D01*
X27207864Y-9526045D01*
X27033785Y-9612243D01*
X26858998Y-9692024D01*
X26683504Y-9765384D01*
X26507304Y-9832330D01*
X26330396Y-9892858D01*
X26150045Y-9938725D01*
X25975530Y-9984411D01*
X25806847Y-10030091D01*
X25643999Y-10075936D01*
X25597588Y-10076664D01*
X25549663Y-10078839D01*
X25500259Y-10082452D01*
X25449408Y-10087490D01*
X25397140Y-10093944D01*
X25343489Y-10101805D01*
X25288485Y-10111059D01*
X25232162Y-10121696D01*
X25073346Y-10130189D01*
X24917436Y-10133007D01*
X24764423Y-10130142D01*
X24614293Y-10121581D01*
X24467038Y-10107316D01*
X24322647Y-10087332D01*
X24181108Y-10061623D01*
X24042412Y-10030177D01*
X23951688Y-10005930D01*
X23862786Y-9979197D01*
X23775697Y-9949973D01*
X23690419Y-9918257D01*
X23606950Y-9884048D01*
X23525283Y-9847345D01*
X23445415Y-9808145D01*
X23367342Y-9766448D01*
X23291060Y-9722252D01*
X23216566Y-9675556D01*
X23143854Y-9626357D01*
X23072921Y-9574657D01*
X23003764Y-9520450D01*
X22936376Y-9463738D01*
X22870757Y-9404517D01*
X22806901Y-9342788D01*
X22745178Y-9278918D01*
X22685966Y-9213285D01*
X22629263Y-9145885D01*
X22575071Y-9076715D01*
X22523387Y-9005769D01*
X22474214Y-8933046D01*
X22427549Y-8858540D01*
X22383395Y-8782248D01*
X22341749Y-8704164D01*
X22302615Y-8624285D01*
X22265988Y-8542605D01*
X22231873Y-8459123D01*
X22200266Y-8373835D01*
X22171170Y-8286733D01*
X22144582Y-8197816D01*
X22120505Y-8107079D01*
X22098927Y-8020736D01*
X22079837Y-7933319D01*
X22063239Y-7844829D01*
X22049133Y-7755265D01*
X22037521Y-7664628D01*
X22028403Y-7572919D01*
X22021783Y-7480136D01*
X22017659Y-7386279D01*
X22016035Y-7291350D01*
X22016911Y-7195348D01*
X22020287Y-7098275D01*
X22026167Y-7000127D01*
X22034552Y-6900907D01*
X22045442Y-6800614D01*
X22058840Y-6699249D01*
X22074744Y-6596811D01*
X22098427Y-6471573D01*
X22123493Y-6347792D01*
X22149953Y-6225469D01*
X22177818Y-6104607D01*
X22207098Y-5985201D01*
X22237807Y-5867256D01*
X22269950Y-5750767D01*
X22303543Y-5635738D01*
X22344963Y-5521450D01*
X22389255Y-5407526D01*
X22436419Y-5293967D01*
X22486454Y-5180771D01*
X22539356Y-5067941D01*
X22595127Y-4955476D01*
X22653764Y-4843373D01*
X22715267Y-4731638D01*
X22779631Y-4620266D01*
X22846860Y-4509258D01*
X22916948Y-4398616D01*
X22989895Y-4288338D01*
X23065701Y-4178425D01*
X23144364Y-4068876D01*
X23225884Y-3959691D01*
X23310256Y-3850872D01*
X24042412Y-4629818D01*
X25277922Y-5819731D01*
X25352387Y-5878778D01*
X25389610Y-5905349D01*
X25426831Y-5929953D01*
X25464046Y-5952587D01*
X25501259Y-5973254D01*
X25538469Y-5991952D01*
X25575674Y-6008682D01*
X25612877Y-6023444D01*
X25650079Y-6036238D01*
X25687278Y-6047062D01*
X25724476Y-6055920D01*
X25761671Y-6062809D01*
X25798866Y-6067730D01*
X25836062Y-6070682D01*
X25873255Y-6071666D01*
X25910449Y-6070682D01*
X25947644Y-6067729D01*
X25984838Y-6062809D01*
X26022035Y-6055920D01*
X26059233Y-6047063D01*
X26096432Y-6036238D01*
X26133633Y-6023443D01*
X26170835Y-6008682D01*
X26208041Y-5991952D01*
X26245251Y-5973254D01*
X26282464Y-5952586D01*
X26319679Y-5929952D01*
X26356899Y-5905349D01*
X26394125Y-5878778D01*
X26468587Y-5819731D01*
X26742232Y-5545132D01*
X26801274Y-5470815D01*
X26827842Y-5433657D01*
X26852443Y-5396498D01*
X26875074Y-5359338D01*
X26895739Y-5322178D01*
X26914435Y-5285017D01*
X26931163Y-5247855D01*
X26945924Y-5210691D01*
X26958716Y-5173528D01*
X26969540Y-5136362D01*
X26978395Y-5099195D01*
X26985284Y-5062025D01*
X26990204Y-5024854D01*
X26993156Y-4987680D01*
X26994139Y-4950503D01*
X26993156Y-4913326D01*
X26990203Y-4876144D01*
X26985284Y-4838959D01*
X26978395Y-4801773D01*
X26969540Y-4764582D01*
X26958715Y-4727388D01*
X26945923Y-4690191D01*
X26931163Y-4652990D01*
X26914435Y-4615784D01*
X26895739Y-4578574D01*
X26875074Y-4541361D01*
X26852443Y-4504143D01*
X26827841Y-4466919D01*
X26801274Y-4429693D01*
X26742232Y-4355221D01*
X25506722Y-3119511D01*
X24774566Y-2386364D01*
X24940492Y-2263935D01*
X25106397Y-2147901D01*
X25272283Y-2038264D01*
X25438153Y-1935029D01*
X25604005Y-1838196D01*
X25769845Y-1747769D01*
X25935669Y-1663752D01*
X26101483Y-1586145D01*
X26267285Y-1514954D01*
X26433079Y-1450180D01*
X26598864Y-1391826D01*
X26764642Y-1339895D01*
X26930414Y-1294389D01*
X27096183Y-1255312D01*
X27261949Y-1222664D01*
X27427714Y-1196452D01*
X27520147Y-1150694D01*
X27713984Y-1131525D01*
X27906297Y-1119356D01*
X28097103Y-1114245D01*
X28286428Y-1116245D01*
G37*
G36*
X21207203Y-7580876D02*
G01*
X21211553Y-7690928D01*
X21218778Y-7798150D01*
X21228856Y-7902540D01*
X21241765Y-8004097D01*
X21257484Y-8102825D01*
X21275991Y-8198720D01*
X21297266Y-8291785D01*
X21333013Y-8410846D01*
X21371613Y-8527762D01*
X21413070Y-8642534D01*
X21457383Y-8755161D01*
X21504553Y-8865643D01*
X21554584Y-8973979D01*
X21607475Y-9080170D01*
X21663230Y-9184218D01*
X21721848Y-9286119D01*
X21783329Y-9385876D01*
X21847677Y-9483488D01*
X21914894Y-9578954D01*
X21984978Y-9672276D01*
X22057934Y-9763453D01*
X22133760Y-9852484D01*
X22212460Y-9939372D01*
X22299333Y-10023387D01*
X22388350Y-10103823D01*
X22479510Y-10180679D01*
X22572817Y-10253956D01*
X22668269Y-10323657D01*
X22765867Y-10389782D01*
X22865608Y-10452334D01*
X22967495Y-10511313D01*
X23071526Y-10566720D01*
X23177703Y-10618558D01*
X23286026Y-10666825D01*
X23396492Y-10711527D01*
X23509105Y-10752662D01*
X23623860Y-10790232D01*
X23740763Y-10824239D01*
X23859810Y-10854685D01*
X24408926Y-10946203D01*
X20244794Y-15110907D01*
X20216148Y-15132306D01*
X20187519Y-15150851D01*
X20173212Y-15159055D01*
X20158907Y-15166545D01*
X20144606Y-15173320D01*
X20130308Y-15179384D01*
X20116013Y-15184734D01*
X20101720Y-15189370D01*
X20087429Y-15193294D01*
X20073139Y-15196503D01*
X20058851Y-15198999D01*
X20044564Y-15200783D01*
X20030278Y-15201853D01*
X20015991Y-15202210D01*
X20001704Y-15201853D01*
X19987417Y-15200783D01*
X19973129Y-15198999D01*
X19958840Y-15196503D01*
X19944550Y-15193294D01*
X19930256Y-15189371D01*
X19915963Y-15184734D01*
X19901665Y-15179384D01*
X19887366Y-15173321D01*
X19873062Y-15166545D01*
X19858756Y-15159055D01*
X19844445Y-15150852D01*
X19815811Y-15132306D01*
X19787157Y-15110907D01*
X16904302Y-12227657D01*
X16882905Y-12199006D01*
X16864361Y-12170376D01*
X16856160Y-12156066D01*
X16848670Y-12141760D01*
X16841895Y-12127457D01*
X16835832Y-12113158D01*
X16830483Y-12098861D01*
X16825847Y-12084566D01*
X16821926Y-12070274D01*
X16818715Y-12055983D01*
X16816219Y-12041693D01*
X16814436Y-12027405D01*
X16813366Y-12013116D01*
X16813010Y-11998829D01*
X16813367Y-11984541D01*
X16814436Y-11970254D01*
X16816219Y-11955964D01*
X16818716Y-11941675D01*
X16821926Y-11927385D01*
X16825847Y-11913091D01*
X16830483Y-11898798D01*
X16835832Y-11884501D01*
X16841896Y-11870201D01*
X16848671Y-11855898D01*
X16856160Y-11841593D01*
X16864361Y-11827283D01*
X16882905Y-11798651D01*
X16904302Y-11770000D01*
X21205747Y-7467992D01*
X21207203Y-7580876D01*
G37*
G36*
X32976922Y4114964D02*
G01*
X32992530Y4113894D01*
X33008048Y4112110D01*
X33023475Y4109613D01*
X33038812Y4106403D01*
X33054059Y4102479D01*
X33069219Y4097841D01*
X33084289Y4092491D01*
X33114162Y4079649D01*
X33143686Y4063953D01*
X33172860Y4045403D01*
X33201690Y4024000D01*
X36038830Y1140782D01*
X36052710Y1126533D01*
X36065697Y1112280D01*
X36077786Y1098020D01*
X36088979Y1083756D01*
X36099279Y1069488D01*
X36108682Y1055216D01*
X36117189Y1040940D01*
X36124802Y1026660D01*
X36131518Y1012375D01*
X36137338Y998086D01*
X36142264Y983794D01*
X36146294Y969500D01*
X36149428Y955201D01*
X36151668Y940899D01*
X36153010Y926595D01*
X36153459Y912287D01*
X36153010Y897977D01*
X36151668Y883664D01*
X36149429Y869350D01*
X36146294Y855032D01*
X36142264Y840712D01*
X36137339Y826391D01*
X36131518Y812068D01*
X36124802Y797744D01*
X36117190Y783417D01*
X36108681Y769090D01*
X36099278Y754761D01*
X36088980Y740433D01*
X36077786Y726102D01*
X36065697Y711771D01*
X36052711Y697439D01*
X36038830Y683107D01*
X31920420Y-3481580D01*
X31828900Y-2931472D01*
X31793153Y-2812572D01*
X31754552Y-2695795D01*
X31713097Y-2581147D01*
X31668783Y-2468624D01*
X31621613Y-2358233D01*
X31571581Y-2249970D01*
X31518691Y-2143841D01*
X31462937Y-2039844D01*
X31404320Y-1937982D01*
X31342837Y-1838256D01*
X31278488Y-1740668D01*
X31211273Y-1645218D01*
X31141187Y-1551909D01*
X31068232Y-1460742D01*
X30992407Y-1371717D01*
X30913707Y-1284838D01*
X30826834Y-1206114D01*
X30737816Y-1130246D01*
X30646650Y-1057237D01*
X30553334Y-987091D01*
X30457870Y-919809D01*
X30360253Y-855394D01*
X30260482Y-793849D01*
X30158558Y-735175D01*
X30054477Y-679379D01*
X29948241Y-626459D01*
X29839846Y-576419D01*
X29729290Y-529263D01*
X29616573Y-484994D01*
X29501695Y-443613D01*
X29384653Y-405123D01*
X29265446Y-369526D01*
X29162749Y-347937D01*
X29059925Y-329192D01*
X28957016Y-313304D01*
X28854063Y-300281D01*
X28751111Y-290134D01*
X28648201Y-282874D01*
X28545379Y-278510D01*
X28442683Y-277054D01*
X32697421Y4023999D01*
X32731719Y4045404D01*
X32765634Y4063953D01*
X32799168Y4079648D01*
X32832325Y4092491D01*
X32865106Y4102479D01*
X32897515Y4109613D01*
X32929552Y4113894D01*
X32945433Y4114964D01*
X32961224Y4115321D01*
X32976922Y4114964D01*
G37*
G36*
X21365307Y955882D02*
G01*
X21431792Y951742D01*
X21496843Y944731D01*
X21560461Y934847D01*
X21622647Y922095D01*
X21683404Y906475D01*
X21742730Y887988D01*
X21800628Y866636D01*
X21857100Y842421D01*
X21912148Y815344D01*
X21965771Y785405D01*
X22017973Y752608D01*
X22068753Y716953D01*
X22118112Y678442D01*
X22166054Y637075D01*
X22212579Y592857D01*
X22256960Y546164D01*
X22298466Y498075D01*
X22337101Y448589D01*
X22372866Y397706D01*
X22405763Y345422D01*
X22435791Y291738D01*
X22462954Y236652D01*
X22487251Y180162D01*
X22508686Y122266D01*
X22527257Y62964D01*
X22542968Y2255D01*
X22555819Y-59864D01*
X22565814Y-123392D01*
X22572949Y-188334D01*
X22577231Y-254687D01*
X22578657Y-322454D01*
X22578303Y-351119D01*
X22577240Y-379781D01*
X22575466Y-408441D01*
X22572979Y-437097D01*
X22569780Y-465748D01*
X22565868Y-494391D01*
X22561238Y-523026D01*
X22555891Y-551650D01*
X22549827Y-580265D01*
X22543041Y-608865D01*
X22535535Y-637453D01*
X22527306Y-666025D01*
X22518353Y-694580D01*
X22508674Y-723117D01*
X22498270Y-751635D01*
X22487137Y-780131D01*
X22475286Y-808796D01*
X22462727Y-837457D01*
X22449462Y-866115D01*
X22435486Y-894769D01*
X22420804Y-923417D01*
X22405415Y-952056D01*
X22389315Y-980690D01*
X22372510Y-1009312D01*
X22336775Y-1066524D01*
X22298207Y-1123685D01*
X22256809Y-1180783D01*
X22212579Y-1237807D01*
X22155305Y-1282340D01*
X22098094Y-1323964D01*
X22040927Y-1362696D01*
X21983781Y-1398543D01*
X21955209Y-1415387D01*
X21926635Y-1431517D01*
X21898056Y-1446931D01*
X21869468Y-1461630D01*
X21840869Y-1475617D01*
X21812256Y-1488894D01*
X21783628Y-1501461D01*
X21754983Y-1513318D01*
X21726336Y-1524300D01*
X21697707Y-1534594D01*
X21669096Y-1544195D01*
X21640498Y-1553101D01*
X21611909Y-1561312D01*
X21583330Y-1568821D01*
X21554756Y-1575628D01*
X21526184Y-1581731D01*
X21497613Y-1587125D01*
X21469038Y-1591808D01*
X21440458Y-1595779D01*
X21411870Y-1599032D01*
X21383273Y-1601569D01*
X21354661Y-1603383D01*
X21326033Y-1604475D01*
X21297386Y-1604839D01*
X21234773Y-1603411D01*
X21172890Y-1599130D01*
X21111732Y-1591991D01*
X21051299Y-1581995D01*
X20991591Y-1569141D01*
X20932605Y-1553425D01*
X20874339Y-1534851D01*
X20816795Y-1513413D01*
X20759968Y-1489112D01*
X20703859Y-1461946D01*
X20648467Y-1431913D01*
X20593787Y-1399014D01*
X20539823Y-1363246D01*
X20486568Y-1324609D01*
X20434026Y-1283100D01*
X20382191Y-1238720D01*
X20337812Y-1186880D01*
X20296306Y-1134328D01*
X20257669Y-1081069D01*
X20221905Y-1027096D01*
X20189008Y-972410D01*
X20158980Y-917009D01*
X20131817Y-860893D01*
X20107519Y-804058D01*
X20086086Y-746507D01*
X20067513Y-688235D01*
X20051804Y-629240D01*
X20038951Y-569525D01*
X20028958Y-509086D01*
X20021822Y-447921D01*
X20017541Y-386028D01*
X20016115Y-323408D01*
X20017541Y-260942D01*
X20021822Y-199184D01*
X20028958Y-138131D01*
X20038952Y-77783D01*
X20051804Y-18137D01*
X20067513Y40805D01*
X20086086Y99049D01*
X20107520Y156592D01*
X20131818Y213438D01*
X20158980Y269589D01*
X20189008Y325043D01*
X20221905Y379805D01*
X20257670Y433874D01*
X20296305Y487252D01*
X20337811Y539942D01*
X20382191Y591944D01*
X20434025Y636163D01*
X20486568Y677531D01*
X20539823Y716047D01*
X20593788Y751709D01*
X20648467Y784520D01*
X20703859Y814478D01*
X20759968Y841584D01*
X20816795Y865837D01*
X20874339Y887237D01*
X20932605Y905785D01*
X20991590Y921480D01*
X21051300Y934319D01*
X21111731Y944307D01*
X21172890Y951441D01*
X21234773Y955723D01*
X21297386Y957149D01*
X21365307Y955882D01*
G37*
G36*
X24088845Y-2336398D02*
G01*
X26102272Y-4305255D01*
X26123667Y-4339394D01*
X26142211Y-4373171D01*
X26157902Y-4406590D01*
X26170739Y-4439652D01*
X26180724Y-4472362D01*
X26187856Y-4504721D01*
X26192136Y-4536732D01*
X26193206Y-4552608D01*
X26193562Y-4568398D01*
X26193206Y-4584101D01*
X26192136Y-4599721D01*
X26190353Y-4615255D01*
X26187856Y-4630703D01*
X26184647Y-4646067D01*
X26180724Y-4661349D01*
X26176088Y-4676546D01*
X26170739Y-4691659D01*
X26157901Y-4721638D01*
X26142211Y-4751286D01*
X26123667Y-4780606D01*
X26102272Y-4809603D01*
X25827714Y-5083249D01*
X25798885Y-5104813D01*
X25784342Y-5114517D01*
X25769712Y-5123502D01*
X25754995Y-5131767D01*
X25740193Y-5139315D01*
X25725303Y-5146144D01*
X25710327Y-5152253D01*
X25695262Y-5157644D01*
X25680111Y-5162316D01*
X25664872Y-5166269D01*
X25649547Y-5169504D01*
X25634132Y-5172020D01*
X25618630Y-5173817D01*
X25603040Y-5174895D01*
X25587361Y-5175255D01*
X25571595Y-5174895D01*
X25555738Y-5173816D01*
X25539794Y-5172020D01*
X25523761Y-5169504D01*
X25507639Y-5166269D01*
X25491427Y-5162316D01*
X25475125Y-5157644D01*
X25458734Y-5152253D01*
X25425682Y-5139315D01*
X25392269Y-5123501D01*
X25358495Y-5104813D01*
X25324357Y-5083249D01*
X23310930Y-3070497D01*
X22258458Y-2016953D01*
X22315471Y-1981904D01*
X22372558Y-1945405D01*
X22429710Y-1907465D01*
X22486915Y-1868099D01*
X22544162Y-1827319D01*
X22601442Y-1785133D01*
X22658742Y-1741555D01*
X22716055Y-1696595D01*
X22760285Y-1639271D01*
X22801683Y-1581958D01*
X22840251Y-1524671D01*
X22875986Y-1467416D01*
X22908890Y-1410203D01*
X22924281Y-1381616D01*
X22938962Y-1353043D01*
X22952938Y-1324485D01*
X22966204Y-1295944D01*
X22978763Y-1267423D01*
X22990614Y-1238920D01*
X24088845Y-2336398D01*
G37*
G36*
X31552089Y-5603666D02*
G01*
X31596812Y-5622436D01*
X31640806Y-5642277D01*
X31684070Y-5663191D01*
X31726605Y-5685176D01*
X31768412Y-5708237D01*
X31809487Y-5732369D01*
X31849834Y-5757574D01*
X31889452Y-5783851D01*
X31928342Y-5811204D01*
X31966501Y-5839628D01*
X32003931Y-5869124D01*
X32040632Y-5899696D01*
X32076605Y-5931340D01*
X32111846Y-5964057D01*
X32146359Y-5997847D01*
X32234334Y-6118563D01*
X32315159Y-6240443D01*
X32388836Y-6363486D01*
X32455364Y-6487692D01*
X32514744Y-6613063D01*
X32566974Y-6739595D01*
X32612056Y-6867290D01*
X32649987Y-6996150D01*
X32680770Y-7126171D01*
X32704403Y-7257353D01*
X32720885Y-7389699D01*
X32730219Y-7523207D01*
X32732400Y-7657876D01*
X32727433Y-7793708D01*
X32715315Y-7930700D01*
X32696047Y-8068855D01*
X32669626Y-8208169D01*
X32636056Y-8348647D01*
X32595335Y-8490284D01*
X32547462Y-8633082D01*
X32492437Y-8777041D01*
X32430260Y-8922160D01*
X32360932Y-9068439D01*
X32284452Y-9215878D01*
X32200819Y-9364476D01*
X32110035Y-9514236D01*
X31907007Y-9817230D01*
X31675370Y-10124863D01*
X31415118Y-10437132D01*
X31097253Y-10702921D01*
X30784405Y-10939767D01*
X30476575Y-11147668D01*
X30173759Y-11326620D01*
X29875956Y-11476623D01*
X29583167Y-11597673D01*
X29438652Y-11647340D01*
X29295388Y-11689767D01*
X29153378Y-11724955D01*
X29012620Y-11752903D01*
X28873115Y-11773611D01*
X28734861Y-11787078D01*
X28597858Y-11793304D01*
X28462108Y-11792288D01*
X28327610Y-11784031D01*
X28194362Y-11768532D01*
X28062365Y-11745792D01*
X27931619Y-11715808D01*
X27802125Y-11678582D01*
X27673880Y-11634111D01*
X27546887Y-11582398D01*
X27421143Y-11523441D01*
X27296650Y-11457239D01*
X27173407Y-11383793D01*
X27051413Y-11303101D01*
X26930669Y-11215165D01*
X26896885Y-11180473D01*
X26864175Y-11145057D01*
X26832536Y-11108914D01*
X26801969Y-11072052D01*
X26772476Y-11034471D01*
X26744056Y-10996174D01*
X26716706Y-10957164D01*
X26690430Y-10917445D01*
X26665226Y-10877018D01*
X26641096Y-10835885D01*
X26618037Y-10794052D01*
X26596051Y-10751519D01*
X26575137Y-10708290D01*
X26555297Y-10664368D01*
X26536527Y-10619753D01*
X26518832Y-10574450D01*
X26792477Y-10482892D01*
X26980517Y-10416872D01*
X27167123Y-10344781D01*
X27352293Y-10266618D01*
X27536030Y-10182386D01*
X27718335Y-10092081D01*
X27899209Y-9995705D01*
X28078656Y-9893258D01*
X28256673Y-9784739D01*
X28433264Y-9670150D01*
X28608431Y-9549489D01*
X28782173Y-9422756D01*
X28954495Y-9289953D01*
X29125394Y-9151078D01*
X29294872Y-9006131D01*
X29462933Y-8855115D01*
X29629578Y-8698026D01*
X29803097Y-8514200D01*
X29969128Y-8328954D01*
X30127669Y-8142291D01*
X30278722Y-7954206D01*
X30422283Y-7764701D01*
X30558350Y-7573773D01*
X30686925Y-7381421D01*
X30808003Y-7187644D01*
X30921586Y-6992440D01*
X31027670Y-6795807D01*
X31126254Y-6597748D01*
X31217337Y-6398258D01*
X31300918Y-6197336D01*
X31376997Y-5994981D01*
X31445569Y-5791193D01*
X31506636Y-5585971D01*
X31552089Y-5603666D01*
G37*
G36*
X21970242Y3735376D02*
G01*
X22043916Y3717612D01*
X22079137Y3707120D01*
X22113282Y3695555D01*
X22146351Y3682915D01*
X22178345Y3669202D01*
X22209263Y3654415D01*
X22239108Y3638553D01*
X22267876Y3621618D01*
X22295572Y3603607D01*
X22322193Y3584522D01*
X22347741Y3564363D01*
X22372216Y3543127D01*
X22395618Y3520818D01*
X22417948Y3497431D01*
X22439204Y3472970D01*
X22459390Y3447433D01*
X22478504Y3420821D01*
X22496546Y3393132D01*
X22513518Y3364367D01*
X22529420Y3334525D01*
X22544252Y3303607D01*
X22558013Y3271613D01*
X22570705Y3238540D01*
X22582327Y3204392D01*
X22592881Y3169166D01*
X22610785Y3095481D01*
X22624416Y3017486D01*
X22610785Y2945299D01*
X22602367Y2910671D01*
X22592882Y2877019D01*
X22582327Y2844342D01*
X22570705Y2812644D01*
X22558012Y2781922D01*
X22544251Y2752178D01*
X22529421Y2723410D01*
X22513519Y2695620D01*
X22496547Y2668810D01*
X22478504Y2642976D01*
X22459389Y2618119D01*
X22439205Y2594241D01*
X22417948Y2571342D01*
X22395618Y2549421D01*
X22372217Y2528479D01*
X22347741Y2508516D01*
X22322193Y2489533D01*
X22295573Y2471528D01*
X22267876Y2454503D01*
X22239108Y2438458D01*
X22209263Y2423393D01*
X22178346Y2409307D01*
X22146351Y2396201D01*
X22113282Y2384077D01*
X22079136Y2372932D01*
X22043915Y2362768D01*
X21970243Y2345383D01*
X21892261Y2331924D01*
X21530778Y2286720D01*
X21357815Y2256088D01*
X21190036Y2220101D01*
X21027443Y2178760D01*
X20870036Y2132063D01*
X20717814Y2080010D01*
X20570777Y2022600D01*
X20428926Y1959832D01*
X20292260Y1891706D01*
X20160779Y1818221D01*
X20034484Y1739376D01*
X19913375Y1655170D01*
X19797451Y1565604D01*
X19686712Y1470675D01*
X19581160Y1370385D01*
X19480792Y1264732D01*
X19385609Y1153713D01*
X19295613Y1037331D01*
X19210803Y915584D01*
X19131177Y788469D01*
X19056737Y655990D01*
X18987482Y518142D01*
X18923414Y374926D01*
X18864530Y226343D01*
X18810834Y72389D01*
X18762322Y-86934D01*
X18718994Y-251628D01*
X18647898Y-597131D01*
X18597544Y-964124D01*
X18589554Y-1041947D01*
X18583813Y-1079111D01*
X18576910Y-1115114D01*
X18568842Y-1149950D01*
X18559610Y-1183624D01*
X18549214Y-1216133D01*
X18537655Y-1247477D01*
X18524934Y-1277660D01*
X18511048Y-1306677D01*
X18495998Y-1334530D01*
X18479784Y-1361218D01*
X18462406Y-1386745D01*
X18443866Y-1411106D01*
X18424161Y-1434304D01*
X18403294Y-1456337D01*
X18381262Y-1477206D01*
X18358066Y-1496913D01*
X18333707Y-1515455D01*
X18308184Y-1532832D01*
X18281498Y-1549048D01*
X18253648Y-1564098D01*
X18224635Y-1577985D01*
X18194456Y-1590707D01*
X18163115Y-1602267D01*
X18130611Y-1612662D01*
X18096943Y-1621894D01*
X18062110Y-1629963D01*
X18026115Y-1636867D01*
X17988955Y-1642608D01*
X17911145Y-1650598D01*
X17833335Y-1642608D01*
X17796176Y-1636867D01*
X17760180Y-1629963D01*
X17725347Y-1621895D01*
X17691680Y-1612662D01*
X17659174Y-1602267D01*
X17627833Y-1590707D01*
X17597657Y-1577985D01*
X17568643Y-1564098D01*
X17540792Y-1549048D01*
X17514106Y-1532833D01*
X17488583Y-1515455D01*
X17464224Y-1496913D01*
X17441028Y-1477207D01*
X17418997Y-1456337D01*
X17398129Y-1434303D01*
X17378424Y-1411106D01*
X17359884Y-1386745D01*
X17342507Y-1361219D01*
X17326293Y-1334530D01*
X17311243Y-1306677D01*
X17297357Y-1277660D01*
X17284635Y-1247478D01*
X17273075Y-1216133D01*
X17262680Y-1183623D01*
X17253448Y-1149951D01*
X17245381Y-1115114D01*
X17238476Y-1079111D01*
X17232736Y-1041947D01*
X17224745Y-964123D01*
X17291241Y-441459D01*
X17387766Y50804D01*
X17447290Y285534D01*
X17514321Y512664D01*
X17588859Y732190D01*
X17670906Y944115D01*
X17760459Y1148439D01*
X17857520Y1345158D01*
X17962090Y1534276D01*
X18074165Y1715788D01*
X18193748Y1889698D01*
X18320839Y2056004D01*
X18455439Y2214706D01*
X18597544Y2365802D01*
X18747158Y2509294D01*
X18904278Y2645180D01*
X19068908Y2773462D01*
X19241044Y2894136D01*
X19420686Y3007204D01*
X19607837Y3112666D01*
X19802497Y3210521D01*
X20004662Y3300769D01*
X20214336Y3383408D01*
X20431518Y3458440D01*
X20656205Y3525864D01*
X20888401Y3585679D01*
X21128106Y3637887D01*
X21375317Y3682483D01*
X21892261Y3748848D01*
X21970242Y3735376D01*
G37*
G36*
X22010361Y5841246D02*
G01*
X22078775Y5823999D01*
X22143265Y5802805D01*
X22174038Y5790726D01*
X22203829Y5777663D01*
X22232638Y5763610D01*
X22260466Y5748572D01*
X22287315Y5732547D01*
X22313179Y5715536D01*
X22338064Y5697536D01*
X22361967Y5678550D01*
X22384890Y5658578D01*
X22406830Y5637619D01*
X22427789Y5615673D01*
X22447766Y5592740D01*
X22466763Y5568820D01*
X22484779Y5543914D01*
X22501813Y5518021D01*
X22517865Y5491142D01*
X22532936Y5463274D01*
X22547026Y5434422D01*
X22560135Y5404581D01*
X22572262Y5373754D01*
X22593571Y5309140D01*
X22610956Y5240580D01*
X22624416Y5168072D01*
X22610957Y5090249D01*
X22593572Y5017080D01*
X22572261Y4948567D01*
X22560134Y4916057D01*
X22547025Y4884711D01*
X22532937Y4854528D01*
X22517865Y4825509D01*
X22501813Y4797654D01*
X22484778Y4770964D01*
X22466763Y4745435D01*
X22447766Y4721073D01*
X22427790Y4697873D01*
X22406829Y4675838D01*
X22384890Y4654966D01*
X22361967Y4635258D01*
X22338064Y4616715D01*
X22313180Y4599334D01*
X22287315Y4583118D01*
X22260466Y4568066D01*
X22232638Y4554178D01*
X22203829Y4541453D01*
X22174038Y4529893D01*
X22143265Y4519496D01*
X22111511Y4510264D01*
X22078775Y4502195D01*
X22045058Y4495290D01*
X22010361Y4489548D01*
X21938022Y4481557D01*
X21649521Y4464676D01*
X21367454Y4436685D01*
X21091821Y4397585D01*
X20822622Y4347382D01*
X20559860Y4286075D01*
X20303531Y4213670D01*
X20053636Y4130170D01*
X19810177Y4035575D01*
X19573153Y3929889D01*
X19342564Y3813114D01*
X19118411Y3685255D01*
X18900694Y3546312D01*
X18689411Y3396290D01*
X18484565Y3235190D01*
X18286154Y3063016D01*
X18094181Y2879771D01*
X17905646Y2682455D01*
X17728890Y2479413D01*
X17563918Y2270644D01*
X17410727Y2056148D01*
X17269324Y1835923D01*
X17139711Y1609972D01*
X17021890Y1378293D01*
X16915864Y1140888D01*
X16821634Y897753D01*
X16739206Y648893D01*
X16668580Y394303D01*
X16609760Y133986D01*
X16562746Y-132058D01*
X16527546Y-403831D01*
X16504159Y-681331D01*
X16492587Y-964558D01*
X16484597Y-1042382D01*
X16478856Y-1079548D01*
X16471951Y-1115549D01*
X16463883Y-1150386D01*
X16454652Y-1184060D01*
X16444257Y-1216570D01*
X16432697Y-1247914D01*
X16419976Y-1278096D01*
X16406090Y-1307114D01*
X16391040Y-1334967D01*
X16374826Y-1361656D01*
X16357449Y-1387182D01*
X16338908Y-1411542D01*
X16319203Y-1434740D01*
X16298334Y-1456775D01*
X16276302Y-1477645D01*
X16253107Y-1497351D01*
X16228749Y-1515893D01*
X16203225Y-1533271D01*
X16176539Y-1549485D01*
X16148689Y-1564536D01*
X16119675Y-1578422D01*
X16089498Y-1591145D01*
X16058156Y-1602704D01*
X16025651Y-1613101D01*
X15991983Y-1622331D01*
X15957151Y-1630400D01*
X15921157Y-1637305D01*
X15883996Y-1643045D01*
X15806187Y-1651035D01*
X15728377Y-1643045D01*
X15691219Y-1637304D01*
X15655222Y-1630400D01*
X15620390Y-1622331D01*
X15586722Y-1613101D01*
X15554218Y-1602705D01*
X15522877Y-1591146D01*
X15492699Y-1578422D01*
X15463685Y-1564535D01*
X15435835Y-1549485D01*
X15409148Y-1533271D01*
X15383626Y-1515893D01*
X15359266Y-1497351D01*
X15336071Y-1477645D01*
X15314040Y-1456774D01*
X15293172Y-1434741D01*
X15273467Y-1411543D01*
X15254925Y-1387182D01*
X15237548Y-1361655D01*
X15221335Y-1334967D01*
X15206285Y-1307114D01*
X15192399Y-1278096D01*
X15179677Y-1247915D01*
X15168118Y-1216570D01*
X15157722Y-1184060D01*
X15148492Y-1150386D01*
X15140424Y-1115549D01*
X15133520Y-1079547D01*
X15127779Y-1042382D01*
X15119789Y-964559D01*
X15216088Y-208576D01*
X15280734Y152932D01*
X15356378Y503448D01*
X15443019Y842974D01*
X15540656Y1171510D01*
X15649291Y1489054D01*
X15768921Y1795607D01*
X15899547Y2091170D01*
X16041168Y2375738D01*
X16193785Y2649314D01*
X16357397Y2911898D01*
X16532004Y3163489D01*
X16717604Y3404085D01*
X16914198Y3633688D01*
X17121784Y3852297D01*
X17340364Y4059911D01*
X17569939Y4256532D01*
X17810504Y4442156D01*
X18062061Y4616784D01*
X18324612Y4780417D01*
X18598153Y4933053D01*
X18882685Y5074692D01*
X19178207Y5205335D01*
X19484722Y5324981D01*
X19802225Y5433628D01*
X20130719Y5531278D01*
X20470202Y5617931D01*
X20820674Y5693583D01*
X21182134Y5758237D01*
X21938022Y5854546D01*
X22010361Y5841246D01*
G37*
D11*
X30038779Y-64576386D02*
X30038779Y-66989386D01*
X30546779Y-67243386D02*
X30038779Y-67243386D01*
X30038779Y-69656386D02*
X30546779Y-69656386D01*
X30546779Y-64576386D02*
X30038779Y-64576386D01*
X30546779Y-66989386D02*
X30038779Y-66989386D01*
D12*
G36*
X26316985Y-52704517D02*
G01*
X26318496Y-52704629D01*
X26319999Y-52704814D01*
X26321493Y-52705069D01*
X26322974Y-52705394D01*
X26324442Y-52705785D01*
X26325893Y-52706242D01*
X26327325Y-52706762D01*
X26328737Y-52707343D01*
X26330125Y-52707984D01*
X26331488Y-52708683D01*
X26332823Y-52709437D01*
X26334128Y-52710246D01*
X26335401Y-52711106D01*
X26336640Y-52712018D01*
X26337842Y-52712977D01*
X26339006Y-52713983D01*
X26340128Y-52715034D01*
X26341207Y-52716128D01*
X26342241Y-52717263D01*
X26343226Y-52718437D01*
X26344162Y-52719649D01*
X26345045Y-52720896D01*
X26345874Y-52722177D01*
X26346646Y-52723489D01*
X26347360Y-52724831D01*
X26348011Y-52726202D01*
X26348600Y-52727599D01*
X26349123Y-52729020D01*
X26349578Y-52730464D01*
X26349962Y-52731928D01*
X26350275Y-52733411D01*
X26475886Y-53408218D01*
X26476203Y-53409713D01*
X26476588Y-53411213D01*
X26477554Y-53414219D01*
X26478766Y-53417216D01*
X26480207Y-53420183D01*
X26481861Y-53423102D01*
X26483710Y-53425952D01*
X26485737Y-53428715D01*
X26487926Y-53431370D01*
X26490259Y-53433899D01*
X26492721Y-53436281D01*
X26495293Y-53438496D01*
X26497959Y-53440526D01*
X26500702Y-53442351D01*
X26503505Y-53443951D01*
X26504924Y-53444660D01*
X26506351Y-53445306D01*
X26507785Y-53445886D01*
X26509223Y-53446397D01*
X26961502Y-53631539D01*
X26964312Y-53632776D01*
X26967292Y-53633809D01*
X26970415Y-53634641D01*
X26973657Y-53635272D01*
X26976989Y-53635704D01*
X26980387Y-53635941D01*
X26983824Y-53635982D01*
X26987274Y-53635831D01*
X26990710Y-53635488D01*
X26994106Y-53634956D01*
X26997437Y-53634236D01*
X27000675Y-53633331D01*
X27003795Y-53632242D01*
X27006770Y-53630970D01*
X27009575Y-53629518D01*
X27012183Y-53627888D01*
X27575943Y-53241014D01*
X27577213Y-53240187D01*
X27578521Y-53239424D01*
X27579863Y-53238726D01*
X27581237Y-53238091D01*
X27582640Y-53237519D01*
X27584069Y-53237012D01*
X27585522Y-53236567D01*
X27586995Y-53236185D01*
X27588485Y-53235865D01*
X27589990Y-53235608D01*
X27593032Y-53235280D01*
X27596098Y-53235197D01*
X27599166Y-53235359D01*
X27602211Y-53235762D01*
X27605212Y-53236405D01*
X27608145Y-53237286D01*
X27609579Y-53237815D01*
X27610987Y-53238402D01*
X27612367Y-53239048D01*
X27613716Y-53239752D01*
X27615030Y-53240514D01*
X27616307Y-53241333D01*
X27617545Y-53242210D01*
X27618739Y-53243144D01*
X27619889Y-53244134D01*
X27620989Y-53245181D01*
X28095771Y-53719963D01*
X28096818Y-53721064D01*
X28097807Y-53722213D01*
X28098740Y-53723408D01*
X28099616Y-53724646D01*
X28100433Y-53725925D01*
X28101193Y-53727240D01*
X28102539Y-53729971D01*
X28103650Y-53732816D01*
X28104526Y-53735752D01*
X28105164Y-53738757D01*
X28105564Y-53741806D01*
X28105722Y-53744877D01*
X28105637Y-53747947D01*
X28105309Y-53750992D01*
X28104734Y-53753991D01*
X28103911Y-53756918D01*
X28103406Y-53758349D01*
X28102838Y-53759753D01*
X28102208Y-53761127D01*
X28101514Y-53762470D01*
X28100758Y-53763778D01*
X28099937Y-53765048D01*
X27719810Y-54319085D01*
X27718176Y-54321704D01*
X27716725Y-54324513D01*
X27715459Y-54327487D01*
X27714381Y-54330600D01*
X27713491Y-54333827D01*
X27712792Y-54337142D01*
X27712285Y-54340520D01*
X27711972Y-54343935D01*
X27711854Y-54347361D01*
X27711933Y-54350774D01*
X27712211Y-54354147D01*
X27712689Y-54357455D01*
X27713369Y-54360673D01*
X27714252Y-54363775D01*
X27715340Y-54366735D01*
X27716635Y-54369528D01*
X27916621Y-54836094D01*
X27917763Y-54838959D01*
X27919167Y-54841798D01*
X27920814Y-54844594D01*
X27922683Y-54847329D01*
X27924754Y-54849988D01*
X27927008Y-54852552D01*
X27929425Y-54855006D01*
X27931985Y-54857332D01*
X27934669Y-54859514D01*
X27937455Y-54861534D01*
X27940326Y-54863375D01*
X27943260Y-54865021D01*
X27946238Y-54866455D01*
X27949240Y-54867659D01*
X27952246Y-54868618D01*
X27955237Y-54869313D01*
X28607660Y-54990638D01*
X28609139Y-54990957D01*
X28610600Y-54991348D01*
X28612041Y-54991809D01*
X28613459Y-54992337D01*
X28614853Y-54992930D01*
X28616221Y-54993586D01*
X28617561Y-54994303D01*
X28618871Y-54995078D01*
X28621394Y-54996796D01*
X28623776Y-54998721D01*
X28626001Y-55000836D01*
X28628054Y-55003124D01*
X28629921Y-55005567D01*
X28631586Y-55008147D01*
X28633036Y-55010847D01*
X28633674Y-55012236D01*
X28634253Y-55013648D01*
X28634771Y-55015082D01*
X28635225Y-55016534D01*
X28635614Y-55018003D01*
X28635935Y-55019487D01*
X28636188Y-55020983D01*
X28636369Y-55022489D01*
X28636478Y-55024003D01*
X28636513Y-55025523D01*
X28636433Y-55696995D01*
X28636395Y-55698512D01*
X28636283Y-55700023D01*
X28636097Y-55701528D01*
X28635841Y-55703023D01*
X28635516Y-55704506D01*
X28635123Y-55705976D01*
X28634666Y-55707429D01*
X28634145Y-55708864D01*
X28633562Y-55710278D01*
X28632920Y-55711669D01*
X28632220Y-55713035D01*
X28631465Y-55714373D01*
X28630655Y-55715681D01*
X28629793Y-55716957D01*
X28628881Y-55718199D01*
X28627920Y-55719404D01*
X28626913Y-55720570D01*
X28625861Y-55721695D01*
X28624767Y-55722776D01*
X28623632Y-55723812D01*
X28622457Y-55724800D01*
X28621246Y-55725737D01*
X28619999Y-55726621D01*
X28618719Y-55727451D01*
X28617407Y-55728224D01*
X28616066Y-55728937D01*
X28614697Y-55729589D01*
X28613302Y-55730176D01*
X28611883Y-55730697D01*
X28610442Y-55731150D01*
X28608981Y-55731532D01*
X28607501Y-55731841D01*
X27971112Y-55850268D01*
X27969614Y-55850576D01*
X27968112Y-55850952D01*
X27966610Y-55851396D01*
X27965110Y-55851905D01*
X27962122Y-55853109D01*
X27959170Y-55854547D01*
X27956271Y-55856203D01*
X27953445Y-55858057D01*
X27950711Y-55860093D01*
X27948088Y-55862294D01*
X27945594Y-55864642D01*
X27943249Y-55867119D01*
X27941072Y-55869708D01*
X27939082Y-55872392D01*
X27937297Y-55875153D01*
X27935738Y-55877974D01*
X27934422Y-55880837D01*
X27933861Y-55882279D01*
X27933369Y-55883725D01*
X27734694Y-56380017D01*
X27733464Y-56382840D01*
X27732440Y-56385830D01*
X27731617Y-56388960D01*
X27730996Y-56392206D01*
X27730572Y-56395540D01*
X27730345Y-56398938D01*
X27730312Y-56402373D01*
X27730472Y-56405819D01*
X27730821Y-56409251D01*
X27731359Y-56412643D01*
X27732083Y-56415968D01*
X27732991Y-56419202D01*
X27734081Y-56422317D01*
X27735351Y-56425289D01*
X27736800Y-56428091D01*
X27738424Y-56430698D01*
X28099937Y-56957471D01*
X28100764Y-56958741D01*
X28101527Y-56960049D01*
X28102226Y-56961392D01*
X28102860Y-56962768D01*
X28103432Y-56964173D01*
X28103940Y-56965604D01*
X28104384Y-56967059D01*
X28104766Y-56968534D01*
X28105086Y-56970027D01*
X28105343Y-56971535D01*
X28105671Y-56974584D01*
X28105754Y-56977658D01*
X28105592Y-56980732D01*
X28105189Y-56983785D01*
X28104546Y-56986793D01*
X28103665Y-56989733D01*
X28103136Y-56991170D01*
X28102549Y-56992581D01*
X28101903Y-56993963D01*
X28101199Y-56995314D01*
X28100437Y-56996631D01*
X28099618Y-56997910D01*
X28098741Y-56999149D01*
X28097808Y-57000345D01*
X28096817Y-57001494D01*
X28095770Y-57002595D01*
X27620909Y-57477377D01*
X27619815Y-57478416D01*
X27618672Y-57479400D01*
X27617483Y-57480328D01*
X27616250Y-57481199D01*
X27614976Y-57482013D01*
X27613665Y-57482770D01*
X27610941Y-57484111D01*
X27608100Y-57485221D01*
X27605167Y-57486097D01*
X27602164Y-57486737D01*
X27599116Y-57487140D01*
X27596044Y-57487302D01*
X27592973Y-57487223D01*
X27589926Y-57486899D01*
X27586926Y-57486329D01*
X27583996Y-57485510D01*
X27582565Y-57485007D01*
X27581161Y-57484441D01*
X27579785Y-57483812D01*
X27578442Y-57483120D01*
X27577134Y-57482364D01*
X27575864Y-57481544D01*
X27058378Y-57126381D01*
X27055777Y-57124761D01*
X27052991Y-57123341D01*
X27050045Y-57122121D01*
X27046966Y-57121102D01*
X27043777Y-57120284D01*
X27040505Y-57119666D01*
X27037175Y-57119251D01*
X27033812Y-57119038D01*
X27030441Y-57119028D01*
X27027089Y-57119221D01*
X27023779Y-57119618D01*
X27020539Y-57120219D01*
X27017392Y-57121025D01*
X27014365Y-57122036D01*
X27011482Y-57123252D01*
X27008769Y-57124674D01*
X26780566Y-57246515D01*
X26779201Y-57247163D01*
X26777825Y-57247734D01*
X26776441Y-57248227D01*
X26775049Y-57248643D01*
X26773654Y-57248983D01*
X26772256Y-57249249D01*
X26770859Y-57249440D01*
X26769465Y-57249558D01*
X26768076Y-57249604D01*
X26766695Y-57249578D01*
X26765324Y-57249482D01*
X26763966Y-57249316D01*
X26762622Y-57249082D01*
X26761295Y-57248779D01*
X26759988Y-57248409D01*
X26758703Y-57247973D01*
X26757442Y-57247472D01*
X26756208Y-57246906D01*
X26755003Y-57246277D01*
X26753829Y-57245584D01*
X26752689Y-57244831D01*
X26751586Y-57244016D01*
X26750520Y-57243140D01*
X26749496Y-57242206D01*
X26748515Y-57241213D01*
X26747580Y-57240163D01*
X26746693Y-57239056D01*
X26745856Y-57237894D01*
X26745072Y-57236676D01*
X26744344Y-57235405D01*
X26743672Y-57234080D01*
X26743061Y-57232704D01*
X26272566Y-56095736D01*
X26272022Y-56094322D01*
X26271550Y-56092886D01*
X26271149Y-56091431D01*
X26270818Y-56089960D01*
X26270557Y-56088476D01*
X26270365Y-56086982D01*
X26270239Y-56085479D01*
X26270181Y-56083971D01*
X26270188Y-56082461D01*
X26270260Y-56080950D01*
X26270396Y-56079443D01*
X26270594Y-56077941D01*
X26270855Y-56076447D01*
X26271177Y-56074964D01*
X26271559Y-56073495D01*
X26272000Y-56072043D01*
X26272500Y-56070609D01*
X26273057Y-56069197D01*
X26273671Y-56067810D01*
X26274340Y-56066449D01*
X26275064Y-56065119D01*
X26275842Y-56063821D01*
X26276673Y-56062559D01*
X26277555Y-56061334D01*
X26278489Y-56060150D01*
X26279473Y-56059010D01*
X26280506Y-56057916D01*
X26281587Y-56056870D01*
X26282716Y-56055876D01*
X26283891Y-56054937D01*
X26285112Y-56054054D01*
X26286377Y-56053231D01*
X26343487Y-56018266D01*
X26347598Y-56015648D01*
X26351987Y-56012660D01*
X26356571Y-56009367D01*
X26361267Y-56005834D01*
X26365994Y-56002126D01*
X26370667Y-55998308D01*
X26375205Y-55994446D01*
X26379524Y-55990604D01*
X26417330Y-55964726D01*
X26453410Y-55936630D01*
X26487667Y-55906412D01*
X26520001Y-55874171D01*
X26550315Y-55840004D01*
X26578509Y-55804010D01*
X26604486Y-55766286D01*
X26628146Y-55726930D01*
X26649392Y-55686041D01*
X26668124Y-55643715D01*
X26684245Y-55600051D01*
X26697655Y-55555148D01*
X26708257Y-55509102D01*
X26715951Y-55462011D01*
X26720640Y-55413975D01*
X26722225Y-55365089D01*
X26721259Y-55326875D01*
X26718391Y-55289162D01*
X26713669Y-55251998D01*
X26707139Y-55215429D01*
X26698847Y-55179501D01*
X26688841Y-55144262D01*
X26677166Y-55109758D01*
X26663870Y-55076035D01*
X26649000Y-55043141D01*
X26632601Y-55011122D01*
X26614721Y-54980024D01*
X26595406Y-54949895D01*
X26574703Y-54920781D01*
X26552659Y-54892728D01*
X26529320Y-54865783D01*
X26504733Y-54839994D01*
X26478944Y-54815406D01*
X26452001Y-54792066D01*
X26423949Y-54770021D01*
X26394836Y-54749318D01*
X26364709Y-54730002D01*
X26333613Y-54712122D01*
X26301595Y-54695723D01*
X26268703Y-54680852D01*
X26234983Y-54667556D01*
X26200481Y-54655881D01*
X26165244Y-54645875D01*
X26129320Y-54637583D01*
X26092753Y-54631053D01*
X26055592Y-54626330D01*
X26017883Y-54623463D01*
X25979672Y-54622496D01*
X25941461Y-54623463D01*
X25903752Y-54626330D01*
X25866590Y-54631053D01*
X25830023Y-54637583D01*
X25794097Y-54645875D01*
X25758860Y-54655881D01*
X25724357Y-54667556D01*
X25690635Y-54680852D01*
X25657741Y-54695723D01*
X25625722Y-54712122D01*
X25594625Y-54730002D01*
X25564495Y-54749318D01*
X25535381Y-54770021D01*
X25507327Y-54792066D01*
X25480382Y-54815406D01*
X25454592Y-54839994D01*
X25430003Y-54865783D01*
X25406662Y-54892728D01*
X25384616Y-54920781D01*
X25363911Y-54949895D01*
X25344594Y-54980024D01*
X25326713Y-55011122D01*
X25310313Y-55043141D01*
X25295441Y-55076035D01*
X25282143Y-55109758D01*
X25270468Y-55144262D01*
X25260460Y-55179501D01*
X25252168Y-55215429D01*
X25245637Y-55251998D01*
X25240914Y-55289162D01*
X25238046Y-55326875D01*
X25237079Y-55365089D01*
X25237478Y-55389632D01*
X25238665Y-55413975D01*
X25240628Y-55438105D01*
X25243355Y-55462011D01*
X25246834Y-55485681D01*
X25251051Y-55509102D01*
X25255996Y-55532261D01*
X25261655Y-55555148D01*
X25268017Y-55577749D01*
X25275068Y-55600052D01*
X25282797Y-55622044D01*
X25291191Y-55643715D01*
X25300238Y-55665051D01*
X25309926Y-55686041D01*
X25331174Y-55726930D01*
X25354835Y-55766286D01*
X25380813Y-55804010D01*
X25409007Y-55840004D01*
X25439320Y-55874171D01*
X25471653Y-55906412D01*
X25505906Y-55936630D01*
X25541982Y-55964726D01*
X25579781Y-55990604D01*
X25584125Y-55994446D01*
X25588678Y-55998308D01*
X25593361Y-56002126D01*
X25598092Y-56005834D01*
X25602792Y-56009367D01*
X25607380Y-56012660D01*
X25611775Y-56015648D01*
X25615897Y-56018266D01*
X25673007Y-56053231D01*
X25674280Y-56054054D01*
X25675507Y-56054937D01*
X25676688Y-56055876D01*
X25677822Y-56056870D01*
X25678907Y-56057916D01*
X25679944Y-56059010D01*
X25681868Y-56061334D01*
X25683585Y-56063821D01*
X25685089Y-56066449D01*
X25686373Y-56069197D01*
X25687429Y-56072043D01*
X25688249Y-56074964D01*
X25688828Y-56077941D01*
X25689158Y-56080950D01*
X25689231Y-56083971D01*
X25689041Y-56086982D01*
X25688845Y-56088476D01*
X25688580Y-56089960D01*
X25688246Y-56091431D01*
X25687842Y-56092886D01*
X25687366Y-56094322D01*
X25686819Y-56095736D01*
X25216284Y-57232664D01*
X25215673Y-57234041D01*
X25215001Y-57235366D01*
X25214272Y-57236638D01*
X25213487Y-57237856D01*
X25212650Y-57239020D01*
X25211762Y-57240127D01*
X25210825Y-57241179D01*
X25209843Y-57242172D01*
X25208818Y-57243108D01*
X25207751Y-57243984D01*
X25206646Y-57244800D01*
X25205505Y-57245556D01*
X25204330Y-57246249D01*
X25203124Y-57246880D01*
X25201889Y-57247446D01*
X25200627Y-57247949D01*
X25199341Y-57248386D01*
X25198033Y-57248756D01*
X25196706Y-57249059D01*
X25195362Y-57249294D01*
X25194003Y-57249461D01*
X25192632Y-57249557D01*
X25191251Y-57249582D01*
X25189863Y-57249536D01*
X25188470Y-57249417D01*
X25187074Y-57249224D01*
X25185678Y-57248957D01*
X25184284Y-57248615D01*
X25182895Y-57248197D01*
X25181513Y-57247701D01*
X25180140Y-57247128D01*
X25178779Y-57246475D01*
X24950576Y-57124635D01*
X24947870Y-57123213D01*
X24944992Y-57121998D01*
X24941968Y-57120989D01*
X24938823Y-57120185D01*
X24935583Y-57119587D01*
X24932274Y-57119192D01*
X24928920Y-57119002D01*
X24925548Y-57119014D01*
X24922183Y-57119228D01*
X24918850Y-57119645D01*
X24915576Y-57120262D01*
X24912385Y-57121080D01*
X24909303Y-57122097D01*
X24906355Y-57123313D01*
X24903568Y-57124728D01*
X24900967Y-57126341D01*
X24383521Y-57481505D01*
X24382247Y-57482325D01*
X24380936Y-57483081D01*
X24379590Y-57483773D01*
X24378212Y-57484402D01*
X24376806Y-57484968D01*
X24375373Y-57485471D01*
X24373917Y-57485911D01*
X24372441Y-57486289D01*
X24370948Y-57486605D01*
X24369440Y-57486859D01*
X24366392Y-57487183D01*
X24363321Y-57487263D01*
X24360249Y-57487100D01*
X24357200Y-57486698D01*
X24354197Y-57486058D01*
X24351263Y-57485182D01*
X24349830Y-57484656D01*
X24348422Y-57484072D01*
X24347042Y-57483430D01*
X24345695Y-57482730D01*
X24344382Y-57481973D01*
X24343106Y-57481159D01*
X24341871Y-57480289D01*
X24340679Y-57479361D01*
X24339533Y-57478377D01*
X24338436Y-57477337D01*
X23863575Y-57002556D01*
X23862531Y-57001455D01*
X23861544Y-57000305D01*
X23860614Y-56999110D01*
X23859740Y-56997871D01*
X23858923Y-56996592D01*
X23858164Y-56995275D01*
X23856818Y-56992542D01*
X23855705Y-56989693D01*
X23854827Y-56986754D01*
X23854185Y-56983746D01*
X23853782Y-56980693D01*
X23853620Y-56977618D01*
X23853701Y-56974545D01*
X23854027Y-56971496D01*
X23854601Y-56968495D01*
X23855423Y-56965564D01*
X23855929Y-56964133D01*
X23856497Y-56962728D01*
X23857129Y-56961353D01*
X23857825Y-56960009D01*
X23858584Y-56958701D01*
X23859408Y-56957431D01*
X24220881Y-56430659D01*
X24222519Y-56428052D01*
X24223978Y-56425250D01*
X24225257Y-56422278D01*
X24226354Y-56419162D01*
X24227267Y-56415929D01*
X24227994Y-56412603D01*
X24228533Y-56409212D01*
X24228883Y-56405780D01*
X24229042Y-56402333D01*
X24229008Y-56398898D01*
X24228780Y-56395501D01*
X24228354Y-56392166D01*
X24227731Y-56388921D01*
X24226907Y-56385791D01*
X24225881Y-56382801D01*
X24224652Y-56379978D01*
X24025976Y-55883686D01*
X24025487Y-55882240D01*
X24024929Y-55880798D01*
X24023615Y-55877934D01*
X24022055Y-55875114D01*
X24020268Y-55872353D01*
X24018273Y-55869669D01*
X24016090Y-55867079D01*
X24013738Y-55864602D01*
X24011237Y-55862255D01*
X24008606Y-55860054D01*
X24005865Y-55858018D01*
X24003033Y-55856163D01*
X24000130Y-55854508D01*
X23997175Y-55853070D01*
X23994188Y-55851865D01*
X23991187Y-55850913D01*
X23989688Y-55850536D01*
X23988194Y-55850229D01*
X23351805Y-55731802D01*
X23350321Y-55731493D01*
X23348857Y-55731111D01*
X23347413Y-55730658D01*
X23345992Y-55730137D01*
X23344595Y-55729549D01*
X23343225Y-55728898D01*
X23341882Y-55728184D01*
X23340570Y-55727412D01*
X23339289Y-55726582D01*
X23338042Y-55725697D01*
X23335656Y-55723773D01*
X23333428Y-55721656D01*
X23331370Y-55719365D01*
X23329500Y-55716918D01*
X23327830Y-55714333D01*
X23326377Y-55711629D01*
X23325155Y-55708824D01*
X23324635Y-55707390D01*
X23324179Y-55705936D01*
X23323787Y-55704467D01*
X23323463Y-55702983D01*
X23323207Y-55701488D01*
X23323022Y-55699984D01*
X23322910Y-55698472D01*
X23322872Y-55696956D01*
X23322833Y-55025483D01*
X23322870Y-55023967D01*
X23322982Y-55022457D01*
X23323167Y-55020954D01*
X23323422Y-55019461D01*
X23323745Y-55017980D01*
X23324136Y-55016513D01*
X23324591Y-55015063D01*
X23325110Y-55013632D01*
X23325690Y-55012221D01*
X23326330Y-55010834D01*
X23327027Y-55009472D01*
X23327780Y-55008137D01*
X23328588Y-55006833D01*
X23329447Y-55005560D01*
X23330357Y-55004321D01*
X23331316Y-55003119D01*
X23332321Y-55001956D01*
X23333371Y-55000833D01*
X23334465Y-54999753D01*
X23335599Y-54998719D01*
X23336773Y-54997732D01*
X23337985Y-54996795D01*
X23339232Y-54995909D01*
X23340514Y-54995078D01*
X23341827Y-54994302D01*
X23343170Y-54993586D01*
X23344542Y-54992930D01*
X23345941Y-54992337D01*
X23347364Y-54991809D01*
X23348811Y-54991348D01*
X23350278Y-54990957D01*
X23351765Y-54990638D01*
X24004148Y-54869313D01*
X24005647Y-54868999D01*
X24007153Y-54868618D01*
X24010170Y-54867659D01*
X24013180Y-54866455D01*
X24016165Y-54865021D01*
X24019103Y-54863375D01*
X24021975Y-54861534D01*
X24024762Y-54859514D01*
X24027445Y-54857332D01*
X24030002Y-54855006D01*
X24032415Y-54852552D01*
X24034665Y-54849988D01*
X24036730Y-54847329D01*
X24038593Y-54844594D01*
X24040232Y-54841798D01*
X24041629Y-54838959D01*
X24042230Y-54837529D01*
X24042764Y-54836094D01*
X24242789Y-54369528D01*
X24244077Y-54366735D01*
X24245159Y-54363775D01*
X24246038Y-54360673D01*
X24246714Y-54357455D01*
X24247189Y-54354147D01*
X24247465Y-54350774D01*
X24247544Y-54347361D01*
X24247427Y-54343935D01*
X24247117Y-54340520D01*
X24246614Y-54337142D01*
X24245921Y-54333827D01*
X24245038Y-54330600D01*
X24243969Y-54327487D01*
X24242714Y-54324513D01*
X24241275Y-54321704D01*
X24239654Y-54319085D01*
X23859487Y-53765048D01*
X23858660Y-53763778D01*
X23857897Y-53762470D01*
X23857199Y-53761127D01*
X23856565Y-53759753D01*
X23855995Y-53758349D01*
X23855488Y-53756918D01*
X23855044Y-53755465D01*
X23854663Y-53753991D01*
X23854345Y-53752499D01*
X23854089Y-53750992D01*
X23853763Y-53747947D01*
X23853683Y-53744877D01*
X23853847Y-53741806D01*
X23854251Y-53738757D01*
X23854896Y-53735752D01*
X23855776Y-53732816D01*
X23856305Y-53731381D01*
X23856892Y-53729971D01*
X23857537Y-53728590D01*
X23858240Y-53727240D01*
X23859000Y-53725925D01*
X23859818Y-53724646D01*
X23860692Y-53723408D01*
X23861623Y-53722213D01*
X23862611Y-53721064D01*
X23863654Y-53719963D01*
X24338476Y-53245182D01*
X24339573Y-53244134D01*
X24340719Y-53243144D01*
X24341911Y-53242210D01*
X24343146Y-53241333D01*
X24344422Y-53240514D01*
X24345735Y-53239752D01*
X24348462Y-53238402D01*
X24351303Y-53237286D01*
X24354237Y-53236405D01*
X24357240Y-53235762D01*
X24360289Y-53235359D01*
X24363361Y-53235197D01*
X24366432Y-53235280D01*
X24369480Y-53235608D01*
X24372481Y-53236185D01*
X24375413Y-53237012D01*
X24376846Y-53237520D01*
X24378252Y-53238091D01*
X24379630Y-53238726D01*
X24380976Y-53239424D01*
X24382287Y-53240187D01*
X24383561Y-53241014D01*
X24947282Y-53627888D01*
X24949883Y-53629518D01*
X24952681Y-53630970D01*
X24955651Y-53632242D01*
X24958767Y-53633331D01*
X24962002Y-53634236D01*
X24965330Y-53634956D01*
X24968725Y-53635488D01*
X24972161Y-53635831D01*
X24975611Y-53635982D01*
X24979049Y-53635941D01*
X24982450Y-53635705D01*
X24985786Y-53635272D01*
X24989031Y-53634641D01*
X24992160Y-53633810D01*
X24995146Y-53632776D01*
X24997963Y-53631539D01*
X25450281Y-53446397D01*
X25453160Y-53445306D01*
X25456011Y-53443951D01*
X25458817Y-53442351D01*
X25461562Y-53440526D01*
X25464229Y-53438496D01*
X25466801Y-53436281D01*
X25469261Y-53433899D01*
X25471593Y-53431370D01*
X25473780Y-53428715D01*
X25475805Y-53425952D01*
X25477652Y-53423102D01*
X25479303Y-53420183D01*
X25480742Y-53417216D01*
X25481952Y-53414219D01*
X25482916Y-53411213D01*
X25483619Y-53408218D01*
X25609190Y-52733411D01*
X25609502Y-52731928D01*
X25609887Y-52730464D01*
X25610342Y-52729020D01*
X25610865Y-52727599D01*
X25611453Y-52726202D01*
X25612105Y-52724831D01*
X25612818Y-52723489D01*
X25613590Y-52722177D01*
X25614418Y-52720896D01*
X25615301Y-52719649D01*
X25617222Y-52717263D01*
X25619333Y-52715034D01*
X25621617Y-52712977D01*
X25624056Y-52711106D01*
X25626632Y-52709437D01*
X25629327Y-52707984D01*
X25630713Y-52707343D01*
X25632123Y-52706762D01*
X25633553Y-52706242D01*
X25635001Y-52705785D01*
X25636466Y-52705394D01*
X25637945Y-52705069D01*
X25639436Y-52704814D01*
X25640936Y-52704629D01*
X25642444Y-52704517D01*
X25643956Y-52704479D01*
X26315469Y-52704479D01*
X26316985Y-52704517D01*
G37*
X26316985Y-52704517D02*
X26318496Y-52704629D01*
X26319999Y-52704814D01*
X26321493Y-52705069D01*
X26322974Y-52705394D01*
X26324442Y-52705785D01*
X26325893Y-52706242D01*
X26327325Y-52706762D01*
X26328737Y-52707343D01*
X26330125Y-52707984D01*
X26331488Y-52708683D01*
X26332823Y-52709437D01*
X26334128Y-52710246D01*
X26335401Y-52711106D01*
X26336640Y-52712018D01*
X26337842Y-52712977D01*
X26339006Y-52713983D01*
X26340128Y-52715034D01*
X26341207Y-52716128D01*
X26342241Y-52717263D01*
X26343226Y-52718437D01*
X26344162Y-52719649D01*
X26345045Y-52720896D01*
X26345874Y-52722177D01*
X26346646Y-52723489D01*
X26347360Y-52724831D01*
X26348011Y-52726202D01*
X26348600Y-52727599D01*
X26349123Y-52729020D01*
X26349578Y-52730464D01*
X26349962Y-52731928D01*
X26350275Y-52733411D01*
X26475886Y-53408218D01*
X26476203Y-53409713D01*
X26476588Y-53411213D01*
X26477554Y-53414219D01*
X26478766Y-53417216D01*
X26480207Y-53420183D01*
X26481861Y-53423102D01*
X26483710Y-53425952D01*
X26485737Y-53428715D01*
X26487926Y-53431370D01*
X26490259Y-53433899D01*
X26492721Y-53436281D01*
X26495293Y-53438496D01*
X26497959Y-53440526D01*
X26500702Y-53442351D01*
X26503505Y-53443951D01*
X26504924Y-53444660D01*
X26506351Y-53445306D01*
X26507785Y-53445886D01*
X26509223Y-53446397D01*
X26961502Y-53631539D01*
X26964312Y-53632776D01*
X26967292Y-53633809D01*
X26970415Y-53634641D01*
X26973657Y-53635272D01*
X26976989Y-53635704D01*
X26980387Y-53635941D01*
X26983824Y-53635982D01*
X26987274Y-53635831D01*
X26990710Y-53635488D01*
X26994106Y-53634956D01*
X26997437Y-53634236D01*
X27000675Y-53633331D01*
X27003795Y-53632242D01*
X27006770Y-53630970D01*
X27009575Y-53629518D01*
X27012183Y-53627888D01*
X27575943Y-53241014D01*
X27577213Y-53240187D01*
X27578521Y-53239424D01*
X27579863Y-53238726D01*
X27581237Y-53238091D01*
X27582640Y-53237519D01*
X27584069Y-53237012D01*
X27585522Y-53236567D01*
X27586995Y-53236185D01*
X27588485Y-53235865D01*
X27589990Y-53235608D01*
X27593032Y-53235280D01*
X27596098Y-53235197D01*
X27599166Y-53235359D01*
X27602211Y-53235762D01*
X27605212Y-53236405D01*
X27608145Y-53237286D01*
X27609579Y-53237815D01*
X27610987Y-53238402D01*
X27612367Y-53239048D01*
X27613716Y-53239752D01*
X27615030Y-53240514D01*
X27616307Y-53241333D01*
X27617545Y-53242210D01*
X27618739Y-53243144D01*
X27619889Y-53244134D01*
X27620989Y-53245181D01*
X28095771Y-53719963D01*
X28096818Y-53721064D01*
X28097807Y-53722213D01*
X28098740Y-53723408D01*
X28099616Y-53724646D01*
X28100433Y-53725925D01*
X28101193Y-53727240D01*
X28102539Y-53729971D01*
X28103650Y-53732816D01*
X28104526Y-53735752D01*
X28105164Y-53738757D01*
X28105564Y-53741806D01*
X28105722Y-53744877D01*
X28105637Y-53747947D01*
X28105309Y-53750992D01*
X28104734Y-53753991D01*
X28103911Y-53756918D01*
X28103406Y-53758349D01*
X28102838Y-53759753D01*
X28102208Y-53761127D01*
X28101514Y-53762470D01*
X28100758Y-53763778D01*
X28099937Y-53765048D01*
X27719810Y-54319085D01*
X27718176Y-54321704D01*
X27716725Y-54324513D01*
X27715459Y-54327487D01*
X27714381Y-54330600D01*
X27713491Y-54333827D01*
X27712792Y-54337142D01*
X27712285Y-54340520D01*
X27711972Y-54343935D01*
X27711854Y-54347361D01*
X27711933Y-54350774D01*
X27712211Y-54354147D01*
X27712689Y-54357455D01*
X27713369Y-54360673D01*
X27714252Y-54363775D01*
X27715340Y-54366735D01*
X27716635Y-54369528D01*
X27916621Y-54836094D01*
X27917763Y-54838959D01*
X27919167Y-54841798D01*
X27920814Y-54844594D01*
X27922683Y-54847329D01*
X27924754Y-54849988D01*
X27927008Y-54852552D01*
X27929425Y-54855006D01*
X27931985Y-54857332D01*
X27934669Y-54859514D01*
X27937455Y-54861534D01*
X27940326Y-54863375D01*
X27943260Y-54865021D01*
X27946238Y-54866455D01*
X27949240Y-54867659D01*
X27952246Y-54868618D01*
X27955237Y-54869313D01*
X28607660Y-54990638D01*
X28609139Y-54990957D01*
X28610600Y-54991348D01*
X28612041Y-54991809D01*
X28613459Y-54992337D01*
X28614853Y-54992930D01*
X28616221Y-54993586D01*
X28617561Y-54994303D01*
X28618871Y-54995078D01*
X28621394Y-54996796D01*
X28623776Y-54998721D01*
X28626001Y-55000836D01*
X28628054Y-55003124D01*
X28629921Y-55005567D01*
X28631586Y-55008147D01*
X28633036Y-55010847D01*
X28633674Y-55012236D01*
X28634253Y-55013648D01*
X28634771Y-55015082D01*
X28635225Y-55016534D01*
X28635614Y-55018003D01*
X28635935Y-55019487D01*
X28636188Y-55020983D01*
X28636369Y-55022489D01*
X28636478Y-55024003D01*
X28636513Y-55025523D01*
X28636433Y-55696995D01*
X28636395Y-55698512D01*
X28636283Y-55700023D01*
X28636097Y-55701528D01*
X28635841Y-55703023D01*
X28635516Y-55704506D01*
X28635123Y-55705976D01*
X28634666Y-55707429D01*
X28634145Y-55708864D01*
X28633562Y-55710278D01*
X28632920Y-55711669D01*
X28632220Y-55713035D01*
X28631465Y-55714373D01*
X28630655Y-55715681D01*
X28629793Y-55716957D01*
X28628881Y-55718199D01*
X28627920Y-55719404D01*
X28626913Y-55720570D01*
X28625861Y-55721695D01*
X28624767Y-55722776D01*
X28623632Y-55723812D01*
X28622457Y-55724800D01*
X28621246Y-55725737D01*
X28619999Y-55726621D01*
X28618719Y-55727451D01*
X28617407Y-55728224D01*
X28616066Y-55728937D01*
X28614697Y-55729589D01*
X28613302Y-55730176D01*
X28611883Y-55730697D01*
X28610442Y-55731150D01*
X28608981Y-55731532D01*
X28607501Y-55731841D01*
X27971112Y-55850268D01*
X27969614Y-55850576D01*
X27968112Y-55850952D01*
X27966610Y-55851396D01*
X27965110Y-55851905D01*
X27962122Y-55853109D01*
X27959170Y-55854547D01*
X27956271Y-55856203D01*
X27953445Y-55858057D01*
X27950711Y-55860093D01*
X27948088Y-55862294D01*
X27945594Y-55864642D01*
X27943249Y-55867119D01*
X27941072Y-55869708D01*
X27939082Y-55872392D01*
X27937297Y-55875153D01*
X27935738Y-55877974D01*
X27934422Y-55880837D01*
X27933861Y-55882279D01*
X27933369Y-55883725D01*
X27734694Y-56380017D01*
X27733464Y-56382840D01*
X27732440Y-56385830D01*
X27731617Y-56388960D01*
X27730996Y-56392206D01*
X27730572Y-56395540D01*
X27730345Y-56398938D01*
X27730312Y-56402373D01*
X27730472Y-56405819D01*
X27730821Y-56409251D01*
X27731359Y-56412643D01*
X27732083Y-56415968D01*
X27732991Y-56419202D01*
X27734081Y-56422317D01*
X27735351Y-56425289D01*
X27736800Y-56428091D01*
X27738424Y-56430698D01*
X28099937Y-56957471D01*
X28100764Y-56958741D01*
X28101527Y-56960049D01*
X28102226Y-56961392D01*
X28102860Y-56962768D01*
X28103432Y-56964173D01*
X28103940Y-56965604D01*
X28104384Y-56967059D01*
X28104766Y-56968534D01*
X28105086Y-56970027D01*
X28105343Y-56971535D01*
X28105671Y-56974584D01*
X28105754Y-56977658D01*
X28105592Y-56980732D01*
X28105189Y-56983785D01*
X28104546Y-56986793D01*
X28103665Y-56989733D01*
X28103136Y-56991170D01*
X28102549Y-56992581D01*
X28101903Y-56993963D01*
X28101199Y-56995314D01*
X28100437Y-56996631D01*
X28099618Y-56997910D01*
X28098741Y-56999149D01*
X28097808Y-57000345D01*
X28096817Y-57001494D01*
X28095770Y-57002595D01*
X27620909Y-57477377D01*
X27619815Y-57478416D01*
X27618672Y-57479400D01*
X27617483Y-57480328D01*
X27616250Y-57481199D01*
X27614976Y-57482013D01*
X27613665Y-57482770D01*
X27610941Y-57484111D01*
X27608100Y-57485221D01*
X27605167Y-57486097D01*
X27602164Y-57486737D01*
X27599116Y-57487140D01*
X27596044Y-57487302D01*
X27592973Y-57487223D01*
X27589926Y-57486899D01*
X27586926Y-57486329D01*
X27583996Y-57485510D01*
X27582565Y-57485007D01*
X27581161Y-57484441D01*
X27579785Y-57483812D01*
X27578442Y-57483120D01*
X27577134Y-57482364D01*
X27575864Y-57481544D01*
X27058378Y-57126381D01*
X27055777Y-57124761D01*
X27052991Y-57123341D01*
X27050045Y-57122121D01*
X27046966Y-57121102D01*
X27043777Y-57120284D01*
X27040505Y-57119666D01*
X27037175Y-57119251D01*
X27033812Y-57119038D01*
X27030441Y-57119028D01*
X27027089Y-57119221D01*
X27023779Y-57119618D01*
X27020539Y-57120219D01*
X27017392Y-57121025D01*
X27014365Y-57122036D01*
X27011482Y-57123252D01*
X27008769Y-57124674D01*
X26780566Y-57246515D01*
X26779201Y-57247163D01*
X26777825Y-57247734D01*
X26776441Y-57248227D01*
X26775049Y-57248643D01*
X26773654Y-57248983D01*
X26772256Y-57249249D01*
X26770859Y-57249440D01*
X26769465Y-57249558D01*
X26768076Y-57249604D01*
X26766695Y-57249578D01*
X26765324Y-57249482D01*
X26763966Y-57249316D01*
X26762622Y-57249082D01*
X26761295Y-57248779D01*
X26759988Y-57248409D01*
X26758703Y-57247973D01*
X26757442Y-57247472D01*
X26756208Y-57246906D01*
X26755003Y-57246277D01*
X26753829Y-57245584D01*
X26752689Y-57244831D01*
X26751586Y-57244016D01*
X26750520Y-57243140D01*
X26749496Y-57242206D01*
X26748515Y-57241213D01*
X26747580Y-57240163D01*
X26746693Y-57239056D01*
X26745856Y-57237894D01*
X26745072Y-57236676D01*
X26744344Y-57235405D01*
X26743672Y-57234080D01*
X26743061Y-57232704D01*
X26272566Y-56095736D01*
X26272022Y-56094322D01*
X26271550Y-56092886D01*
X26271149Y-56091431D01*
X26270818Y-56089960D01*
X26270557Y-56088476D01*
X26270365Y-56086982D01*
X26270239Y-56085479D01*
X26270181Y-56083971D01*
X26270188Y-56082461D01*
X26270260Y-56080950D01*
X26270396Y-56079443D01*
X26270594Y-56077941D01*
X26270855Y-56076447D01*
X26271177Y-56074964D01*
X26271559Y-56073495D01*
X26272000Y-56072043D01*
X26272500Y-56070609D01*
X26273057Y-56069197D01*
X26273671Y-56067810D01*
X26274340Y-56066449D01*
X26275064Y-56065119D01*
X26275842Y-56063821D01*
X26276673Y-56062559D01*
X26277555Y-56061334D01*
X26278489Y-56060150D01*
X26279473Y-56059010D01*
X26280506Y-56057916D01*
X26281587Y-56056870D01*
X26282716Y-56055876D01*
X26283891Y-56054937D01*
X26285112Y-56054054D01*
X26286377Y-56053231D01*
X26343487Y-56018266D01*
X26347598Y-56015648D01*
X26351987Y-56012660D01*
X26356571Y-56009367D01*
X26361267Y-56005834D01*
X26365994Y-56002126D01*
X26370667Y-55998308D01*
X26375205Y-55994446D01*
X26379524Y-55990604D01*
X26417330Y-55964726D01*
X26453410Y-55936630D01*
X26487667Y-55906412D01*
X26520001Y-55874171D01*
X26550315Y-55840004D01*
X26578509Y-55804010D01*
X26604486Y-55766286D01*
X26628146Y-55726930D01*
X26649392Y-55686041D01*
X26668124Y-55643715D01*
X26684245Y-55600051D01*
X26697655Y-55555148D01*
X26708257Y-55509102D01*
X26715951Y-55462011D01*
X26720640Y-55413975D01*
X26722225Y-55365089D01*
X26721259Y-55326875D01*
X26718391Y-55289162D01*
X26713669Y-55251998D01*
X26707139Y-55215429D01*
X26698847Y-55179501D01*
X26688841Y-55144262D01*
X26677166Y-55109758D01*
X26663870Y-55076035D01*
X26649000Y-55043141D01*
X26632601Y-55011122D01*
X26614721Y-54980024D01*
X26595406Y-54949895D01*
X26574703Y-54920781D01*
X26552659Y-54892728D01*
X26529320Y-54865783D01*
X26504733Y-54839994D01*
X26478944Y-54815406D01*
X26452001Y-54792066D01*
X26423949Y-54770021D01*
X26394836Y-54749318D01*
X26364709Y-54730002D01*
X26333613Y-54712122D01*
X26301595Y-54695723D01*
X26268703Y-54680852D01*
X26234983Y-54667556D01*
X26200481Y-54655881D01*
X26165244Y-54645875D01*
X26129320Y-54637583D01*
X26092753Y-54631053D01*
X26055592Y-54626330D01*
X26017883Y-54623463D01*
X25979672Y-54622496D01*
X25941461Y-54623463D01*
X25903752Y-54626330D01*
X25866590Y-54631053D01*
X25830023Y-54637583D01*
X25794097Y-54645875D01*
X25758860Y-54655881D01*
X25724357Y-54667556D01*
X25690635Y-54680852D01*
X25657741Y-54695723D01*
X25625722Y-54712122D01*
X25594625Y-54730002D01*
X25564495Y-54749318D01*
X25535381Y-54770021D01*
X25507327Y-54792066D01*
X25480382Y-54815406D01*
X25454592Y-54839994D01*
X25430003Y-54865783D01*
X25406662Y-54892728D01*
X25384616Y-54920781D01*
X25363911Y-54949895D01*
X25344594Y-54980024D01*
X25326713Y-55011122D01*
X25310313Y-55043141D01*
X25295441Y-55076035D01*
X25282143Y-55109758D01*
X25270468Y-55144262D01*
X25260460Y-55179501D01*
X25252168Y-55215429D01*
X25245637Y-55251998D01*
X25240914Y-55289162D01*
X25238046Y-55326875D01*
X25237079Y-55365089D01*
X25237478Y-55389632D01*
X25238665Y-55413975D01*
X25240628Y-55438105D01*
X25243355Y-55462011D01*
X25246834Y-55485681D01*
X25251051Y-55509102D01*
X25255996Y-55532261D01*
X25261655Y-55555148D01*
X25268017Y-55577749D01*
X25275068Y-55600052D01*
X25282797Y-55622044D01*
X25291191Y-55643715D01*
X25300238Y-55665051D01*
X25309926Y-55686041D01*
X25331174Y-55726930D01*
X25354835Y-55766286D01*
X25380813Y-55804010D01*
X25409007Y-55840004D01*
X25439320Y-55874171D01*
X25471653Y-55906412D01*
X25505906Y-55936630D01*
X25541982Y-55964726D01*
X25579781Y-55990604D01*
X25584125Y-55994446D01*
X25588678Y-55998308D01*
X25593361Y-56002126D01*
X25598092Y-56005834D01*
X25602792Y-56009367D01*
X25607380Y-56012660D01*
X25611775Y-56015648D01*
X25615897Y-56018266D01*
X25673007Y-56053231D01*
X25674280Y-56054054D01*
X25675507Y-56054937D01*
X25676688Y-56055876D01*
X25677822Y-56056870D01*
X25678907Y-56057916D01*
X25679944Y-56059010D01*
X25681868Y-56061334D01*
X25683585Y-56063821D01*
X25685089Y-56066449D01*
X25686373Y-56069197D01*
X25687429Y-56072043D01*
X25688249Y-56074964D01*
X25688828Y-56077941D01*
X25689158Y-56080950D01*
X25689231Y-56083971D01*
X25689041Y-56086982D01*
X25688845Y-56088476D01*
X25688580Y-56089960D01*
X25688246Y-56091431D01*
X25687842Y-56092886D01*
X25687366Y-56094322D01*
X25686819Y-56095736D01*
X25216284Y-57232664D01*
X25215673Y-57234041D01*
X25215001Y-57235366D01*
X25214272Y-57236638D01*
X25213487Y-57237856D01*
X25212650Y-57239020D01*
X25211762Y-57240127D01*
X25210825Y-57241179D01*
X25209843Y-57242172D01*
X25208818Y-57243108D01*
X25207751Y-57243984D01*
X25206646Y-57244800D01*
X25205505Y-57245556D01*
X25204330Y-57246249D01*
X25203124Y-57246880D01*
X25201889Y-57247446D01*
X25200627Y-57247949D01*
X25199341Y-57248386D01*
X25198033Y-57248756D01*
X25196706Y-57249059D01*
X25195362Y-57249294D01*
X25194003Y-57249461D01*
X25192632Y-57249557D01*
X25191251Y-57249582D01*
X25189863Y-57249536D01*
X25188470Y-57249417D01*
X25187074Y-57249224D01*
X25185678Y-57248957D01*
X25184284Y-57248615D01*
X25182895Y-57248197D01*
X25181513Y-57247701D01*
X25180140Y-57247128D01*
X25178779Y-57246475D01*
X24950576Y-57124635D01*
X24947870Y-57123213D01*
X24944992Y-57121998D01*
X24941968Y-57120989D01*
X24938823Y-57120185D01*
X24935583Y-57119587D01*
X24932274Y-57119192D01*
X24928920Y-57119002D01*
X24925548Y-57119014D01*
X24922183Y-57119228D01*
X24918850Y-57119645D01*
X24915576Y-57120262D01*
X24912385Y-57121080D01*
X24909303Y-57122097D01*
X24906355Y-57123313D01*
X24903568Y-57124728D01*
X24900967Y-57126341D01*
X24383521Y-57481505D01*
X24382247Y-57482325D01*
X24380936Y-57483081D01*
X24379590Y-57483773D01*
X24378212Y-57484402D01*
X24376806Y-57484968D01*
X24375373Y-57485471D01*
X24373917Y-57485911D01*
X24372441Y-57486289D01*
X24370948Y-57486605D01*
X24369440Y-57486859D01*
X24366392Y-57487183D01*
X24363321Y-57487263D01*
X24360249Y-57487100D01*
X24357200Y-57486698D01*
X24354197Y-57486058D01*
X24351263Y-57485182D01*
X24349830Y-57484656D01*
X24348422Y-57484072D01*
X24347042Y-57483430D01*
X24345695Y-57482730D01*
X24344382Y-57481973D01*
X24343106Y-57481159D01*
X24341871Y-57480289D01*
X24340679Y-57479361D01*
X24339533Y-57478377D01*
X24338436Y-57477337D01*
X23863575Y-57002556D01*
X23862531Y-57001455D01*
X23861544Y-57000305D01*
X23860614Y-56999110D01*
X23859740Y-56997871D01*
X23858923Y-56996592D01*
X23858164Y-56995275D01*
X23856818Y-56992542D01*
X23855705Y-56989693D01*
X23854827Y-56986754D01*
X23854185Y-56983746D01*
X23853782Y-56980693D01*
X23853620Y-56977618D01*
X23853701Y-56974545D01*
X23854027Y-56971496D01*
X23854601Y-56968495D01*
X23855423Y-56965564D01*
X23855929Y-56964133D01*
X23856497Y-56962728D01*
X23857129Y-56961353D01*
X23857825Y-56960009D01*
X23858584Y-56958701D01*
X23859408Y-56957431D01*
X24220881Y-56430659D01*
X24222519Y-56428052D01*
X24223978Y-56425250D01*
X24225257Y-56422278D01*
X24226354Y-56419162D01*
X24227267Y-56415929D01*
X24227994Y-56412603D01*
X24228533Y-56409212D01*
X24228883Y-56405780D01*
X24229042Y-56402333D01*
X24229008Y-56398898D01*
X24228780Y-56395501D01*
X24228354Y-56392166D01*
X24227731Y-56388921D01*
X24226907Y-56385791D01*
X24225881Y-56382801D01*
X24224652Y-56379978D01*
X24025976Y-55883686D01*
X24025487Y-55882240D01*
X24024929Y-55880798D01*
X24023615Y-55877934D01*
X24022055Y-55875114D01*
X24020268Y-55872353D01*
X24018273Y-55869669D01*
X24016090Y-55867079D01*
X24013738Y-55864602D01*
X24011237Y-55862255D01*
X24008606Y-55860054D01*
X24005865Y-55858018D01*
X24003033Y-55856163D01*
X24000130Y-55854508D01*
X23997175Y-55853070D01*
X23994188Y-55851865D01*
X23991187Y-55850913D01*
X23989688Y-55850536D01*
X23988194Y-55850229D01*
X23351805Y-55731802D01*
X23350321Y-55731493D01*
X23348857Y-55731111D01*
X23347413Y-55730658D01*
X23345992Y-55730137D01*
X23344595Y-55729549D01*
X23343225Y-55728898D01*
X23341882Y-55728184D01*
X23340570Y-55727412D01*
X23339289Y-55726582D01*
X23338042Y-55725697D01*
X23335656Y-55723773D01*
X23333428Y-55721656D01*
X23331370Y-55719365D01*
X23329500Y-55716918D01*
X23327830Y-55714333D01*
X23326377Y-55711629D01*
X23325155Y-55708824D01*
X23324635Y-55707390D01*
X23324179Y-55705936D01*
X23323787Y-55704467D01*
X23323463Y-55702983D01*
X23323207Y-55701488D01*
X23323022Y-55699984D01*
X23322910Y-55698472D01*
X23322872Y-55696956D01*
X23322833Y-55025483D01*
X23322870Y-55023967D01*
X23322982Y-55022457D01*
X23323167Y-55020954D01*
X23323422Y-55019461D01*
X23323745Y-55017980D01*
X23324136Y-55016513D01*
X23324591Y-55015063D01*
X23325110Y-55013632D01*
X23325690Y-55012221D01*
X23326330Y-55010834D01*
X23327027Y-55009472D01*
X23327780Y-55008137D01*
X23328588Y-55006833D01*
X23329447Y-55005560D01*
X23330357Y-55004321D01*
X23331316Y-55003119D01*
X23332321Y-55001956D01*
X23333371Y-55000833D01*
X23334465Y-54999753D01*
X23335599Y-54998719D01*
X23336773Y-54997732D01*
X23337985Y-54996795D01*
X23339232Y-54995909D01*
X23340514Y-54995078D01*
X23341827Y-54994302D01*
X23343170Y-54993586D01*
X23344542Y-54992930D01*
X23345941Y-54992337D01*
X23347364Y-54991809D01*
X23348811Y-54991348D01*
X23350278Y-54990957D01*
X23351765Y-54990638D01*
X24004148Y-54869313D01*
X24005647Y-54868999D01*
X24007153Y-54868618D01*
X24010170Y-54867659D01*
X24013180Y-54866455D01*
X24016165Y-54865021D01*
X24019103Y-54863375D01*
X24021975Y-54861534D01*
X24024762Y-54859514D01*
X24027445Y-54857332D01*
X24030002Y-54855006D01*
X24032415Y-54852552D01*
X24034665Y-54849988D01*
X24036730Y-54847329D01*
X24038593Y-54844594D01*
X24040232Y-54841798D01*
X24041629Y-54838959D01*
X24042230Y-54837529D01*
X24042764Y-54836094D01*
X24242789Y-54369528D01*
X24244077Y-54366735D01*
X24245159Y-54363775D01*
X24246038Y-54360673D01*
X24246714Y-54357455D01*
X24247189Y-54354147D01*
X24247465Y-54350774D01*
X24247544Y-54347361D01*
X24247427Y-54343935D01*
X24247117Y-54340520D01*
X24246614Y-54337142D01*
X24245921Y-54333827D01*
X24245038Y-54330600D01*
X24243969Y-54327487D01*
X24242714Y-54324513D01*
X24241275Y-54321704D01*
X24239654Y-54319085D01*
X23859487Y-53765048D01*
X23858660Y-53763778D01*
X23857897Y-53762470D01*
X23857199Y-53761127D01*
X23856565Y-53759753D01*
X23855995Y-53758349D01*
X23855488Y-53756918D01*
X23855044Y-53755465D01*
X23854663Y-53753991D01*
X23854345Y-53752499D01*
X23854089Y-53750992D01*
X23853763Y-53747947D01*
X23853683Y-53744877D01*
X23853847Y-53741806D01*
X23854251Y-53738757D01*
X23854896Y-53735752D01*
X23855776Y-53732816D01*
X23856305Y-53731381D01*
X23856892Y-53729971D01*
X23857537Y-53728590D01*
X23858240Y-53727240D01*
X23859000Y-53725925D01*
X23859818Y-53724646D01*
X23860692Y-53723408D01*
X23861623Y-53722213D01*
X23862611Y-53721064D01*
X23863654Y-53719963D01*
X24338476Y-53245182D01*
X24339573Y-53244134D01*
X24340719Y-53243144D01*
X24341911Y-53242210D01*
X24343146Y-53241333D01*
X24344422Y-53240514D01*
X24345735Y-53239752D01*
X24348462Y-53238402D01*
X24351303Y-53237286D01*
X24354237Y-53236405D01*
X24357240Y-53235762D01*
X24360289Y-53235359D01*
X24363361Y-53235197D01*
X24366432Y-53235280D01*
X24369480Y-53235608D01*
X24372481Y-53236185D01*
X24375413Y-53237012D01*
X24376846Y-53237520D01*
X24378252Y-53238091D01*
X24379630Y-53238726D01*
X24380976Y-53239424D01*
X24382287Y-53240187D01*
X24383561Y-53241014D01*
X24947282Y-53627888D01*
X24949883Y-53629518D01*
X24952681Y-53630970D01*
X24955651Y-53632242D01*
X24958767Y-53633331D01*
X24962002Y-53634236D01*
X24965330Y-53634956D01*
X24968725Y-53635488D01*
X24972161Y-53635831D01*
X24975611Y-53635982D01*
X24979049Y-53635941D01*
X24982450Y-53635705D01*
X24985786Y-53635272D01*
X24989031Y-53634641D01*
X24992160Y-53633810D01*
X24995146Y-53632776D01*
X24997963Y-53631539D01*
X25450281Y-53446397D01*
X25453160Y-53445306D01*
X25456011Y-53443951D01*
X25458817Y-53442351D01*
X25461562Y-53440526D01*
X25464229Y-53438496D01*
X25466801Y-53436281D01*
X25469261Y-53433899D01*
X25471593Y-53431370D01*
X25473780Y-53428715D01*
X25475805Y-53425952D01*
X25477652Y-53423102D01*
X25479303Y-53420183D01*
X25480742Y-53417216D01*
X25481952Y-53414219D01*
X25482916Y-53411213D01*
X25483619Y-53408218D01*
X25609190Y-52733411D01*
X25609502Y-52731928D01*
X25609887Y-52730464D01*
X25610342Y-52729020D01*
X25610865Y-52727599D01*
X25611453Y-52726202D01*
X25612105Y-52724831D01*
X25612818Y-52723489D01*
X25613590Y-52722177D01*
X25614418Y-52720896D01*
X25615301Y-52719649D01*
X25617222Y-52717263D01*
X25619333Y-52715034D01*
X25621617Y-52712977D01*
X25624056Y-52711106D01*
X25626632Y-52709437D01*
X25629327Y-52707984D01*
X25630713Y-52707343D01*
X25632123Y-52706762D01*
X25633553Y-52706242D01*
X25635001Y-52705785D01*
X25636466Y-52705394D01*
X25637945Y-52705069D01*
X25639436Y-52704814D01*
X25640936Y-52704629D01*
X25642444Y-52704517D01*
X25643956Y-52704479D01*
X26315469Y-52704479D01*
X26316985Y-52704517D01*
D11*
X30038779Y-67243386D02*
X30038779Y-69656386D01*
D13*
X28937292Y-59651493D02*
X29370625Y-59032445D01*
X29680149Y-59651493D02*
X29680149Y-58351493D01*
X29680149Y-58351493D02*
X29184911Y-58351493D01*
X29184911Y-58351493D02*
X29061101Y-58413398D01*
X29061101Y-58413398D02*
X28999196Y-58475302D01*
X28999196Y-58475302D02*
X28937292Y-58599112D01*
X28937292Y-58599112D02*
X28937292Y-58784826D01*
X28937292Y-58784826D02*
X28999196Y-58908636D01*
X28999196Y-58908636D02*
X29061101Y-58970540D01*
X29061101Y-58970540D02*
X29184911Y-59032445D01*
X29184911Y-59032445D02*
X29680149Y-59032445D01*
X28380149Y-59651493D02*
X28380149Y-58351493D01*
X28380149Y-58351493D02*
X27884911Y-58351493D01*
X27884911Y-58351493D02*
X27761101Y-58413398D01*
X27761101Y-58413398D02*
X27699196Y-58475302D01*
X27699196Y-58475302D02*
X27637292Y-58599112D01*
X27637292Y-58599112D02*
X27637292Y-58784826D01*
X27637292Y-58784826D02*
X27699196Y-58908636D01*
X27699196Y-58908636D02*
X27761101Y-58970540D01*
X27761101Y-58970540D02*
X27884911Y-59032445D01*
X27884911Y-59032445D02*
X28380149Y-59032445D01*
X27080149Y-59651493D02*
X27080149Y-58351493D01*
X27080149Y-58351493D02*
X26646815Y-59280064D01*
X26646815Y-59280064D02*
X26213482Y-58351493D01*
X26213482Y-58351493D02*
X26213482Y-59651493D01*
X25594435Y-59651493D02*
X25594435Y-58784826D01*
X25594435Y-58351493D02*
X25656339Y-58413398D01*
X25656339Y-58413398D02*
X25594435Y-58475302D01*
X25594435Y-58475302D02*
X25532530Y-58413398D01*
X25532530Y-58413398D02*
X25594435Y-58351493D01*
X25594435Y-58351493D02*
X25594435Y-58475302D01*
X24418244Y-59589588D02*
X24542053Y-59651493D01*
X24542053Y-59651493D02*
X24789672Y-59651493D01*
X24789672Y-59651493D02*
X24913482Y-59589588D01*
X24913482Y-59589588D02*
X24975387Y-59527683D01*
X24975387Y-59527683D02*
X25037291Y-59403874D01*
X25037291Y-59403874D02*
X25037291Y-59032445D01*
X25037291Y-59032445D02*
X24975387Y-58908636D01*
X24975387Y-58908636D02*
X24913482Y-58846731D01*
X24913482Y-58846731D02*
X24789672Y-58784826D01*
X24789672Y-58784826D02*
X24542053Y-58784826D01*
X24542053Y-58784826D02*
X24418244Y-58846731D01*
X23861101Y-59651493D02*
X23861101Y-58784826D01*
X23861101Y-59032445D02*
X23799196Y-58908636D01*
X23799196Y-58908636D02*
X23737291Y-58846731D01*
X23737291Y-58846731D02*
X23613482Y-58784826D01*
X23613482Y-58784826D02*
X23489672Y-58784826D01*
X22870624Y-59651493D02*
X22994434Y-59589588D01*
X22994434Y-59589588D02*
X23056339Y-59527683D01*
X23056339Y-59527683D02*
X23118243Y-59403874D01*
X23118243Y-59403874D02*
X23118243Y-59032445D01*
X23118243Y-59032445D02*
X23056339Y-58908636D01*
X23056339Y-58908636D02*
X22994434Y-58846731D01*
X22994434Y-58846731D02*
X22870624Y-58784826D01*
X22870624Y-58784826D02*
X22684910Y-58784826D01*
X22684910Y-58784826D02*
X22561101Y-58846731D01*
X22561101Y-58846731D02*
X22499196Y-58908636D01*
X22499196Y-58908636D02*
X22437291Y-59032445D01*
X22437291Y-59032445D02*
X22437291Y-59403874D01*
X22437291Y-59403874D02*
X22499196Y-59527683D01*
X22499196Y-59527683D02*
X22561101Y-59589588D01*
X22561101Y-59589588D02*
X22684910Y-59651493D01*
X22684910Y-59651493D02*
X22870624Y-59651493D01*
D14*
X29679428Y-25470761D02*
X29574666Y-25366000D01*
X29574666Y-25366000D02*
X29365142Y-25261238D01*
X29365142Y-25261238D02*
X28841333Y-25261238D01*
X28841333Y-25261238D02*
X28631809Y-25366000D01*
X28631809Y-25366000D02*
X28527047Y-25470761D01*
X28527047Y-25470761D02*
X28422285Y-25680285D01*
X28422285Y-25680285D02*
X28422285Y-25889809D01*
X28422285Y-25889809D02*
X28527047Y-26204095D01*
X28527047Y-26204095D02*
X29784190Y-27461238D01*
X29784190Y-27461238D02*
X28422285Y-27461238D01*
X27060380Y-25261238D02*
X26850857Y-25261238D01*
X26850857Y-25261238D02*
X26641333Y-25366000D01*
X26641333Y-25366000D02*
X26536571Y-25470761D01*
X26536571Y-25470761D02*
X26431809Y-25680285D01*
X26431809Y-25680285D02*
X26327047Y-26099333D01*
X26327047Y-26099333D02*
X26327047Y-26623142D01*
X26327047Y-26623142D02*
X26431809Y-27042190D01*
X26431809Y-27042190D02*
X26536571Y-27251714D01*
X26536571Y-27251714D02*
X26641333Y-27356476D01*
X26641333Y-27356476D02*
X26850857Y-27461238D01*
X26850857Y-27461238D02*
X27060380Y-27461238D01*
X27060380Y-27461238D02*
X27269904Y-27356476D01*
X27269904Y-27356476D02*
X27374666Y-27251714D01*
X27374666Y-27251714D02*
X27479428Y-27042190D01*
X27479428Y-27042190D02*
X27584190Y-26623142D01*
X27584190Y-26623142D02*
X27584190Y-26099333D01*
X27584190Y-26099333D02*
X27479428Y-25680285D01*
X27479428Y-25680285D02*
X27374666Y-25470761D01*
X27374666Y-25470761D02*
X27269904Y-25366000D01*
X27269904Y-25366000D02*
X27060380Y-25261238D01*
X25488952Y-25470761D02*
X25384190Y-25366000D01*
X25384190Y-25366000D02*
X25174666Y-25261238D01*
X25174666Y-25261238D02*
X24650857Y-25261238D01*
X24650857Y-25261238D02*
X24441333Y-25366000D01*
X24441333Y-25366000D02*
X24336571Y-25470761D01*
X24336571Y-25470761D02*
X24231809Y-25680285D01*
X24231809Y-25680285D02*
X24231809Y-25889809D01*
X24231809Y-25889809D02*
X24336571Y-26204095D01*
X24336571Y-26204095D02*
X25593714Y-27461238D01*
X25593714Y-27461238D02*
X24231809Y-27461238D01*
X23498476Y-25261238D02*
X22136571Y-25261238D01*
X22136571Y-25261238D02*
X22869904Y-26099333D01*
X22869904Y-26099333D02*
X22555619Y-26099333D01*
X22555619Y-26099333D02*
X22346095Y-26204095D01*
X22346095Y-26204095D02*
X22241333Y-26308857D01*
X22241333Y-26308857D02*
X22136571Y-26518380D01*
X22136571Y-26518380D02*
X22136571Y-27042190D01*
X22136571Y-27042190D02*
X22241333Y-27251714D01*
X22241333Y-27251714D02*
X22346095Y-27356476D01*
X22346095Y-27356476D02*
X22555619Y-27461238D01*
X22555619Y-27461238D02*
X23184190Y-27461238D01*
X23184190Y-27461238D02*
X23393714Y-27356476D01*
X23393714Y-27356476D02*
X23498476Y-27251714D01*
X37330380Y-21312143D02*
X37411332Y-21393096D01*
X37411332Y-21393096D02*
X37654190Y-21474048D01*
X37654190Y-21474048D02*
X37816094Y-21474048D01*
X37816094Y-21474048D02*
X38058951Y-21393096D01*
X38058951Y-21393096D02*
X38220856Y-21231191D01*
X38220856Y-21231191D02*
X38301809Y-21069286D01*
X38301809Y-21069286D02*
X38382761Y-20745477D01*
X38382761Y-20745477D02*
X38382761Y-20502620D01*
X38382761Y-20502620D02*
X38301809Y-20178810D01*
X38301809Y-20178810D02*
X38220856Y-20016905D01*
X38220856Y-20016905D02*
X38058951Y-19855001D01*
X38058951Y-19855001D02*
X37816094Y-19774048D01*
X37816094Y-19774048D02*
X37654190Y-19774048D01*
X37654190Y-19774048D02*
X37411332Y-19855001D01*
X37411332Y-19855001D02*
X37330380Y-19935953D01*
X36601809Y-21474048D02*
X36601809Y-19774048D01*
X35873237Y-21474048D02*
X35873237Y-20583572D01*
X35873237Y-20583572D02*
X35954190Y-20421667D01*
X35954190Y-20421667D02*
X36116094Y-20340715D01*
X36116094Y-20340715D02*
X36358951Y-20340715D01*
X36358951Y-20340715D02*
X36520856Y-20421667D01*
X36520856Y-20421667D02*
X36601809Y-20502620D01*
X34335142Y-21474048D02*
X34335142Y-20583572D01*
X34335142Y-20583572D02*
X34416095Y-20421667D01*
X34416095Y-20421667D02*
X34577999Y-20340715D01*
X34577999Y-20340715D02*
X34901809Y-20340715D01*
X34901809Y-20340715D02*
X35063714Y-20421667D01*
X34335142Y-21393096D02*
X34497047Y-21474048D01*
X34497047Y-21474048D02*
X34901809Y-21474048D01*
X34901809Y-21474048D02*
X35063714Y-21393096D01*
X35063714Y-21393096D02*
X35144666Y-21231191D01*
X35144666Y-21231191D02*
X35144666Y-21069286D01*
X35144666Y-21069286D02*
X35063714Y-20907381D01*
X35063714Y-20907381D02*
X34901809Y-20826429D01*
X34901809Y-20826429D02*
X34497047Y-20826429D01*
X34497047Y-20826429D02*
X34335142Y-20745477D01*
X33282761Y-21474048D02*
X33444666Y-21393096D01*
X33444666Y-21393096D02*
X33525619Y-21231191D01*
X33525619Y-21231191D02*
X33525619Y-19774048D01*
X32392285Y-21474048D02*
X32554190Y-21393096D01*
X32554190Y-21393096D02*
X32635143Y-21231191D01*
X32635143Y-21231191D02*
X32635143Y-19774048D01*
X31097048Y-21393096D02*
X31258952Y-21474048D01*
X31258952Y-21474048D02*
X31582762Y-21474048D01*
X31582762Y-21474048D02*
X31744667Y-21393096D01*
X31744667Y-21393096D02*
X31825619Y-21231191D01*
X31825619Y-21231191D02*
X31825619Y-20583572D01*
X31825619Y-20583572D02*
X31744667Y-20421667D01*
X31744667Y-20421667D02*
X31582762Y-20340715D01*
X31582762Y-20340715D02*
X31258952Y-20340715D01*
X31258952Y-20340715D02*
X31097048Y-20421667D01*
X31097048Y-20421667D02*
X31016095Y-20583572D01*
X31016095Y-20583572D02*
X31016095Y-20745477D01*
X31016095Y-20745477D02*
X31825619Y-20907381D01*
X30287524Y-20340715D02*
X30287524Y-21474048D01*
X30287524Y-20502620D02*
X30206571Y-20421667D01*
X30206571Y-20421667D02*
X30044666Y-20340715D01*
X30044666Y-20340715D02*
X29801809Y-20340715D01*
X29801809Y-20340715D02*
X29639905Y-20421667D01*
X29639905Y-20421667D02*
X29558952Y-20583572D01*
X29558952Y-20583572D02*
X29558952Y-21474048D01*
X28020857Y-20340715D02*
X28020857Y-21716905D01*
X28020857Y-21716905D02*
X28101810Y-21878810D01*
X28101810Y-21878810D02*
X28182762Y-21959762D01*
X28182762Y-21959762D02*
X28344667Y-22040715D01*
X28344667Y-22040715D02*
X28587524Y-22040715D01*
X28587524Y-22040715D02*
X28749429Y-21959762D01*
X28020857Y-21393096D02*
X28182762Y-21474048D01*
X28182762Y-21474048D02*
X28506571Y-21474048D01*
X28506571Y-21474048D02*
X28668476Y-21393096D01*
X28668476Y-21393096D02*
X28749429Y-21312143D01*
X28749429Y-21312143D02*
X28830381Y-21150239D01*
X28830381Y-21150239D02*
X28830381Y-20664524D01*
X28830381Y-20664524D02*
X28749429Y-20502620D01*
X28749429Y-20502620D02*
X28668476Y-20421667D01*
X28668476Y-20421667D02*
X28506571Y-20340715D01*
X28506571Y-20340715D02*
X28182762Y-20340715D01*
X28182762Y-20340715D02*
X28020857Y-20421667D01*
X26563715Y-21393096D02*
X26725619Y-21474048D01*
X26725619Y-21474048D02*
X27049429Y-21474048D01*
X27049429Y-21474048D02*
X27211334Y-21393096D01*
X27211334Y-21393096D02*
X27292286Y-21231191D01*
X27292286Y-21231191D02*
X27292286Y-20583572D01*
X27292286Y-20583572D02*
X27211334Y-20421667D01*
X27211334Y-20421667D02*
X27049429Y-20340715D01*
X27049429Y-20340715D02*
X26725619Y-20340715D01*
X26725619Y-20340715D02*
X26563715Y-20421667D01*
X26563715Y-20421667D02*
X26482762Y-20583572D01*
X26482762Y-20583572D02*
X26482762Y-20745477D01*
X26482762Y-20745477D02*
X27292286Y-20907381D01*
X24977048Y-20340715D02*
X24329429Y-20340715D01*
X24734191Y-19774048D02*
X24734191Y-21231191D01*
X24734191Y-21231191D02*
X24653238Y-21393096D01*
X24653238Y-21393096D02*
X24491333Y-21474048D01*
X24491333Y-21474048D02*
X24329429Y-21474048D01*
X23762762Y-21474048D02*
X23762762Y-19774048D01*
X23034190Y-21474048D02*
X23034190Y-20583572D01*
X23034190Y-20583572D02*
X23115143Y-20421667D01*
X23115143Y-20421667D02*
X23277047Y-20340715D01*
X23277047Y-20340715D02*
X23519904Y-20340715D01*
X23519904Y-20340715D02*
X23681809Y-20421667D01*
X23681809Y-20421667D02*
X23762762Y-20502620D01*
X21577048Y-21393096D02*
X21738952Y-21474048D01*
X21738952Y-21474048D02*
X22062762Y-21474048D01*
X22062762Y-21474048D02*
X22224667Y-21393096D01*
X22224667Y-21393096D02*
X22305619Y-21231191D01*
X22305619Y-21231191D02*
X22305619Y-20583572D01*
X22305619Y-20583572D02*
X22224667Y-20421667D01*
X22224667Y-20421667D02*
X22062762Y-20340715D01*
X22062762Y-20340715D02*
X21738952Y-20340715D01*
X21738952Y-20340715D02*
X21577048Y-20421667D01*
X21577048Y-20421667D02*
X21496095Y-20583572D01*
X21496095Y-20583572D02*
X21496095Y-20745477D01*
X21496095Y-20745477D02*
X22305619Y-20907381D01*
X18776095Y-21312143D02*
X18857047Y-21393096D01*
X18857047Y-21393096D02*
X19099905Y-21474048D01*
X19099905Y-21474048D02*
X19261809Y-21474048D01*
X19261809Y-21474048D02*
X19504666Y-21393096D01*
X19504666Y-21393096D02*
X19666571Y-21231191D01*
X19666571Y-21231191D02*
X19747524Y-21069286D01*
X19747524Y-21069286D02*
X19828476Y-20745477D01*
X19828476Y-20745477D02*
X19828476Y-20502620D01*
X19828476Y-20502620D02*
X19747524Y-20178810D01*
X19747524Y-20178810D02*
X19666571Y-20016905D01*
X19666571Y-20016905D02*
X19504666Y-19855001D01*
X19504666Y-19855001D02*
X19261809Y-19774048D01*
X19261809Y-19774048D02*
X19099905Y-19774048D01*
X19099905Y-19774048D02*
X18857047Y-19855001D01*
X18857047Y-19855001D02*
X18776095Y-19935953D01*
X18209428Y-20340715D02*
X17804666Y-21474048D01*
X17399905Y-20340715D02*
X17804666Y-21474048D01*
X17804666Y-21474048D02*
X17966571Y-21878810D01*
X17966571Y-21878810D02*
X18047524Y-21959762D01*
X18047524Y-21959762D02*
X18209428Y-22040715D01*
X16752286Y-21474048D02*
X16752286Y-19774048D01*
X16752286Y-20421667D02*
X16590381Y-20340715D01*
X16590381Y-20340715D02*
X16266571Y-20340715D01*
X16266571Y-20340715D02*
X16104667Y-20421667D01*
X16104667Y-20421667D02*
X16023714Y-20502620D01*
X16023714Y-20502620D02*
X15942762Y-20664524D01*
X15942762Y-20664524D02*
X15942762Y-21150239D01*
X15942762Y-21150239D02*
X16023714Y-21312143D01*
X16023714Y-21312143D02*
X16104667Y-21393096D01*
X16104667Y-21393096D02*
X16266571Y-21474048D01*
X16266571Y-21474048D02*
X16590381Y-21474048D01*
X16590381Y-21474048D02*
X16752286Y-21393096D01*
X14566572Y-21393096D02*
X14728476Y-21474048D01*
X14728476Y-21474048D02*
X15052286Y-21474048D01*
X15052286Y-21474048D02*
X15214191Y-21393096D01*
X15214191Y-21393096D02*
X15295143Y-21231191D01*
X15295143Y-21231191D02*
X15295143Y-20583572D01*
X15295143Y-20583572D02*
X15214191Y-20421667D01*
X15214191Y-20421667D02*
X15052286Y-20340715D01*
X15052286Y-20340715D02*
X14728476Y-20340715D01*
X14728476Y-20340715D02*
X14566572Y-20421667D01*
X14566572Y-20421667D02*
X14485619Y-20583572D01*
X14485619Y-20583572D02*
X14485619Y-20745477D01*
X14485619Y-20745477D02*
X15295143Y-20907381D01*
X13757048Y-21474048D02*
X13757048Y-20340715D01*
X13757048Y-20664524D02*
X13676095Y-20502620D01*
X13676095Y-20502620D02*
X13595143Y-20421667D01*
X13595143Y-20421667D02*
X13433238Y-20340715D01*
X13433238Y-20340715D02*
X13271333Y-20340715D01*
%TO.C,kibuzzard-637CA201*%
G36*
X24538595Y-61419020D02*
G01*
X23931376Y-61419020D01*
X23109845Y-61419020D01*
X22949825Y-61419020D01*
X22800997Y-61419020D01*
X22756349Y-61270192D01*
X22949825Y-61270192D01*
X23109845Y-61270192D01*
X23702776Y-61270192D01*
X23931376Y-61270192D01*
X24378575Y-61270192D01*
X24538595Y-61270192D01*
X24538595Y-60527242D01*
X24948646Y-60527242D01*
X25148671Y-61270192D01*
X25348696Y-61270192D01*
X25548721Y-60527242D01*
X25385844Y-60527242D01*
X25247255Y-61155892D01*
X25244397Y-61155892D01*
X25105809Y-60527242D01*
X24948646Y-60527242D01*
X24538595Y-60527242D01*
X24538595Y-60377223D01*
X24541452Y-60375794D01*
X24787197Y-60512954D01*
X24787197Y-60372937D01*
X24537166Y-60227204D01*
X24378575Y-60227204D01*
X24378575Y-61270192D01*
X23931376Y-61270192D01*
X23931376Y-61027304D01*
X23702776Y-61027304D01*
X23702776Y-61270192D01*
X23109845Y-61270192D01*
X23109845Y-60377223D01*
X23112702Y-60375794D01*
X23358447Y-60512954D01*
X23358447Y-60372937D01*
X23108416Y-60227204D01*
X22949825Y-60227204D01*
X22949825Y-61270192D01*
X22756349Y-61270192D01*
X22398804Y-60078376D01*
X22800997Y-60078376D01*
X22949825Y-60078376D01*
X25548721Y-60078376D01*
X25697549Y-60078376D01*
X26099742Y-61419020D01*
X25697549Y-61419020D01*
X25548721Y-61419020D01*
X25148671Y-61419020D01*
X24538595Y-61419020D01*
G37*
%TD*%
%LPC*%
%TO.C,SB2*%
G36*
X31735779Y-66746386D02*
G01*
X31135779Y-66746386D01*
X31135779Y-66246386D01*
X31735779Y-66246386D01*
X31735779Y-66746386D01*
G37*
%TO.C,SB1*%
G36*
X31735779Y-68050000D02*
G01*
X31135779Y-68050000D01*
X31135779Y-67550000D01*
X31735779Y-67550000D01*
X31735779Y-68050000D01*
G37*
%TD*%
D15*
%TO.C,J3*%
X30922779Y-45526386D03*
D16*
X28382778Y-45526385D03*
X25842778Y-45526385D03*
X23302778Y-45526385D03*
X20762778Y-45526385D03*
%TD*%
D17*
%TO.C,J1*%
X23272000Y-78904000D03*
X29052000Y-78904000D03*
D18*
X21836999Y-78403999D03*
D19*
X21836999Y-82583999D03*
D18*
X30486999Y-78403999D03*
D19*
X30486999Y-82583999D03*
%TD*%
D20*
%TO.C,TP1*%
X31308779Y-49844386D03*
%TD*%
D21*
%TO.C,SB2*%
X31435778Y-67146385D03*
X31435778Y-65846385D03*
X31435778Y-64546385D03*
%TD*%
D22*
%TO.C,J4*%
X190499Y-73466747D03*
D16*
X190499Y-70926747D03*
X190499Y-68386747D03*
D23*
X190500Y-65846748D03*
D16*
X190499Y-63306747D03*
X190499Y-60766747D03*
X190499Y-58226747D03*
X190499Y-55686747D03*
X190499Y-53146747D03*
X190499Y-50606747D03*
X190499Y-48066747D03*
X190499Y-45526747D03*
%TD*%
D20*
%TO.C,TP3*%
X27066979Y-49844386D03*
%TD*%
D21*
%TO.C,SB1*%
X31435778Y-67149999D03*
X31435778Y-68449999D03*
X31435778Y-69749999D03*
%TD*%
D15*
%TO.C,J2*%
X52190500Y-73472748D03*
D16*
X52190499Y-70932747D03*
X52190499Y-68392747D03*
X52190499Y-65852747D03*
X52190499Y-63312747D03*
X52190499Y-60772747D03*
X52190499Y-58232747D03*
X52190499Y-55692747D03*
X52190499Y-53152747D03*
X52190499Y-50612747D03*
X52190499Y-48072747D03*
X52190499Y-45532747D03*
%TD*%
D20*
%TO.C,TP2*%
X24984179Y-49844386D03*
%TD*%
M02*
