M48
; DRILL file {KiCad (7.0.0)} date Fri Mar 31 13:35:02 2023
; FORMAT={-:-/ absolute / inch / decimal}
; #@! TF.CreationDate,2023-03-31T13:35:02+02:00
; #@! TF.GenerationSoftware,Kicad,Pcbnew,(7.0.0)
; #@! TF.FileFunction,Plated,1,2,PTH
FMAT,2
INCH
; #@! TA.AperFunction,Plated,PTH,ViaDrill
T1C0.0118
; #@! TA.AperFunction,Plated,PTH,ViaDrill
T2C0.0157
; #@! TA.AperFunction,Plated,PTH,ComponentDrill
T3C0.0315
; #@! TA.AperFunction,Plated,PTH,ComponentDrill
T4C0.0394
%
G90
G05
T1
X0.7876Y-2.4484
X0.7926Y-2.1274
X0.7926Y-2.1874
X0.7936Y-2.3964
X0.8026Y-1.9824
X0.8096Y-2.5624
X0.8116Y-2.5324
X0.8326Y-2.2128
X0.8671Y-2.078
X0.9096Y-1.9304
X0.9126Y-2.0224
X0.9126Y-2.231
X0.9226Y-2.1176
X0.9226Y-2.1524
X0.9296Y-2.5324
X0.9516Y-1.8384
X0.9596Y-2.3074
X0.9676Y-2.1574
X0.9676Y-2.2074
X0.9676Y-2.2574
X0.9826Y-1.8374
X0.9836Y-2.7344
X0.9876Y-2.1074
X1.0156Y-2.5004
X1.0176Y-2.1574
X1.0176Y-2.2074
X1.0176Y-2.2574
X1.0326Y-2.6874
X1.0336Y-2.7344
X1.0436Y-2.5004
X1.0576Y-1.8374
X1.0676Y-2.1574
X1.0676Y-2.2074
X1.0676Y-2.2574
X1.068Y-2.0274
X1.0681Y-2.3047
X1.0856Y-2.6844
X1.1026Y-2.0274
X1.1344Y-2.4069
X1.1373Y-2.072
X1.1376Y-2.0274
X1.1376Y-2.3424
X1.1396Y-2.7084
X1.1576Y-1.8684
X1.1651Y-1.9749
X1.2026Y-2.0674
X1.2026Y-2.3074
X1.2029Y-2.3971
X1.2136Y-1.9104
X1.2296Y-2.2884
X1.2326Y-1.9624
X1.2326Y-2.0431
X1.2388Y-2.6429
X1.2448Y-2.1253
T2
X0.8226Y-1.9124
X0.8476Y-2.7674
X0.8776Y-2.4684
X0.8776Y-2.5304
X0.9226Y-2.7324
X1.0219Y-2.4054
X1.0476Y-2.5724
X1.1141Y-2.7359
X1.1716Y-1.9224
X1.2826Y-2.6424
T4
X0.0075Y-1.7924
X0.0075Y-1.8924
X0.0075Y-1.9924
X0.0075Y-2.0924
X0.0075Y-2.1924
X0.0075Y-2.2924
X0.0075Y-2.3924
X0.0075Y-2.4924
X0.0075Y-2.5924
X0.0075Y-2.6924
X0.0075Y-2.7924
X0.0075Y-2.8924
X0.8174Y-1.7924
X0.9174Y-1.7924
X1.0174Y-1.7924
X1.1174Y-1.7924
X1.2174Y-1.7924
X2.0547Y-1.7926
X2.0547Y-1.8926
X2.0547Y-1.9926
X2.0547Y-2.0926
X2.0547Y-2.1926
X2.0547Y-2.2926
X2.0547Y-2.3926
X2.0547Y-2.4926
X2.0547Y-2.5926
X2.0547Y-2.6926
X2.0547Y-2.7926
X2.0547Y-2.8926
T3
G00X0.8597Y-3.0691
M15
G01X0.8597Y-3.1045
M16
G05
G00X0.8597Y-3.2395
M15
G01X0.8597Y-3.2631
M16
G05
G00X1.2003Y-3.0691
M15
G01X1.2003Y-3.1045
M16
G05
G00X1.2003Y-3.2395
M15
G01X1.2003Y-3.2631
M16
G05
T0
M30
